<svg xmlns="http://www.w3.org/2000/svg" viewBox="0 0 111.87 359.66">
  <defs>
    <style>
      .cls-1,.cls-3{fill:#fff}.cls-1,.cls-2,.cls-4,.cls-5,.cls-7{stroke:#1e1e18}.cls-1,.cls-2,.cls-3,.cls-4,.cls-5,.cls-7{stroke-linecap:round;stroke-linejoin:round}.cls-2{fill:#ffe900}.cls-3{stroke:#263238}.cls-4,.cls-6{fill:none}.cls-5{fill:#1e1e18}.cls-6{stroke:#fff;stroke-miterlimit:10}.cls-7{fill:#85c441}
    </style>
  </defs>
  <g id="Layer_2" data-name="Layer 2">
    <g id="Layer_1-2" data-name="Layer 1">
      <g id="Warstwa_2" data-name="Warstwa 2">
        <g id="Character_2" data-name="Character 2">
          <path class="cls-1" d="M10.44 168l-1.18 9s-4.88 33.43-1.5 50.71 9.76 34.93 10.14 39.06-1.9 20.23.75 33.39 7.51 39.06 7.51 39.06L22 349s-8.64 5.63-9.76 7.51a1.69 1.69 0 00.29 2.38 1.58 1.58 0 00.46.25H40a15.29 15.29 0 001.13-6.38v-26.3c0-2.63 1.5-47.32 3-55.21s3-67.61 3-67.61h1.5s7.14 59.34 9 65.73 9.77 33.81 12 39.44S74.54 334 76 338.88a100.09 100.09 0 013.38 13.52 32.3 32.3 0 001.88 6.76h20.28s.38-3.38-1.13-5.63-11.27-12-12.77-19.16 2.26-40.19 1.88-51.83-3.68-13.18-3.68-23.32 3.76-40.94 3.76-55.59-2-28.15-5.67-35.86l-5.22-5.08H14.14z"/>
          <path class="cls-2" d="M90.81 341v.05s-5.26-3.38-7.14-.75-1.88 4.13-1.88 4.13h-4a67 67 0 011.75 7.89 32.3 32.3 0 001.88 6.76h20.28s.38-3.38-1.13-5.63c-1.1-1.55-6.27-6.89-9.76-12.45z"/>
          <path class="cls-3" d="M81.38 359.13h20.28a12 12 0 00-.07-2.61H80.47c.53 1.48.91 2.61.91 2.61z"/>
          <path class="cls-2" d="M41.19 352.75v-6.39h-7.14s.38-3-3-5.26-6.77 3-6.77 3h-.18L22 349s-8.64 5.63-9.76 7.51a1.69 1.69 0 00.29 2.38 1.58 1.58 0 00.46.25H40a15.46 15.46 0 001.19-6.39z"/>
          <path class="cls-3" d="M12.25 356.52a1.7 1.7 0 00.32 2.37 1.63 1.63 0 00.45.24H40a10.76 10.76 0 00.78-2.61z"/>
          <path class="cls-1" d="M87.66 320.49c.63-12.79 2.23-30.18 2-38-.38-11.65-3.76-13.15-3.76-23.29s3.76-40.94 3.76-55.59-2-28.15-5.67-35.86l-5.22-5.08H14.14l-3.7 5.27-1.18 9s-4.88 33.43-1.5 50.71 9.76 34.93 10.14 39.06-1.9 20.29.75 33.45c1.15 5.77 2.74 14 4.16 21.43a70.27 70.27 0 0018.46 1.67c.32-10.88 1.62-45.2 2.92-52 1.5-7.89 3-67.61 3-67.61h1.5s7.14 59.34 9 65.73 9.77 33.81 12 39.44c1 2.4 2 7.33 3 12.56a32.42 32.42 0 0014.97-.89z"/>
          <path class="cls-4" d="M53.21 200.25l20.28-16.15M23.53 185.6l10.52 8.64"/>
          <path class="cls-5" d="M40.29 8.07S36.51 7.32 35 9.79s-2.9 3.92-4.41 4.37-5.5.23-5.87 3.31-2.45 3.35-3.68 4-5.12 3-4.89 4.69 1 3.89-.44 4.6-5.31 1.48-5.2 4.26a7.47 7.47 0 01-2.86 6.19c-1.45.95-4.84 1.15-4.44 4.12s1 5.91 1 5.91L3.08 54.4S.51 56.77 2 59.6s4.72 4.16 2 7.55-4.6 5.15-2.49 7.13 4.66 1.4 4.76 4.16-2.76 6.93 1.51 7.37 5.2-.45 5.27 2.07 3.47 4.33 4.77 4.15.84.4 2.53 3.2A5.82 5.82 0 0026 98c1-.14 2.26-.81 4.3.68S51 109.56 68.22 107a60.88 60.88 0 0029.4-12.25c3.13-2.18 6.09-5.6 5.53-7.8s4-3.31 5.32-5.5 1.44-3 .85-5.41-.92-4.92-.37-6.76 1.44-3 .59-5.38.24-6.08 1.08-7.71 1.6-3.74-1.44-6.87-4.18-3.73-4.06-6.77.75-6.15-1.61-8.11a9.61 9.61 0 01-3.51-6.32c-.26-2 .83-3.64-2.47-4.72s-3.89-3.78-4.53-4.95-.4-3-4.21-4a10.58 10.58 0 01-6.42-4.69c-1-1.39-3.4-3.84-6.57-3.92s-4.68.38-7.34-1.79-5-3.88-7.83-3.5-2.55.6-6.58 1.89a13.37 13.37 0 01-7 .68C46 3 42.24 1 40.29 8.07z"/>
          <path class="cls-6" d="M7.61 67.18C9.32 65.18 5 60.32 6 56.36s1.29-3.73 1.91-7.61-.17-4.63 2.64-5.92 4.23-4.44 6.56-9 5.32-2.52 7-7.27 0-5.29 3.38-6.72 7.6-3.37 9.54-5.7A12.28 12.28 0 0143.48 10a10.45 10.45 0 003.4-1.4 11.49 11.49 0 015-2.74c2.94-.7 3.22.48 7.95-1.89m-12 8.46s-7 6-7.22 8.88-5.3 1.27-7.7 5.58-.3 7.85-3.49 10.17-10.54 4.07-9.71 8.86 1.24 7.79-.56 10.71-4.6 4.21-1.76 7 4.43 4.24 2.4 8.77-6.76 6.9-1.36 10 8.42 2.66 7.36 6 3.7 3.79 5 4.1M71.42 20.42c-4.64 3.06-1.48 6.33 3 9.65 5.06 3.76-2 6.27 2.19 8.38s6.08 1.48 5.63 8.75 1.47 7.43 3 9.87 2.91 3-.08 7.49-4.26 4.44-2.39 8.35 3.17 5.47.28 7.71-5 4.94-3.22 6.07 2.48 1.27 1.88 2.66"/>
          <path class="cls-1" d="M46.5 59.29l-2 15.09s-14.32 4.7-19.61 6.86-7.65 4.9-8.63 7.26-15 35-15.6 38.09.39 4.51 4.7 6.47 16.28-5.29 16.28-5.29l1.57 5.49S15.34 146.59 14 150.9 10.45 168 10.45 168s14.9 7.45 38.43 6.87 35.12-7.1 35.12-7.1-2.56-12.75-5.3-20.2-5.1-10.39-5.1-13.33S82.21 116 82.21 116l18.22 8.59s-4.3-14.86-5.43-24.86-3.23-11.63-7.16-15.16-21.17-8.62-21.76-9 .78-16.86.78-16.86-14.86 3.92-20.36.58z"/>
          <path class="cls-5" d="M57.87 69.63c2.75-1 6-3.6 8.57-5.92.21-2.81.39-5 .39-5s-14.83 3.94-20.33.6l-1.35 10c3.04 2.69 8 2.09 12.72.32z"/>
          <path class="cls-7" d="M78.68 147.57c-2.75-7.45-5.1-10.39-5.1-13.33S82.21 116 82.21 116l18.22 8.59s-4.3-14.86-5.43-24.86c-.63-5.41-1.53-8.36-2.83-10.5-27.94 3.55-59-2.82-71.39-5.83a11.68 11.68 0 00-4.49 5.1c-1 2.35-15 35-15.6 38.09s.39 4.51 4.7 6.47 16.28-5.29 16.28-5.29l1.57 5.49s-7.9 13.33-9.24 17.64-3.55 17.1-3.55 17.1 14.9 7.45 38.43 6.87 35.12-7.1 35.12-7.1-2.58-12.77-5.32-20.2z"/>
          <path class="cls-4" d="M24.14 122.37s-3.9-8.17-2.84-12.43 1.78-5.33 1.78-5.33"/>
          <path class="cls-7" d="M95 99.73c-.63-5.41-1.53-8.36-2.83-10.5-27.94 3.55-59-2.82-71.39-5.83a11.68 11.68 0 00-4.49 5.1c-.34.82-2.31 5.41-4.73 11.13 11 3 53.13 13.43 84.87 8.54A83.25 83.25 0 0195 99.73z"/>
          <path class="cls-1" d="M50.49 22.93l20.65 13.29a8.15 8.15 0 013.69 7.72.61.61 0 00.53.7.57.57 0 00.47-.13c1.37-1 3.55-2 4 1.29.68 4.8-1 7.2-4.12 8.57a10.1 10.1 0 01-4.51 1.06.63.63 0 00-.49.19c-1.25 1.32-7.87 8.21-12.83 10.06-5.48 2.06-11.29 2.6-14-1.86s-6.54-12.54-5.51-17.34c.92-4.3 8.44-19.87 10-23.07a1 1 0 01.94-.58h.88a.63.63 0 01.3.1z"/>
          <path class="cls-4" d="M53 40.63A5.39 5.39 0 0151.83 44c-1.18 1.17-3.92 2.74-3.92 3.92s2.55 3.53 4.9 3.33M57.89 41s4.31-1.57 6.66 1.77M44.55 39s3.53-1.57 5.3.39M46.09 33.47a5 5 0 015.49-1.57M59.23 33.86s5.49.19 6.67 5.29"/>
          <path class="cls-1" d="M9.66 120.12s-6.08 2.35-8 6.08-1.61 12.35 6 14.51 64.12-9.22 64.12-9.22a62.49 62.49 0 004.51 6.08c1.38 1.37 4.91 4.12 5.1 5.29s.59 8.63 2.16 9 1-3.53 1-3.53 2.55-3.72 2.55-5.49.39-7.45 0-8.82-9.61-9.41-11.57-10-52.16-2-56.86-2.74-7.45-1.36-9.01-1.16z"/>
          <rect x="56.71" y="51.22" width="26.49" height="11.83" rx="2.31" transform="rotate(-56.39 69.95656605 57.13450585)" fill="#ffe900" stroke-linecap="round" stroke-linejoin="round" stroke="#1e1e18"/>
          <path class="cls-1" d="M77.65 66.48s1.24-3.18 2.47-5.48 1.24-3.36.36-3.36a4.9 4.9 0 00-3.89 3.71 18.15 18.15 0 00-.35 5.83z"/>
          <path class="cls-1" d="M67.05 78.67s10.07-10.07 10.42-11 0-12.35-.15-15.59a1 1 0 00-.85-1 1 1 0 00-1.19.77 1 1 0 000 .17l-.79 9.28-2.33-11.7a1 1 0 00-1-.84 1 1 0 00-1 1v.09l.65 13-3-11a1.09 1.09 0 00-1.3-.81 1.08 1.08 0 00-.79 1.16l1.31 12-2.47 2.13v-4.26l-3-5a.85.85 0 00-1.09-.32.83.83 0 00-.39 1.09l2 4.39S58.21 78.13 58 78.66s.71 3.36 1.24 4.42 24.2 51.22 25.61 53.16 11 5 15.19.36 2.83-9.19.53-14.49-33.52-43.44-33.52-43.44z"/>
          <path d="M46.4 54.89a5.52 5.52 0 005.23 3.92c2.63-.19 5.13-2.66 5.13-2.66l-.58.06a26 26 0 01-9.78-1.32h0" stroke="#23231e" fill="none" stroke-linecap="round" stroke-linejoin="round"/>
        </g>
      </g>
    </g>
  </g>
</svg>