<?xml version="1.0" encoding="utf-8"?>
<!-- Generator: Adobe Illustrator 24.2.1, SVG Export Plug-In . SVG Version: 6.00 Build 0)  -->
<svg version="1.1" id="Layer_1" xmlns="http://www.w3.org/2000/svg" xmlns:xlink="http://www.w3.org/1999/xlink" x="0px" y="0px"
	 viewBox="0 0 136 134" style="enable-background:new 0 0 136 134;" xml:space="preserve">
<style type="text/css">
	.st0{fill:#FEFEFE;}
	.st1{fill:#201D1E;}
	.st2{fill:#FEFCFC;}
	.st3{fill:#85C441;}
	.st4{fill:#FCD790;}
</style>
<path class="st0" d="M85,133.9c-1.7,0-3.3,0-5,0c-0.4-0.5-0.8-1-1.1-1.5c-2.1-2.8-5.1-1.9-7.8-1.9c-15.6-0.1-31.3-0.1-46.9-0.1
	c-2,0-4,0.1-6-0.2C12,129.7,8,125.9,7.7,119.6c-0.5-10.5-0.2-20.9-0.1-31.4c0-3.9,2.1-5.7,5.9-5.8c5.3-0.1,10.6,0,16,0
	c28.6,0,57.2,0,85.8,0c8.4,0,9.2,0.8,9.2,9.1c0,8.3,0.1,16.6,0,24.9c-0.2,9.6-3.9,13.4-13.6,14.1c-2,0.2-4.4-0.4-5.8,1.9
	c-0.3,0.5-0.7,1-1.1,1.4c-5.7,0-11.3,0-17,0c-0.7-0.6,0-2.1-1.2-2.1C85.4,131.8,85.5,133.3,85,133.9z"/>
<path class="st0" d="M0.1,45c0-14,0.1-28-0.1-41.9C0,0.6,0.6,0,3.1,0C34.7,0.1,66.3,0.1,98,0.1c-0.6,3.2-3.5,3.1-5.6,4
	C66.5,14.5,40.6,24.9,14.7,35.1C9.2,37.3,4.6,40,1.5,45C1,45.4,0.5,45.4,0.1,45z"/>
<path class="st1" d="M1,45c1.4-5.4,5.5-7.9,10.3-9.9C39.5,23.9,67.7,12.6,95.8,1.3C96.6,1,97.3,0.5,98,0.1c2.3,0,4.7,0,7,0
	c6.1,0.7,9.5,4.5,11.7,10c5.5,14.1,11.2,28.1,16.9,42.1c2,4.9,2.6,9.9,1.4,15.1c-1,4.7-3.7,7.1-8.3,7.6c-1-1.4-1-3-0.5-4.6
	c3.9-5.2,3.7-10.5,1-16.3c-3.5-7.5-6.3-15.4-9.4-23.1c-2.1-5.1-2.3-5.2-7.3-3.2c-22.4,9-44.9,17.7-67.1,27c-0.5,0.2-0.9,0.3-1.4,0.4
	C34.6,55.6,27.4,56,20.2,55c-0.9-0.5-1.8-1.1-0.8-2.2c1-1.2,2.6-1.5,3.9-2.1C50.6,40,77.7,28.8,104.8,17.9c2.3-0.9,6.2-0.8,5.4-5.1
	c-0.7-3.8-4.8-7.2-8.6-7.2c-2.2,0-4.2,0.9-6.2,1.7C68.8,18,42,28.6,15.3,39.4c-9.5,3.8-10.7,6.3-7.8,16.4c0.3,1.1,0.7,2.2,0.6,3.4
	c-0.3,2-0.7,3.8-3.1,4.3c-4.1-2.6-3.9-6.9-4.4-10.9C0.8,50,0.1,47.4,1,45z"/>
<path class="st0" d="M127.1,74.8c7.8-5.1,9.6-10.7,6.2-19.5c-5.7-14.3-11.6-28.5-17-42.9C114,6.6,110.8,2.3,105,0.1
	c9.2,0,18.3,0.2,27.5-0.1c3-0.1,3.6,0.6,3.6,3.6c-0.1,43.4-0.1,86.9-0.1,130.3c-6.7,0-13.3,0-20,0c-0.3-0.6-0.2-1.1,0.2-1.6
	c7.9-4,9.7-10.8,9.4-19.1c-0.4-10.6-0.1-21.2-0.1-31.8C125.5,79.1,125,76.7,127.1,74.8z"/>
<path class="st2" d="M1,53.1c1.1,3.4,2.2,6.9,4.1,10c1.9,2.1,1.4,4.7,1.4,7.1c0.1,15,0.3,29.9-0.1,44.9c-0.2,7.8,2.2,13.6,9.3,17.2
	c0.5,0.5,0.6,1,0.3,1.6c-4.3,0-8.7-0.2-13,0.1c-2.5,0.1-3.1-0.6-3.1-3.1C0.1,105,0.1,79,0.1,53C0.4,52.6,0.7,52.6,1,53.1z"/>
<path class="st3" d="M16.1,133.9c-0.1-0.3-0.1-0.5-0.1-0.8c1.8-2,4.2-1.8,6.5-1.8c17.1-0.1,34.2-0.1,51.3,0c2.1,0,4.4-0.2,6.1,1.5
	c0.1,0.4,0.1,0.7,0.2,1.1C58.7,133.9,37.4,133.9,16.1,133.9z"/>
<path class="st3" d="M85,133.9c-0.8-1.4-2-2.7-0.2-4.2c0.8-0.7,1.8-0.8,2.6,0c1.6,1.5,0.6,2.9-0.4,4.3
	C86.3,133.9,85.6,133.9,85,133.9z"/>
<path class="st3" d="M116,133c-0.1,0.3-0.2,0.6-0.1,0.9c-4,0-8,0-12,0c0-0.4,0.1-0.7,0.1-1.1C108.1,130.7,112.1,130.5,116,133z"/>
<path class="st4" d="M1,53.1C0.7,53.1,0.4,53,0.1,53c0-2.7,0-5.3,0-8c0.3,0.1,0.6,0,0.9-0.1C1,47.7,1,50.4,1,53.1z"/>
<path class="st3" d="M116,133c-4-0.1-8-0.1-11.9-0.2c-1.3-3.1,0.8-3.3,2.9-3.4c15-1.2,15.9-2.2,15.9-17.4c0-8.1-0.1-16.3,0.1-24.4
	c0.1-2.8-0.7-3.6-3.6-3.6C83.8,84,48.2,84,12.6,83.9c-3.2,0-3.8,1-3.8,4c0.2,10.1,0,20.3,0.1,30.4c0,7.3,3.7,11,11,11.1
	c18.5,0.1,36.9,0,55.4,0.1c2,0,5.8-1.5,4.5,3.3c-21.3,0.1-42.6,0.2-63.9,0.3c-7.7-2.3-11-6.6-11-14.4c0-18.6,0.1-37.1,0.2-55.7
	c0.7-1.4,1.5-2.7,2.2-4.1c2.9-5.1,6.7-6.8,12-5.3c7.9,0,15.7,0,23.6,0c4.4-1.2,8.8-1.3,13.3-1.3c18.6,0.1,37.2,0,55.8,0
	c6.1,0,11.1,1.9,14.2,7.4c1.8,3.2,2.6,6.4,0.9,9.9c0,1.7,0,3.3,0,5c0,14.5,0,29.1-0.1,43.6C126.9,126.2,123.5,130.5,116,133z"/>
<path class="st3" d="M24.1,111.8c3.9,0.1,8.2-1.4,7.9,5.2c-0.2,4.2-1.5,5.7-5.5,5.2c-1.3-0.2-2.6,0-4,0c-5.7,0-7.9-2.9-5.8-8.3
	C18.2,109.9,22,112.6,24.1,111.8z"/>
<path class="st0" d="M19.3,53.7c-4.9-0.2-8.7,2-12,5.3C2.4,44.3,3.1,42.8,17.7,37C43.8,26.6,69.8,16.2,95.9,5.7
	c7.9-3.2,12.6-1.1,15.9,6.5c1.3,3.1,0.7,4.2-2.3,5.4C90.7,25,72.1,32.5,53.5,40C42.1,44.6,30.7,49.2,19.3,53.7z"/>
<path class="st0" d="M127.1,69.8c0.2-9.4-5.5-16.4-16.9-16.1c-22.4,0.5-44.9,0.1-67.3,0.1C55.1,47.7,68,43.4,80.5,38.2
	c10.5-4.4,21.2-8.4,31.8-12.9c3.2-1.3,4.5-0.7,5.7,2.5c3.7,9.9,7.8,19.7,11.8,29.5C131.8,62.2,131.2,66.4,127.1,69.8z"/>
<path class="st0" d="M65.6,74.2c-16.5,0-32.9,0.1-49.4-0.1c-2.4,0-6.1,1.4-6.8-0.9c-1.1-3.3-1.2-7.3,0.9-10.6
	c2.3-3.5,5.6-4.8,9.8-4.7c23.8,0.1,47.6,0.1,71.4,0.1c6.8,0,13.6,0,20.5,0c8,0.1,13,6.8,11.1,14.6c-0.7,2.7-2.6,1.6-4,1.6
	C101.2,74.2,83.4,74.2,65.6,74.2z"/>
</svg>
