<svg xmlns="http://www.w3.org/2000/svg" viewBox="0 0 1419.82 1170.84"><defs><style>.cls-1{fill:#85c441;}.cls-2{fill:#201D1E;}</style></defs><g id="Layer_2" data-name="Layer 2"><g id="Layer_1-2" data-name="Layer 1"><g id="Warstwa_2" data-name="Warstwa 2"><g id="Warstwa_1-2" data-name="Warstwa 1-2"><g id="Warstwa_2-2" data-name="Warstwa 2-2"><g id="Warstwa_1-2-2" data-name="Warstwa 1-2-2"><path class="cls-1" d="M322.6,335.46A15,15,0,0,1,308,323.77,264.86,264.86,0,1,1,824.53,206.42a270.58,270.58,0,0,1,6.36,49.35,15,15,0,0,1-30,1.09A240.11,240.11,0,0,0,795.27,213a234.86,234.86,0,1,0-458,104.12,15,15,0,0,1-11.31,17.94A14.67,14.67,0,0,1,322.6,335.46Z"/><path class="cls-1" d="M352.33,349.88a15,15,0,0,1-10.67-4.44c-5.57-5.64-30-13.85-57.08-14.42a15,15,0,0,1,.31-30h.32c.56,0,56.12,1.43,77.78,23.3a15,15,0,0,1-10.66,25.55Z"/><path class="cls-1" d="M310.18,862.46H276.23A280.75,280.75,0,1,1,285.29,301a15,15,0,0,1-.25,30h-.25a250.75,250.75,0,1,0-8.21,501.44h33.6a15,15,0,1,1,0,30Z"/><path class="cls-1" d="M1190.62,528A15,15,0,0,1,1177,506.78a238.92,238.92,0,0,0-359.3-291.7A15,15,0,0,1,799.83,191a268.94,268.94,0,0,1,404.43,328.31A15,15,0,0,1,1190.62,528Z"/><path class="cls-1" d="M1222.29,862.43a51.54,51.54,0,0,1-6.44-.37,15,15,0,0,1,3.84-29.76,45.78,45.78,0,0,0,6.67,0c1.73-.08,3.53-.18,5.38-.14a149.94,149.94,0,0,0,43-5.2,155.16,155.16,0,0,0,109.69-189.9C1362.18,554.59,1277,505.44,1194.5,527.52a15,15,0,0,1-7.75-29A185,185,0,0,1,1282.51,856a180.47,180.47,0,0,1-51.35,6.23c-1.05,0-2.27.06-3.55.11C1225.94,862.36,1224.16,862.43,1222.29,862.43Z"/><path class="cls-1" d="M1243.48,862.46H994.62a15,15,0,1,1,0-30h248.86a15,15,0,0,1,0,30Z"/><path class="cls-1" d="M505.33,862.46h-229a15,15,0,1,1,0-30h229a15,15,0,1,1,0,30Z"/><path class="cls-2" d="M694.9,1170.84a15,15,0,0,1-15-15v-456l-74.72,85.29a15,15,0,0,1-22.56-19.77l101-115.29A15,15,0,0,1,709.9,660v495.87A15,15,0,0,1,694.9,1170.84Z"/><path class="cls-2" d="M798.62,791.26a15,15,0,0,1-11.28-5.11l-101-115.29a15,15,0,1,1,22.57-19.77l101,115.29a15,15,0,0,1-11.28,24.88Z"/></g></g></g></g><circle class="cls-1" cx="874.33" cy="847.46" r="20.71"/></g></g></svg>