<svg xmlns="http://www.w3.org/2000/svg" viewBox="0 0 1413.44 1150.62"><defs><style>.cls-1{fill:#201D1E;}.cls-2{fill:#85c441;}</style></defs><g id="Layer_2" data-name="Layer 2"><g id="Layer_1-2" data-name="Layer 1"><g id="Layer_2-2" data-name="Layer 2"><g id="Layer_1-2-2" data-name="Layer 1-2"><g id="Warstwa_2" data-name="Warstwa 2"><g id="Warstwa_1-2" data-name="Warstwa 1-2"><path class="cls-1" d="M772.57,973.58H593.9a15,15,0,0,1,0-30H772.57a15,15,0,0,1,0,30Z"/><path class="cls-1" d="M815.09,1043.69h-173a15,15,0,1,1,0-30h173a15,15,0,1,1,0,30Z"/><path class="cls-1" d="M710.47,1150.62a169.65,169.65,0,0,1-93.83-28.3l-.15-.1-27.34-18.58A15,15,0,1,1,606,1078.83l27.27,18.53a139.73,139.73,0,0,0,153.21.76l25.34-18.91a15,15,0,1,1,17.94,24L804,1122.46c-.25.19-.51.37-.77.54A169.64,169.64,0,0,1,710.47,1150.62Z"/><circle class="cls-1" cx="588.89" cy="1028.89" r="17.72"/><circle class="cls-1" cx="824.55" cy="958.58" r="17.72"/></g></g></g></g><g id="Layer_2-3" data-name="Layer 2"><g id="Layer_2-2-2" data-name="Layer 2-2"><g id="Custom_software_development" data-name="Custom software development"><path class="cls-1" d="M673.38,901.51a15,15,0,0,1-14.94-13.88L626.11,455.89H601.82c-22.76,0-42.39-13.13-48.84-32.67-5.84-17.69.39-36,16.26-47.75S607,361.64,625.3,370c15.92,7.31,26.11,21.27,27.27,37.34L654,425.89H759.24l1.4-18.68c1.13-16.17,11.28-30.21,27.15-37.49,18.24-8.37,40.25-6.18,56.11,5.58,15.91,11.52,22.23,29.73,16.48,47.54-6.38,19.77-26.07,33.05-49,33.05h-24.3L754.76,887.5a15,15,0,1,1-29.91-2.24L757,455.89H656.2l32.15,429.5a15,15,0,0,1-13.84,16.08C674.13,901.5,673.75,901.51,673.38,901.51ZM789.32,425.89h22.06c8.21,0,17.72-3.79,20.45-12.26,1.2-3.72,1.21-9.18-5.57-14.06l-.2-.15c-8.18-6.09-18.83-5.61-25.76-2.44-3.43,1.57-9.24,5.27-9.74,12.4Zm-187.74-31a24,24,0,0,0-14.48,4.67c-5.43,4-7.37,8.95-5.63,14.24,2,6,9,12.07,20.35,12.07h22l-1.22-16.31c-.52-7.23-7.08-11-9.88-12.28A27.28,27.28,0,0,0,601.58,394.91Z"/><path class="cls-2" d="M850.14,901.38h0a14.54,14.54,0,0,1-3.38-.39H563.05a15,15,0,0,1-15-15A277.76,277.76,0,0,0,526.6,778.45a1299.86,1299.86,0,0,0-59.52-123.62L395.66,525.67A354.92,354.92,0,0,1,450,110c3.86-4,7.86-8,11.91-11.9a354.76,354.76,0,0,1,555.78,427.55L946.35,654.86a1270.3,1270.3,0,0,0-59.48,124,280.92,280.92,0,0,0-21.73,107.61A15,15,0,0,1,850.14,901.38ZM577.71,871H835.57a310.25,310.25,0,0,1,23.6-103.69,1298.34,1298.34,0,0,1,60.9-126.9l71.34-129.24a324.76,324.76,0,0,0-508.8-391.37c-3.7,3.53-7.37,7.19-10.9,10.9A324.92,324.92,0,0,0,421.94,511.2l71.42,129.15A1328.7,1328.7,0,0,1,554.28,766.9,307.22,307.22,0,0,1,577.71,871Z"/></g></g></g><path class="cls-2" d="M225.55,130.33a14.88,14.88,0,0,1-8.42-2.6L103.63,50.56a15,15,0,0,1,16.86-24.81L234,102.92a15,15,0,0,1-8.45,27.41Z"/><path class="cls-2" d="M112.07,561a15,15,0,0,1-8.44-27.4l113.5-77.17A15,15,0,1,1,234,481.25L120.49,558.43A15,15,0,0,1,112.07,561Z"/><path class="cls-2" d="M15,305.09a15,15,0,0,1-.06-30l138.84-.56h.06a15,15,0,0,1,.06,30l-138.84.56Z"/><path class="cls-2" d="M1187.89,130.33a15,15,0,0,1-8.45-27.41l113.5-77.17a15,15,0,0,1,16.87,24.81l-113.5,77.17A14.9,14.9,0,0,1,1187.89,130.33Z"/><path class="cls-2" d="M1301.37,561a15,15,0,0,1-8.43-2.59l-113.5-77.18a15,15,0,1,1,16.87-24.8l113.5,77.17a15,15,0,0,1-8.44,27.4Z"/><path class="cls-2" d="M1398.44,305.09h-.06l-138.84-.56a15,15,0,0,1,.06-30h.06l138.84.56a15,15,0,0,1-.06,30Z"/></g></g></svg>