<svg xmlns="http://www.w3.org/2000/svg" viewBox="0 0 1429.75 1141.57"><defs><style>.cls-1{fill:#85c441;}.cls-2{fill:#201D1E;}</style></defs><g id="Layer_2" data-name="Layer 2"><g id="Layer_1-2" data-name="Layer 1"><path class="cls-1" d="M39.78,665.42a15.61,15.61,0,0,1-7.65-29.23l162.12-90.81a15.62,15.62,0,0,1,15.26,27.25L47.39,663.43A15.54,15.54,0,0,1,39.78,665.42Z"/><path class="cls-1" d="M228.61,1002.58A15.62,15.62,0,0,1,221,973.34l162.12-90.8a15.61,15.61,0,1,1,15.26,27.24l-162.12,90.81A15.55,15.55,0,0,1,228.61,1002.58Z"/><path class="cls-1" d="M15.63,903.59A15.61,15.61,0,0,1,8,874.36L267.82,728.83a15.61,15.61,0,1,1,15.26,27.24L23.24,901.6A15.54,15.54,0,0,1,15.63,903.59Z"/><path class="cls-2" d="M1049.6,420.89A128.27,128.27,0,1,1,1112,404.5h0A127.42,127.42,0,0,1,1049.6,420.89Zm-.35-225a96.84,96.84,0,1,0,47.49,181.33h0a96.84,96.84,0,0,0-47.49-181.33Z"/><path class="cls-1" d="M681.82,774.61q-13.49,0-27-.48a15.62,15.62,0,0,1-13.06-8L435.34,397.62,101.55,250.93A15.61,15.61,0,0,1,100.2,223l74.24-41.58a607.26,607.26,0,0,1,481.44-48.69,742.27,742.27,0,0,1,662.34-93.28l100.93,34.23a15.61,15.61,0,0,1,10.21,18.23l-23.53,104a740.11,740.11,0,0,1-100.44,239,744.21,744.21,0,0,1-393.8,303.21A739.17,739.17,0,0,1,681.82,774.61Zm-17.15-31.43a708.44,708.44,0,0,0,237.24-34.73A710.35,710.35,0,0,0,1115.5,595.63,710.2,710.2,0,0,0,1279.17,418a709,709,0,0,0,96.2-229l20.44-90.24L1308.19,69A711.13,711.13,0,0,0,464.34,385.51ZM142.79,235,439.87,365.51a739.66,739.66,0,0,1,157.77-187.9q13.11-11.18,26.68-21.7A576.11,576.11,0,0,0,189.7,208.67Z"/><path class="cls-1" d="M605.93,1141.57a15.62,15.62,0,0,1-15.47-17.73l50-366.43a15.61,15.61,0,1,1,30.94,4.22L625.63,1097l46.91-26.27A576.15,576.15,0,0,0,951,703.45a15.61,15.61,0,0,1,30.35,7.34A607.26,607.26,0,0,1,687.8,1098l-74.24,41.58A15.54,15.54,0,0,1,605.93,1141.57Z"/><path class="cls-1" d="M562.58,726.82a73.78,73.78,0,0,1-63.91-36.94L419.9,553.69a73.67,73.67,0,0,1,9.36-86.82l27.47-30.13a15.61,15.61,0,0,1,23.07,21L452.34,487.9a42.56,42.56,0,0,0-5.41,50.16L525.7,674.25a42.61,42.61,0,0,0,45.72,20.42l42.22-8.84a15.61,15.61,0,1,1,6.4,30.56l-42.21,8.84A74.19,74.19,0,0,1,562.58,726.82Z"/><circle class="cls-1" cx="275.45" cy="518.1" r="18.34"/><circle class="cls-1" cx="473.01" cy="846.68" r="18.34"/><circle class="cls-1" cx="342.16" cy="707.12" r="18.34"/></g></g></svg>