<svg xmlns="http://www.w3.org/2000/svg" viewBox="0 0 1001.05 1066.9"><defs><style>.cls-1,.cls-14,.cls-6{fill:#fff;}.cls-2{fill:#c2c4c0;}.cls-10,.cls-11,.cls-12,.cls-13,.cls-2,.cls-4,.cls-5,.cls-6,.cls-8{stroke:#1e1e18;}.cls-10,.cls-11,.cls-12,.cls-2,.cls-4,.cls-5,.cls-6,.cls-8,.cls-9{stroke-linecap:round;stroke-linejoin:round;}.cls-14,.cls-3{isolation:isolate;}.cls-3{opacity:0.25;}.cls-12,.cls-4,.cls-9{fill:none;}.cls-13,.cls-5{fill:#ffe900;}.cls-11,.cls-7{fill:#fcfff7;}.cls-8{fill:#1e1e18;}.cls-9{stroke:#fff;}.cls-10{fill:#949494;}.cls-12{stroke-width:2px;}.cls-13{stroke-miterlimit:10;}.cls-14{opacity:0.5;}</style></defs><g id="Layer_2" data-name="Layer 2"><g id="Layer_1-2" data-name="Layer 1"><path class="cls-1" d="M603.44,735.37s-10.86,28.4-19.21,45.08-22.55,87.78-25.93,122.88S550,982.72,550,982.72s-19.24,35.09-28.42,48.47-22.55,20.89-15,30.06,25.93-3.34,39.32-10.86,15-20.89,22.55-24.23,23.42-.87,20.9-22.55S575.06,971,577.58,965.17s20-63.5,27.55-78.53,24.25-32.61,30.94-56a194.4,194.4,0,0,0,5.86-51s15.86-31.75,18.38-33.44S612.65,742.05,603.44,735.37Z"/><path class="cls-2" d="M603.44,735.37s-10.86,28.4-19.21,45.08-22.55,87.78-25.93,122.88S550,982.72,550,982.72s-19.24,35.09-28.42,48.47-22.55,20.89-15,30.06,25.93-3.34,39.32-10.86,15-20.89,22.55-24.23,23.42-.87,20.9-22.55S575.06,971,577.58,965.17s20-63.5,27.55-78.53,24.25-32.61,30.94-56a194.4,194.4,0,0,0,5.86-51s15.86-31.75,18.38-33.44S612.65,742.05,603.44,735.37Z"/><path class="cls-3" d="M591.45,764.79c7.29,3.75,21.28,10.67,29.85,10.67h12s9.32,21.3-6.66,57.26-44,78.53-50.63,106.49c-3.76,15.59-13.61,64.21-21.65,104.23,6.09-7,8.49-14.77,14-17.21,7.52-3.34,23.42-.86,20.9-22.54S575,971.11,577.54,965.25s20.07-63.58,27.59-78.61,24.25-32.61,30.94-56a194.4,194.4,0,0,0,5.86-51s15.86-31.75,18.38-33.44-47.66-4.17-56.87-10.85C603.44,735.37,597.61,750.24,591.45,764.79Z"/><path class="cls-4" d="M603.44,735.37s-10.86,28.4-19.21,45.08-22.55,87.78-25.93,122.88S550,982.72,550,982.72s-19.24,35.09-28.42,48.47-22.55,20.89-15,30.06,25.93-3.34,39.32-10.86,15-20.89,22.55-24.23,23.42-.87,20.9-22.55S575.06,971,577.58,965.17s20-63.5,27.55-78.53,24.25-32.61,30.94-56a194.4,194.4,0,0,0,5.86-51s15.86-31.75,18.38-33.44S612.65,742.05,603.44,735.37Z"/><path class="cls-5" d="M506.46,1061.33c7.52,9.2,25.94-3.35,39.32-10.86s15-20.89,22.55-24.24,23.42-.86,20.9-22.54c-2.21-19.32-11.69-30.06-12-36.3a29.55,29.55,0,0,1-10.52,15.41c-10.87,9.2-16.73,0-16.73,0s-19.24,35.09-28.42,48.47S498.94,1052.27,506.46,1061.33Z"/><path class="cls-6" d="M589.27,1003.88a61.79,61.79,0,0,1-13.42,9c-14.21,6.69-17.55,19.2-37.59,35.1a40.61,40.61,0,0,1-33.83,9.47,9.61,9.61,0,0,0,2,3.76c7.52,9.2,25.94-3.35,39.32-10.86s15-20.9,22.56-24.24S591.6,1025.33,589.27,1003.88Z"/><path class="cls-1" d="M819.17,739.54l19.24,29.27s8.35,38.44,20.9,63.5,43.49,67.63,58.53,86.08,20.07,54.33,20.07,54.33-7.52,15.9-2.52,27.58,19.25,20.07,21.76,30.93,17.56,36.78,29.25,35.09,19.25-16.68,10-38.44-26.77-38.43-31.76-61-20.91-116.18-34.29-145.41A340.26,340.26,0,0,0,903.63,773l-12.56-50.16S844.28,747.91,819.17,739.54Z"/><path class="cls-2" d="M819.17,739.54l19.24,29.27s8.35,38.44,20.9,63.5,43.49,67.63,58.53,86.08,20.07,54.33,20.07,54.33-7.52,15.9-2.52,27.58,19.25,20.07,21.76,30.93,17.56,36.78,29.25,35.09,19.25-16.68,10-38.44-26.77-38.43-31.76-61-20.91-116.18-34.29-145.41A340.26,340.26,0,0,0,903.63,773l-12.56-50.16S844.28,747.91,819.17,739.54Z"/><path class="cls-3" d="M930.39,821.45A340.26,340.26,0,0,0,903.63,773l-12.56-50.16s-46.79,25.09-71.9,16.72l19.13,29.08c3.27,0,6.88.19,10.75.19a83.64,83.64,0,0,0,30.63-6.65s32,50.57,47.93,93.18c11.09,29.57,25.41,74.47,34.88,101C956,923.46,942.2,847.3,930.39,821.45Z"/><path class="cls-4" d="M819.17,739.54l19.24,29.27s8.35,38.44,20.9,63.5,43.49,67.63,58.53,86.08,20.07,54.33,20.07,54.33-7.52,15.9-2.52,27.58,19.25,20.07,21.76,30.93,17.56,36.78,29.25,35.09,19.25-16.68,10-38.44-26.77-38.43-31.76-61-20.91-116.18-34.29-145.41A340.26,340.26,0,0,0,903.63,773l-12.56-50.16S844.28,747.91,819.17,739.54Z"/><path class="cls-5" d="M996.44,1027.88c-7.93-18.78-22.07-33.81-29-52a22.46,22.46,0,0,1-6.09,9.35c-9.21,7.52-23.42-12.55-23.42-12.55s-7.52,15.9-2.52,27.58,19.25,20.07,21.77,30.93,17.55,36.78,29.24,35.09S1005.65,1049.64,996.44,1027.88Z"/><path class="cls-6" d="M957.15,1031.23a50.88,50.88,0,0,0,4.52,11.27,25.55,25.55,0,0,1-1.17-2.93c-4.21-13.38-6.69-30.06-15.9-38.48a46.89,46.89,0,0,1-10.49-15.55,27.4,27.4,0,0,0,1.28,14.73C940.43,1012,954.71,1020.37,957.15,1031.23Z"/><path class="cls-6" d="M999.82,1038.63c-1,7-3.09,15-7.52,19.35-7.78,7.78-22.14-1.2-28.91-12.28,6.06,10.74,15.3,21.75,23.05,20.62C996.06,1065,1002.86,1054.45,999.82,1038.63Z"/><path class="cls-1" d="M851.79,477.11s1.66,1.66-5.86,6.65S820,493,824.2,499.66s8.35,10,5,12.55-8.34,2.52-12.51,5.82S800,481.28,800,481.28,830.89,466.1,851.79,477.11Z"/><path class="cls-7" d="M851.79,477.11s1.66,1.66-5.86,6.65S820,493,824.2,499.66s8.35,10,5,12.55-8.34,2.52-12.51,5.82S800,481.28,800,481.28,830.89,466.1,851.79,477.11Z"/><path class="cls-3" d="M851.79,477.11s1.66,1.66-5.86,6.65S820,493,824.2,499.66s8.35,10,5,12.55-8.34,2.52-12.51,5.82S800,481.28,800,481.28,830.89,466.1,851.79,477.11Z"/><path class="cls-4" d="M851.79,477.11s1.66,1.66-5.86,6.65S820,493,824.2,499.66s8.35,10,5,12.55-8.34,2.52-12.51,5.82S800,481.28,800,481.28,830.89,466.1,851.79,477.11Z"/><path class="cls-8" d="M660.31,504.69l-7.51,43.44S621.86,615,611,649.28s-26.77,94.43-26.77,94.43,11.69,9.2,46.84,15,79.31-16.69,79.31-16.69,13.39-71.88,17.56-81.08,15.86-33.44,15.86-33.44h10.9l28.42,110.35s25.9,6.69,41,9.17,37.59,4.17,57.7-10a117.17,117.17,0,0,0,31.76-36.75s-31.76-75.15-46-106.15-46.8-83.6-46.8-83.6l-10-34.27Z"/><path class="cls-9" d="M662,564.85l35.11,33.44"/><path class="cls-9" d="M704.67,609.07l5.83,4.25"/><path class="cls-9" d="M662.84,578.23,698,604.15"/><path class="cls-9" d="M692.57,740.4a121.27,121.27,0,0,0,14.58-6.54"/><path class="cls-9" d="M593.44,737a141.68,141.68,0,0,0,79.35,8.68"/><path class="cls-9" d="M786.57,729.5s57.71,36.79,120.29-33.44"/><path class="cls-9" d="M830.89,540.61l-16.73,31.75"/><path class="cls-9" d="M694.6,529.75A163.88,163.88,0,0,0,784.81,513"/><path class="cls-1" d="M816.24,494.81l-5.42-18.56L660.47,504.69l-1.36,7.74a172.75,172.75,0,0,0,75.78,4.77A386.42,386.42,0,0,0,816.24,494.81Z"/><path class="cls-10" d="M816.24,494.81l-5.42-18.56L660.47,504.69l-1.36,7.74a172.75,172.75,0,0,0,75.78,4.77A386.42,386.42,0,0,0,816.24,494.81Z"/><path class="cls-4" d="M816.24,494.81l-5.42-18.56L660.47,504.69l-1.36,7.74a172.75,172.75,0,0,0,75.78,4.77,386.42,386.42,0,0,0,81.35-22.39Z"/><path class="cls-1" d="M898.85,173.7A515.29,515.29,0,0,0,866.3,87.05c-10.19-21.68-20.3-48.85-36-67.15C820.25,8.22,801.84-1,797.66.7s-22.55,9.17-22.55,19.2,6.69,10,6.69,10-1.69,12.55,3.35,17.55,30.93,3.35,30.93,3.35a110.51,110.51,0,0,1,11.47,21.75c5,16.68,9.43,20,12.78,50.13a603,603,0,0,0,14.2,71.05,31.49,31.49,0,0,0-8.38,7.52c-5,5.86-36.76,37.57-36.76,37.57a192.94,192.94,0,0,1-28.45,10.86,140.41,140.41,0,0,0-24.74,10.37c-5.15-.6-10.33-1.16-13.12-1.16-5.86,0-46.8,7.51-46.8,7.51a139.7,139.7,0,0,0-30.06-13.38,191.52,191.52,0,0,1-28.46-10.86S606,210.44,601,204.62a31.38,31.38,0,0,0-8.39-7.52,600.23,600.23,0,0,0,14.21-71c2.71-24.27,9.7-51.85,24.28-71.88,0,0,25.9,1.69,30.94-3.34s3.31-17.55,3.31-17.55,6.69,0,6.69-10S653.66,5.7,649.49,4.05s-22.56,7.51-32.63,19.2-9.17,23.41-19.21,40.13S552.54,161.07,548.3,177s-9.17,25.06-8.35,32.61,41,51,51,62.68,48.49,51.82,48.49,51.82,14.21,70.19,18.38,95.29,1.69,94.42,1.69,94.42,46-10,89.47-15,91.11-21.72,97-21.72h5.87s-32.44-40.13-32.44-46c0-4.66,1.09-89.8,1.5-124,12.14-12.77,29.32-31,35.52-38.21,10-11.72,50.19-55.16,51-62.67S903,189.59,898.85,173.7Z"/><path class="cls-2" d="M898.85,173.7A515.29,515.29,0,0,0,866.3,87.05c-10.19-21.68-20.3-48.85-36-67.15C820.25,8.22,801.84-1,797.66.7s-22.55,9.17-22.55,19.2,6.69,10,6.69,10-1.69,12.55,3.35,17.55,30.93,3.35,30.93,3.35a110.51,110.51,0,0,1,11.47,21.75c5,16.68,9.43,20,12.78,50.13a603,603,0,0,0,14.2,71.05,31.49,31.49,0,0,0-8.38,7.52c-5,5.86-36.76,37.57-36.76,37.57a192.94,192.94,0,0,1-28.45,10.86,140.41,140.41,0,0,0-24.74,10.37c-5.15-.6-10.33-1.16-13.12-1.16-5.86,0-46.8,7.51-46.8,7.51a139.7,139.7,0,0,0-30.06-13.38,191.52,191.52,0,0,1-28.46-10.86S606,210.44,601,204.62a31.38,31.38,0,0,0-8.39-7.52,600.23,600.23,0,0,0,14.21-71c2.71-24.27,9.7-51.85,24.28-71.88,0,0,25.9,1.69,30.94-3.34s3.31-17.55,3.31-17.55,6.69,0,6.69-10S653.66,5.7,649.49,4.05s-22.56,7.51-32.63,19.2-9.17,23.41-19.21,40.13S552.54,161.07,548.3,177s-9.17,25.06-8.35,32.61,41,51,51,62.68,48.49,51.82,48.49,51.82,14.21,70.19,18.38,95.29,1.69,94.42,1.69,94.42,46-10,89.47-15,91.11-21.72,97-21.72h5.87s-32.44-40.13-32.44-46c0-4.66,1.09-89.8,1.5-124,12.14-12.77,29.32-31,35.52-38.21,10-11.72,50.19-55.16,51-62.67S903,189.59,898.85,173.7Z"/><path class="cls-3" d="M662.83,436c-2.52-11.72-5.86-79.43-10-101.15s-14.2-30.06-20.07-39.26-22.55-22.55-43.49-45.09-40.11-41.75-36.73-58.47c2.3-11.61,24.85-77,38.38-115.73-14,28.74-39.09,87.44-42.59,100.7-4.17,15.89-9.16,25.06-8.34,32.61s41,51,51,62.68,48.49,51.82,48.49,51.82,14.21,70.19,18.38,95.29a304.56,304.56,0,0,1,2.37,40.5C662.3,449.23,663.66,439.8,662.83,436Z"/><path class="cls-3" d="M894.57,202.1c0,12.55-61.05,57.68-75.18,81.09s-10,81.08-10,104.46a247.67,247.67,0,0,1-.82,28.44l10.9,13.23c0-13.38,1.05-90.18,1.47-122.12,12.14-12.78,29.31-31,35.52-38.21,10-11.73,50.18-55.16,51-62.68s-4.17-16.72-8.34-32.61a516.15,516.15,0,0,0-32.55-86.65c-10.19-21.68-20.3-48.85-36-67.15,0,0,26.5,64.37,42.4,107S894.57,189.59,894.57,202.1Z"/><path class="cls-4" d="M898.85,173.7A515.29,515.29,0,0,0,866.3,87.05c-10.19-21.68-20.3-48.85-36-67.15C820.25,8.22,801.84-1,797.66.7s-22.55,9.17-22.55,19.2,6.69,10,6.69,10-1.69,12.55,3.35,17.55,30.93,3.35,30.93,3.35a110.51,110.51,0,0,1,11.47,21.75c5,16.68,9.43,20,12.78,50.13a603,603,0,0,0,14.2,71.05,31.49,31.49,0,0,0-8.38,7.52c-5,5.86-36.76,37.57-36.76,37.57a192.94,192.94,0,0,1-28.45,10.86,140.41,140.41,0,0,0-24.74,10.37c-5.15-.6-10.33-1.16-13.12-1.16-5.86,0-46.8,7.51-46.8,7.51a139.7,139.7,0,0,0-30.06-13.38,191.52,191.52,0,0,1-28.46-10.86S606,210.44,601,204.62a31.38,31.38,0,0,0-8.39-7.52,600.23,600.23,0,0,0,14.21-71c2.71-24.27,9.7-51.85,24.28-71.88,0,0,25.9,1.69,30.94-3.34s3.31-17.55,3.31-17.55,6.69,0,6.69-10S653.66,5.7,649.49,4.05s-22.56,7.51-32.63,19.2-9.17,23.41-19.21,40.13S552.54,161.07,548.3,177s-9.17,25.06-8.35,32.61,41,51,51,62.68,48.49,51.82,48.49,51.82,14.21,70.19,18.38,95.29,1.69,94.42,1.69,94.42,46-10,89.47-15,91.11-21.72,97-21.72h5.87s-32.44-40.13-32.44-46c0-4.66,1.09-89.8,1.5-124,12.14-12.77,29.32-31,35.52-38.21,10-11.72,50.19-55.16,51-62.67S903,189.59,898.85,173.7Z"/><path class="cls-4" d="M665.28,33.28s-20.91-17.55-22.56-10,12.56,17.54,12.56,17.54"/><path class="cls-4" d="M636.9,31.63a16.81,16.81,0,0,1-15,18.37h0"/><path class="cls-4" d="M648.62,35.8l-16.73-8.38.83-5.83,5-2.51"/><path class="cls-4" d="M650.24,9.42a103,103,0,0,1,1.54,14"/><path class="cls-4" d="M659.56,11.75a52.38,52.38,0,0,1,0,17.13"/><path class="cls-4" d="M668.13,15.66a15.27,15.27,0,0,1-5.45,14"/><path class="cls-4" d="M781.8,29.93s29-7.51,24.85.83-17.55,10.9-17.55,10.9"/><path class="cls-4" d="M824.2,42.48A69.88,69.88,0,0,0,812.48,35c-4.18-1.69-5-7.52-5-7.52s9.21-1.65,9.21-5.82-6.7-7.51-6.7-7.51l-.86,4.2"/><path class="cls-4" d="M798.23,7.69s-3.31,16.57,9.24,19.58"/><path class="cls-4" d="M788.87,8.63s-2.33,12.47,5.45,18.79"/><path class="cls-4" d="M781.8,13.33s-2.36,10.89,3.09,14.76"/><path class="cls-11" d="M749,498.83c43.49-5,91.12-21.72,97-21.72h5.87s-32.63-40.13-32.63-46c0-4.66,1.09-89.8,1.5-124l18.79-19.95c-9.2-2.74-19.16-7.51-22.85-15.74-4.58-10.19-2.37-27.81,0-40.06l-7.52,7.52a193.63,193.63,0,0,1-28.45,10.86,139.66,139.66,0,0,0-24.74,10.37c-5.14-.6-10.33-1.17-13.11-1.17-5.87,0-46.8,7.52-46.8,7.52a139.78,139.78,0,0,0-30.07-13.38,191.94,191.94,0,0,1-28.46-10.86l-1.2-1.2a208.41,208.41,0,0,1,1.2,41.33c-1.58,12.36-11.5,18.15-18.38,20.71l20.07,21.08s14.21,70.19,18.38,95.29,1.69,94.42,1.69,94.42S705.46,503.68,749,498.83Z"/><path class="cls-4" d="M730.76,343.46a97.89,97.89,0,0,1-9.4-11.8"/><path class="cls-4" d="M819.16,431.12a494.74,494.74,0,0,0-52.62-53.47c-9.66-8.23-17.44-15.37-23.61-21.45"/><path class="cls-8" d="M679.3,228.37s-4.55-9.13-14.44-27.36-1.54-50.08,35.71-62.26,60.78,10.63,66.09,25.81.75,31.91-2.3,41a58.78,58.78,0,0,0-3,16.68,29.21,29.21,0,0,0-6.83-6.05c-5.34-3.76-14.44-44.07-26.62-47.08s-38,3.76-40.07,22.54S685.39,239.75,679.3,228.37Z"/><path class="cls-1" d="M758.31,219.24s4.54-12.89,10.64-6.8,3,18.78-.79,24.27-6.81,2.29-9.1-3.76A28.68,28.68,0,0,1,758.31,219.24Z"/><path class="cls-2" d="M758.31,219.24s4.54-12.89,10.64-6.8,3,18.78-.79,24.27-6.81,2.29-9.1-3.76A28.68,28.68,0,0,1,758.31,219.24Z"/><path class="cls-4" d="M758.31,219.24s4.54-12.89,10.64-6.8,3,18.78-.79,24.27-6.81,2.29-9.1-3.76a28.68,28.68,0,0,1-.75-13.71Z"/><path class="cls-1" d="M682.76,226.75s-7.86-11.27-12.07-3.76,2.18,19.13,7.29,23.19,7.18.37,7.75-6.09A29.33,29.33,0,0,0,682.76,226.75Z"/><path class="cls-2" d="M682.76,226.75s-7.86-11.27-12.07-3.76,2.18,19.13,7.29,23.19,7.18.37,7.75-6.09A29.33,29.33,0,0,0,682.76,226.75Z"/><path class="cls-4" d="M682.76,226.75s-7.86-11.27-12.07-3.76,2.18,19.13,7.29,23.19,7.18.37,7.75-6.09A29.33,29.33,0,0,0,682.76,226.75Z"/><path class="cls-6" d="M693,262.52a163.8,163.8,0,0,0,2.26,32.65A216.15,216.15,0,0,0,702.08,324l27.36-25.81,34.17,18.22s5.34-34.9-5.3-50.12-45.6-16.69-54.69-11.27A38,38,0,0,0,693,262.52Z"/><path class="cls-1" d="M702.87,270.15s19.77,51.63,30.4,47.83S747,268.61,747,268.61,714.14,275.45,702.87,270.15Z"/><path class="cls-11" d="M702.87,270.15s19.77,51.63,30.4,47.83S747,268.61,747,268.61,714.14,275.45,702.87,270.15Z"/><path class="cls-3" d="M702.87,270.15s19.77,51.63,30.4,47.83S747,268.61,747,268.61,714.14,275.45,702.87,270.15Z"/><path class="cls-4" d="M702.87,270.15s19.77,51.63,30.4,47.83S747,268.61,747,268.61,714.14,275.45,702.87,270.15Z"/><path class="cls-1" d="M677,206.35s3.76,33.4,8.39,48.58,22.17,29,45.7,25.18S763,242,763,239.75s-1.5-43.28-10.64-58.46-26.58-29.61-50.9-18.23S674.75,198,677,206.35Z"/><path class="cls-2" d="M677,206.35s3.76,33.4,8.39,48.58,22.17,29,45.7,25.18S763,242,763,239.75s-1.5-43.28-10.64-58.46-26.58-29.61-50.9-18.23S674.75,198,677,206.35Z"/><path class="cls-3" d="M763,239.75c0-2.29-1.5-43.28-10.64-58.46a57.57,57.57,0,0,0-6.24-8.57c2.22,9.47,13.72,60.46,4.62,77.85-10,19.24-31.76,20.93-51.83,10.9-15-7.51-19.17-51.14-20.41-73.27a34.59,34.59,0,0,0-1.35,18.15s3.75,33.4,8.38,48.58,22.17,29,45.71,25.18S763,242,763,239.75Z"/><path class="cls-4" d="M677,206.35s3.76,33.4,8.39,48.58,22.17,29,45.7,25.18S763,242,763,239.75s-1.5-43.28-10.64-58.46-26.58-29.61-50.9-18.23S674.75,198,677,206.35Z"/><path class="cls-6" d="M698.62,225.89a39.7,39.7,0,0,0,38.45-9.28c3.38,1.12,2.1,21.53-16.58,24.49a19.31,19.31,0,0,1-21.87-15.21Z"/><path class="cls-4" d="M709.41,207.81s-4.66,6.5-2.33,8.8,11.57,2.78,16.23-2.3-2.78-9.73-2.78-9.73"/><path class="cls-4" d="M691.59,210.89s2.29-7.51,14.44-7.51"/><path class="cls-4" d="M727.15,200.26a13.6,13.6,0,0,1,17.85-2"/><path class="cls-12" d="M704.37,188.05s-17.37-3.46-19.51,12.29"/><path class="cls-12" d="M722.79,186.1s12.25-9.92,23.64.71"/><path class="cls-8" d="M291.3,202.1s0-17.7-19.06-30.62-64.73-5.45-81.75,16.34-18.42,37.58-38.16,43.59-64.73,13-96,45.62S38.62,376.45,53,381.9s-3.42-4.77-1.39-22.55a26.47,26.47,0,0,1,16.35-22.54s-18.38,29.27,20.45,67.41,81.75,29.3,117.87,21.79S286.6,392,290,360.63s-8.19-49,0-63.31,38.15-12.29,42.25-39.49S325.36,194.62,291.3,202.1Z"/><path class="cls-6" d="M422.52,688.74s19-24,26.32-24.84,18.12,15.74,22.85,28.37,15.75,38.55,15.75,51.17c0,22.06-9.47,29.12-13.38,25.18s-14.21-28.33-19.7-33.07a32,32,0,0,0-11.95-6.31S430.3,698.62,422.52,688.74Z"/><path class="cls-4" d="M441.81,669.91s23,23,31.23,45.09,10.72,43.58,3.31,52.6"/><path class="cls-6" d="M380.12,859.21s22.82,1.58,30.71,2.37,7.9,19.69,4.74,33.06-7.11,22.06-3.76,37-5.52,31.48-10.26,38.59-15,5.52-15.75,0,2.37-37.8-8.65-55.92S367.49,871.91,380.12,859.21Z"/><path class="cls-4" d="M401.51,860.64a44.8,44.8,0,0,1,4.93,28.78c-2.48,17.25.82,44.41.82,51s-9.05,32.05-12.33,32.88"/><path class="cls-6" d="M483.42,49c-4.1,0-20.45,4.1-21.8,8.87S458.23,109,458.23,109s-28.64,54.49-38.15,74.93-34.77,69.47-34.77,69.47L322,319.56s-9.54,4.77-25.9,14.28c-1.54.9-3.15,1.92-4.77,2.93l-30.07,6.61-25.79-4.88a423.33,423.33,0,0,0-38.15-26.57c-16.35-9.5-25.9-14.28-25.9-14.28l-63.34-66s-25.22-48.85-34.77-69.48S35.13,87.2,35.13,87.2s-2-46.29-3.38-51.07S14,27.27,10,27.27-1.63,49.06,1.07,53.83s10.15,4.59,10.15,4.59a135,135,0,0,0,0,16.34C11.9,78.18,22.12,85,22.12,85S36.45,144.24,46,185.08,67.76,253.2,73.21,258s59.28,59.21,70.18,77.62a217.88,217.88,0,0,0,30.67,37.58s-6.13,30.06-6.13,46.29,16.35,51.07,21.8,66.73S202,574.73,202,576.8s3.38,47,3.38,47S168.61,704.14,157,761.33s-6.16,89.92,20.41,102.17S324.6,892.76,328,896.86s6.13,6.8,10.91,6.8,10.9-2.7,15,0,4.06,4.77,8.84,4.77A14.7,14.7,0,0,1,373.7,916c1.35,2.71,9.54-2.74,12.25-23.19s-1.35-30-5.45-30.62-3.38-7.51-10.19-7.51a176,176,0,0,0-21.8,2.74,51.11,51.11,0,0,0-10.9-2c-4.1,0-8.87-3.42-11.61-4.09s-47.67-19.09-47.67-19.09l-1.73-.91c45.49-25.92,110-71.8,110-71.8s18.53-1.16,26.65-8.12a119.38,119.38,0,0,0,15-16.19l13.91-5.79a47,47,0,0,0-8.12-25.47c-8.08-10.41-11.57-15-11.57-15s-22,10.4-28.95,12.73-17.36,3.46-23.15,9.25-20.83,17.36-20.83,17.36l-50.93,26.6s64.84-83.3,72.92-118c7-29.76-3.76-62.64-21.5-86.65-13.42-18-32.25-31.79-46.53-49.26-6.84-8.3-12.07-14.47-11.58-18,.79-5.52,7.25-33.33,13.12-57L323.21,391c4.51-4.69,24.66-30.06,26.54-33.29,10.9-18.41,64.73-72.89,70.18-77.67s17.7-32,27.25-72.85S471,107,471,107s10.23-6.8,10.9-10.22a131.17,131.17,0,0,0,0-16.35s7.52,0,10.23-4.77S487.52,49,483.42,49Z"/><path class="cls-8" d="M422.52,688.74s-22,10.4-28.94,12.73-17.37,3.46-23.15,9.24-20.83,17.37-20.83,17.37l-50.93,26.6s64.84-83.31,72.92-118c7-29.76-3.76-62.64-21.5-86.65a201,201,0,0,0-22.33-24.24,278.33,278.33,0,0,1-46.12,32.62,129.41,129.41,0,0,1-79.69,17v1.32c0,2,3.38,47,3.38,47S168.57,704,157,761.21s-6.16,89.92,20.42,102.17S324.57,892.65,328,896.75s6.13,6.8,10.9,6.8,10.9-2.71,15,0,4.05,4.77,8.83,4.77a14.7,14.7,0,0,1,10.9,7.52c1.35,2.7,9.55-2.75,12.25-23.19s-1.35-30.06-5.45-30.62-3.38-7.52-10.18-7.52a177.42,177.42,0,0,0-21.8,2.75,51.32,51.32,0,0,0-10.91-2c-4.09,0-8.87-3.42-11.61-4.1S278.3,832,278.3,832l-1.73-.9c45.48-25.93,110-71.8,110-71.8s18.53-1.17,26.65-8.12a120,120,0,0,0,15-16.19l13.91-5.79A47.13,47.13,0,0,0,434,703.76C426,693.36,422.52,688.74,422.52,688.74Z"/><path class="cls-9" d="M248.56,619l13.38,6.32S206,760,198,798.57s1.58,57.48,16.54,57.48,57.51-22,57.51-22"/><path class="cls-9" d="M298.67,754.68s-33.57,49.6-43.12,61.21"/><path class="cls-1" d="M25.62,45.49S12,26.4,10,22.31,3.82,29.82,7.2,36.62A50,50,0,0,0,15.4,48.2S10,64.54,18.1,71.34"/><path class="cls-4" d="M25.62,45.49S12,26.4,10,22.31,3.82,29.82,7.2,36.62A50,50,0,0,0,15.4,48.2S10,64.54,18.1,71.34"/><path class="cls-1" d="M463.87,71s13.61-19,15.68-23.14,6.13,7.51,2.7,14.31a50.86,50.86,0,0,1-8.15,11.58s5.45,16.34-2.75,23.14"/><path class="cls-4" d="M463.87,71s13.61-19,15.68-23.14,6.13,7.51,2.7,14.31a50.86,50.86,0,0,1-8.15,11.58s5.45,16.34-2.75,23.14"/><path class="cls-7" d="M174.14,373.07S168,403.13,168,419.36s16.35,51.06,21.8,66.73,12.25,88.53,12.25,90.6c0,.56.27,4.58.68,10.07,24.1,6.72,73.79,9,133-53.06-10.75-10.93-22.55-21.12-32.21-33-6.85-8.31-12.07-14.47-11.58-18,.79-5.52,7.25-33.33,13.12-57l18.26-35c4.52-4.7,24.66-30.06,26.54-33.29,10.9-18.41,64.73-72.9,70.18-77.67s17.71-32,27.25-72.86c3.5-15,7.52-32.65,11.54-48.84a87.76,87.76,0,0,1-22.1-7.82c-6.58,12.85-13,25.7-16.69,33.52-9.55,20.44-34.77,69.47-34.77,69.47L322,319.26s-9.54,4.77-25.9,14.28c-1.54.9-3.15,1.92-4.77,2.93l-30.07,6.61-25.79-4.73a423.33,423.33,0,0,0-38.15-26.57c-16.35-9.5-25.9-14.28-25.9-14.28l-63.34-66.05S82.83,182.6,73.28,162c-4.39-9.39-12.81-26-20.63-41.33a203.22,203.22,0,0,1-20.15,7.25C36.9,146.15,41.9,167.31,46,185c9.55,40.88,21.8,68.12,27.25,72.89s59.28,59.22,70.18,77.63A219.45,219.45,0,0,0,174.14,373.07Z"/><path class="cls-13" d="M176,299.83c-3-1.57-4.62-2.36-4.62-2.36l-3.76-4-30.71,32.84c2.18,2.78,4.25,5.68,6.17,8.65Z"/><path class="cls-13" d="M147.26,272.29,140,264.78l-33.83,26.71,7.11,7.52Z"/><path class="cls-13" d="M202,314.6l-4.7-2.85-4.4-2.56L155.3,352.25c2.33,2.89,4.63,5.6,6.81,8Z"/><path class="cls-13" d="M117.07,240.65,78,262.3l7.52,7.51,38.87-21.64Z"/><path class="cls-13" d="M213,321.89,196.73,340a5.16,5.16,0,0,0-2,1.16,4.72,4.72,0,0,0-1.35,2.6l-22.93,25.55c2.26,2.33,3.76,3.75,3.76,3.75s-1.13,5.49-2.41,13.08l4.18-6.31c10.18,4.36,38.53,12.21,110.55,12.21q11,0,23.49-.26a5,5,0,0,0,2.18-.53A21.3,21.3,0,0,0,321,395.5l2.48-4.77c.9-.94,2.44-2.75,4.32-5a29.48,29.48,0,0,1-3.76,0c-13-1.58-20.9-29.2-24.32-54l-3.76,2.07c-1.54.9-3.15,1.91-4.77,2.92l-1.35.31c.56,3.75,1.2,7.51,2,11.27-49.81,12.81-75.71,2.4-85.37-3.42l15-16.68C218.9,326,216,324,213,321.89Zm35,42.76a189.46,189.46,0,0,0,46.35-6.46,93,93,0,0,0,9.44,23.29c-77.59,1.25-109.65-6.23-121.08-10.21l16.8-18.79C206.69,357.14,222,364.65,248,364.65Z"/><path class="cls-13" d="M80.61,177.11l-33.11,14c.9,3.53,1.76,6.91,2.67,10.22l35.1-15Z"/><path class="cls-13" d="M65.31,145.59,39,155.32c.79,3.42,1.62,6.8,2.41,10.18L69.94,155Z"/><path class="cls-13" d="M101,217.66c-1.47-2.82-3-6-4.74-9.28l-37,21.68c1.32,3.57,2.59,6.84,3.76,9.77Z"/><path class="cls-13" d="M401.51,221.34c-1.65,3.34-3.31,6.61-4.88,9.69,10.26,9.29,22.06,19.47,34.31,28.82,1.28-3.08,2.56-6.46,3.76-10.18C422.94,240.43,411.44,230.4,401.51,221.34Z"/><path class="cls-13" d="M293.93,473.06c.68-3.12,1.5-6.84,2.44-10.9-54.84,7.51-95.17.94-118-5.26,1.62,4.17,3.24,8.26,4.82,12.13a277.71,277.71,0,0,0,64.5,7.14A352.8,352.8,0,0,0,293.93,473.06Z"/><path class="cls-13" d="M414.18,195.94A357,357,0,0,0,445,216.12c.79-3,1.54-6.09,2.29-9.25a2.34,2.34,0,0,1,.31-1.39,333.32,333.32,0,0,1-28.84-19.12C417.49,189.21,415.91,192.45,414.18,195.94Z"/><path class="cls-13" d="M168.05,417.67v1.69a45.14,45.14,0,0,0,1.09,8.75c22.21-1.65,68.18-2.7,133.59,7.52.79-3.31,1.61-6.61,2.4-9.85v-.33C237.74,414.74,190.86,415.86,168.05,417.67Z"/><path class="cls-13" d="M322.84,521c-2.59-2.48-5.11-5-7.52-7.52-39.2,26.31-85.85,37-115.21,41.34.41,3.75.75,7.51,1,10.52C231.84,561,281.15,549.78,322.84,521Z"/><path class="cls-13" d="M194.59,510.33c.48,3.38,1,6.95,1.46,10.6h12.63A338.43,338.43,0,0,0,309,506.76c-1.85-2-3.76-4.06-5.45-6.2l-2-2.44C261.61,510.07,219.85,511.19,194.59,510.33Z"/><path class="cls-13" d="M377.6,261.21c9,11.27,18.8,22.13,28.57,32.27l7.52-7.51C403.92,275.71,394,264.63,385,253.54Z"/><path class="cls-13" d="M380.54,320.43l7.14-7.52a187.6,187.6,0,0,1-30.9-29.83l-7.29,7.51A193.13,193.13,0,0,0,380.54,320.43Z"/><path class="cls-13" d="M349.9,357.4a62.61,62.61,0,0,1,4-5.94c-5.83-11-14.32-27.28-21.85-42.8l-7.51,8c8.3,17,17.48,34.41,22.85,44.37C348.59,359.28,349.53,358,349.9,357.4Z"/><path class="cls-3" d="M457.89,158C441.81,193.46,411.06,261.24,405,274.73c-8.31,18.49-73.9,85-85,91.42s-17.55,22.17-22.18,38.78c-4.39,15.82-17.14,28.3-18.34,45.39-6.31-4.81-18.79-8.83-36.16-10.29-33.27-2.79-64.65,5.56-64.65-24.92S198,355,199,345.83s-17.55,7.51-26.8.94-72.06-78.5-90.55-101.46C69.86,230.58,49,169.64,35.36,127.37l-2.86.9c4.4,18.26,9.4,39.41,13.53,57.11,9.55,40.88,21.8,68.12,27.25,72.86s59.28,59.25,70.18,77.67a218.34,218.34,0,0,0,30.68,37.57S168,403.54,168,419.77s16.35,51.07,21.8,66.74S202.06,575,202.06,577.1c0,.56.27,4.58.68,10.07a94.26,94.26,0,0,0,10.11,2.18c-.64-28.56-5.37-88.08,2.75-101.08,8.83-14.12,51.46-14.76,63.9-22.84a70,70,0,0,0,15.37,41.33c6.73,8.83,22.07,20.89,36.76,31.45l4-4.06C324.87,523.22,313.06,513,303.4,501.2c-6.84-8.3-12.06-14.47-11.57-18,.79-5.52,7.25-33.33,13.12-57l18.26-35c4.51-4.7,24.66-30.06,26.54-33.29,10.9-18.41,64.73-72.9,70.18-77.67s17.7-32,27.25-72.86c3.5-15,7.52-32.65,11.54-48.84Z"/><path class="cls-4" d="M174.14,373.07S168,403.13,168,419.36s16.35,51.06,21.8,66.73,12.25,88.53,12.25,90.6c0,.56.27,4.58.68,10.07,24.1,6.72,73.79,9,133-53.06-10.75-10.93-22.55-21.12-32.21-33-6.85-8.31-12.07-14.47-11.58-18,.79-5.52,7.25-33.33,13.12-57l18.26-35c4.52-4.7,24.66-30.06,26.54-33.29,10.9-18.41,64.73-72.9,70.18-77.67s17.71-32,27.25-72.86c3.5-15,7.52-32.65,11.54-48.84a87.76,87.76,0,0,1-22.1-7.82c-6.58,12.85-13,25.7-16.69,33.52-9.55,20.44-34.77,69.47-34.77,69.47L322,319.26s-9.54,4.77-25.9,14.28c-1.54.9-3.15,1.92-4.77,2.93l-30.07,6.61-25.79-4.73a423.33,423.33,0,0,0-38.15-26.57c-16.35-9.5-25.9-14.28-25.9-14.28l-63.34-66.05S82.83,182.6,73.28,162c-4.39-9.39-12.81-26-20.63-41.33a203.22,203.22,0,0,1-20.15,7.25C36.9,146.15,41.9,167.31,46,185c9.55,40.88,21.8,68.12,27.25,72.89s59.28,59.22,70.18,77.63A219.45,219.45,0,0,0,174.14,373.07Z"/><path class="cls-1" d="M228.64,285.18s.68,42.91-2.75,53.13-22.55,30.06-14.28,46.33,38.15-2.07,48.87-21.79S266,337,266,337V306.9Z"/><path class="cls-7" d="M266.11,307l-37.59-21.79s.68,42.91-2.74,53.13a26.89,26.89,0,0,1-1.84,4.1,38.52,38.52,0,0,0,22,.48,57.83,57.83,0,0,0,20-14.05Z"/><path class="cls-14" d="M266.11,307l-37.59-21.79s.68,42.91-2.74,53.13a26.89,26.89,0,0,1-1.84,4.1,38.52,38.52,0,0,0,22,.48,57.83,57.83,0,0,0,20-14.05Z"/><path class="cls-4" d="M228.64,285.18s.68,42.91-2.75,53.13-22.55,30.06-14.28,46.33,38.15-2.07,48.87-21.79S266,337,266,337V306.9Z"/><path class="cls-1" d="M221.12,256.59s-12.93-12.25-16.35-3.39S210.22,275,215,276.35l4.77,1.35a54.89,54.89,0,0,0,13.64,25.89c10.9,10.9,23.16,16.35,36.77,9.55s24.54-23.86,27.93-44.27a115.12,115.12,0,0,0,2.06-30.66c0-3.42-6.12-27.92-23.87-34s-15.67,1.35-29.28,17A321.66,321.66,0,0,0,221.12,256.59Z"/><path class="cls-7" d="M296.45,225.62c1.13,11.28,3,40.51-5.11,54.53C281.19,297.65,271,314.3,250.7,306s-26.8-29.57-26.8-29.57-5.52.93-13.87-6.47a10.05,10.05,0,0,0-2.93-1.88,18,18,0,0,0,7.89,8.31l4.78,1.35a54.93,54.93,0,0,0,13.64,25.89c10.9,10.9,23.16,16.34,36.77,9.54s24.54-23.86,27.92-44.26a114.71,114.71,0,0,0,2.07-30.66A43.62,43.62,0,0,0,296.45,225.62Z"/><path class="cls-14" d="M296.45,225.62c1.13,11.28,3,40.51-5.11,54.53C281.19,297.65,271,314.3,250.7,306s-26.8-29.57-26.8-29.57-5.52.93-13.87-6.47a10.05,10.05,0,0,0-2.93-1.88,18,18,0,0,0,7.89,8.31l4.78,1.35a54.93,54.93,0,0,0,13.64,25.89c10.9,10.9,23.16,16.34,36.77,9.54s24.54-23.86,27.92-44.26a114.71,114.71,0,0,0,2.07-30.66A43.62,43.62,0,0,0,296.45,225.62Z"/><path class="cls-4" d="M221.12,256.59s-12.93-12.25-16.35-3.39S210.22,275,215,276.35l4.77,1.35a54.89,54.89,0,0,0,13.64,25.89c10.9,10.9,23.16,16.35,36.77,9.55s24.54-23.86,27.93-44.27a115.12,115.12,0,0,0,2.06-30.66c0-3.42-6.12-27.92-23.87-34s-15.67,1.35-29.28,17a321.66,321.66,0,0,0-25.9,35.4Z"/><path class="cls-4" d="M277.69,243s-4.77,8.83-2.74,10.9,8.87,6.13,5.45,8.15a25.11,25.11,0,0,1-10.22,2.07"/><path class="cls-4" d="M250.44,267s8.16,9.54,34.06,6.12c0,0-15.68,15.67-22.56,15.67S250.44,267,250.44,267Z"/><path class="cls-4" d="M245.67,245s9.54-3.38,15,2.07"/><path class="cls-4" d="M279.72,250.46s10.9-3.38,12.93,4.1"/><path class="cls-4" d="M245,233.44a15.36,15.36,0,0,1,17.71-4.06"/><path class="cls-4" d="M281.08,236.9s8.87-8.19,15,6.8"/></g></g></svg>