<?xml version="1.0" encoding="utf-8"?>
<!-- Generator: Adobe Illustrator 24.2.1, SVG Export Plug-In . SVG Version: 6.00 Build 0)  -->
<svg version="1.1" id="Layer_1" xmlns="http://www.w3.org/2000/svg" xmlns:xlink="http://www.w3.org/1999/xlink" x="0px" y="0px"
	 viewBox="0 0 183 122" style="enable-background:new 0 0 183 122;" xml:space="preserve">
<style type="text/css">
	.st0{fill:#FEFEFE;}
	.st1{fill:#FEBFCF;}
	.st2{fill:#85C441;}
	.st3{fill:#201D1E;}
</style>
<path class="st0" d="M113,0.1c22.3,0,44.6,0,67-0.1c2.5,0,3.1,0.6,3.1,3.1c-0.1,38.6-0.1,77.3,0,115.9c0,2.5-0.6,3.1-3.1,3.1
	c-59-0.1-117.9-0.1-176.9,0c-2.5,0-3.1-0.6-3.1-3.1C0.1,80.3,0.1,41.7,0,3.1C0,0.6,0.6,0,3.1,0C29.4,0.1,55.7,0.1,82,0.1
	c0.4,0.4,0.4,0.9,0.2,1.4c-0.9,2.1-2.8,3.7-3,6.7c3.4-5.7,8.7-4.4,13.6-4.4c4.2,0,8.3-0.2,12.5,0.1c4.2,0.3,5.1,1.7,3.4,5.4
	c-2.6,5.6-6,10.8-8.6,16.3c-2.5,5.2-2,6,3.8,6.1c2.7,0.1,5.3-0.1,8,0.1c4.6,0.3,5.4,1.6,3.2,5.7c-3.9,7.2-8.3,14-12.2,21.2
	c-1.3,2.4-4.5,4.7-2.9,7.5c1.5,2.8,5.2,1.2,7.9,1.6c3,0.4,7.3-1.4,8.8,1.6c1.4,2.9-2.6,5-4.4,7.1c-8.5,9.8-17.2,19.4-25.8,29.1
	c-1.2,1.4-2.8,2.9-4.7,1.7c-1.8-1.2-0.5-3.1,0-4.5c1.3-4,2.5-7.9,4-11.8c2.7-6.9,2.2-7.5-5.4-7.6c-4.5,0-9,0.2-13.5-0.1
	c-4.1-0.3-4.8-1.4-3.1-5.1c3.2-6.9,7.5-13.3,11.1-20.1c1.1-2,3.3-4,1.9-6.3c-1.4-2.3-4.3-1.3-6.5-1.4c-3-0.1-6,0.1-9-0.1
	c-4.7-0.3-5.4-1.5-3.2-5.5c3.1-5.5,6.6-10.7,9.9-16.8c-2.1,0.3-2.5,1.6-3.2,2.6c-3,4.8-5.9,9.7-8.8,14.5c-3.3,5.5-2.7,6.6,3.5,6.6
	c2.8,0,5.7,0,8.5,0c6.8,0.1,7.7,1.4,4.4,7.2c-3.5,6.1-6.8,12.2-10.3,18.3c-3.4,6-2.6,7.4,4.4,7.5c4.5,0.1,9-0.2,13.5,0.1
	c4.6,0.2,5.5,1.6,4,6.1c-2.5,7.4-5.1,14.8-7.8,22.1c-0.6,1.6-1.7,3.3-0.5,5.8c3.6-2.6,6.2-6,9-9.1c10.5-11.8,21-23.6,31.6-35.4
	c1.8-2,5.2-4.2,4.1-6.8c-1-2.5-4.8-0.9-7.3-1.2c-2-0.2-4,0.1-6-0.1c-4.8-0.3-5.7-1.9-3.3-6c4.2-7.2,8.4-14.4,12.6-21.5
	c1.4-2.3,4.3-4.7,2.7-7.6c-1.6-2.9-5.1-1.7-7.8-1.7c-11.2-0.1-11,0-5.9-10.1c2.9-5.7,7.3-10.9,7.1-17.8C112.5,0.9,112.6,0.5,113,0.1
	z"/>
<path class="st1" d="M113,0.1c0,0.3,0,0.7,0,1c-0.5,0.5-1,1-1.6,1.1c-9.3,0.9-18.5,0.9-27.8,0C82.9,2,82.4,1.5,82,1
	c0-0.3,0.1-0.6,0-0.9C92.3,0.1,102.7,0.1,113,0.1z"/>
<path class="st2" d="M82,1c10.3,0,20.7,0.1,31,0.1c2.2,2.1,1.1,4.2-0.1,6.3c-3.5,6.7-7.1,13.5-11.1,21.1c5,0,9.2,0,13.4,0
	c6.8,0,7.6,1.4,4.3,7.2c-5.4,9.3-10.9,18.7-16.3,28c-0.1,0.1,0,0.3,0,1.2c5,0,10.1-0.1,15.1,0c1.6,0,3.6-0.7,4.5,1.2
	c1,2.1-0.6,3.4-1.9,4.8c-14.2,15.9-28.3,31.8-42.5,47.7c-1.1,1.3-2.4,3.3-4.5,1.9c-1.8-1.2-0.7-3-0.1-4.5c3.1-8.9,6.3-17.8,9.4-26.8
	c0.3-0.9,0.9-1.8,0.3-3.3c-6.1,0-12.3,0-18.6,0c-7.5,0-8.3-1.5-4.6-8.2c4.5-7.9,9-15.9,13.9-24.6c-6.1,0-11.7,0-17.2,0
	c-5.4,0-6.3-1.5-3.5-6.3c3.7-6.3,7.5-12.6,11.2-18.8c0.9-1.5,1.9-3.8,4-2.4c1.7,1.1,0.4,2.9-0.4,4.4C64.8,36,61.1,42.1,57,49
	c6.2,0,11.8-0.1,17.3,0c5.1,0.1,6,1.6,3.5,6.1c-4.8,8.7-9.7,17.3-15,26.7c7.7,0,14.7,0.1,21.6,0c4.2-0.1,5.5,1.5,3.9,5.5
	c-2.4,6.4-4.6,12.8-6.9,19.3c0.9,0.8,1.9,0.4,2.7-0.6c10.8-12.1,21.6-24.2,33.2-37.2c-5.6,0-10.2,0-14.8,0c-5.4-0.1-6.3-1.6-3.5-6.3
	c4.8-8.3,9.8-16.6,14.6-24.9c0.8-1.4,2.1-2.6,2-5c-4.8,0-9.6,0-14.3,0c-5.1-0.1-5.7-0.9-3.4-5.5c3.7-7.2,7.4-14.3,11.5-22.2
	c-8.7,0-16.6,0-24.6,0c-2.8,0-2.9,2.8-4.1,4.4c-0.9,1.1-2.1,2.3-3.3,1.5c-1.2-0.7-1.1-2.5-0.2-3.6C78.7,5.1,79.4,2.3,82,1z"/>
<path class="st3" d="M141.9,84c0.9,0.7,1.8,1.2,2.5,1.9c6.3,5.9,12.5,11.8,18.8,17.8c1.3,1.3,3,2.9,1.3,4.6c-1.7,1.6-3-0.5-4.1-1.5
	c-6.3-5.9-12.5-11.9-18.7-17.8c-1.2-1.1-2-2.3-1.3-3.9C140.4,84.5,141.3,84.4,141.9,84z"/>
<path class="st3" d="M140.4,31c-1.6,0.2-1.9-0.6-1.6-2.1c0.3-1.7,1.5-2.5,2.6-3.5c5.7-5.5,11.5-11,17.3-16.5c1.4-1.3,3-3,4.6-1.5
	c2,1.8-0.4,3.2-1.6,4.3c-6.1,5.9-12.2,11.7-18.3,17.5C142.5,30,141.8,31,140.4,31z"/>
<path class="st3" d="M20.6,3.1C21.9,3,22.7,4,23.5,4.8c6.4,6,12.7,12.1,19.1,18.1c1.1,1,2.3,2.3,1,3.8c-1.1,1.2-2.6,0.3-3.5-0.6
	C33.4,19.7,26.7,13.2,20,6.8c-0.8-0.7-1.1-1.6-0.9-2.7C19.3,3.3,19.9,3.1,20.6,3.1z"/>
<path class="st3" d="M20.2,105.1c-0.5-0.2-1.3-0.4-1.5-0.8c-0.5-0.9-0.4-2.1,0.3-2.8c6.9-6.7,13.9-13.3,20.8-19.9
	c0.9-0.8,2.2-1,3.2-0.1c0.9,0.8,0.6,1.9-0.1,2.6c-7,6.8-14.1,13.5-21.2,20.3C21.4,104.7,20.8,104.8,20.2,105.1z"/>
<path class="st3" d="M17.4,54.2c-4.3,0-8.7,0-13,0c-1.4,0-3.3,0.4-3.2-2c0.1-1.7,1.5-2,2.9-2c8.8,0,17.7,0,26.5,0
	c1.4,0,2.9,0.2,3,1.9c0.1,2.2-1.7,2.1-3.2,2.1C26,54.2,21.7,54.1,17.4,54.2z"/>
<path class="st3" d="M165.6,54.2c4.3,0,8.6,0,12.9,0c1.4,0,3.4-0.3,3.2,1.9c-0.1,2-1.9,2-3.4,2c-8.6,0-17.3,0-25.9,0
	c-1.4,0-2.9-0.2-3-1.9c-0.1-2.1,1.6-2.1,3.2-2.1C157,54.2,161.3,54.2,165.6,54.2z"/>
<path class="st2" d="M73.8,20c0.1,1.1-0.4,1.9-1.6,2c-1.1,0.1-2-0.2-2.1-1.4c-0.1-1.3,0.2-2.3,1.8-2.3C72.9,18.3,73.6,18.9,73.8,20z
	"/>
</svg>
