<?xml version="1.0" encoding="utf-8"?>
<!-- Generator: Adobe Illustrator 24.2.1, SVG Export Plug-In . SVG Version: 6.00 Build 0)  -->
<svg version="1.1" id="Layer_1" xmlns="http://www.w3.org/2000/svg" xmlns:xlink="http://www.w3.org/1999/xlink" x="0px" y="0px"
	 viewBox="0 0 177 183" style="enable-background:new 0 0 177 183;" xml:space="preserve">
<style type="text/css">
	.st0{fill:#FEFEFE;}
	.st1{fill:#85C441;}
	.st2{fill:#201D1E;}
	.st3{fill:#FEF5F7;}
	.st4{fill:#FEF6F8;}
	.st5{fill:#FEF8ED;}
	.st6{fill:#FEF8EE;}
	.st7{fill:#FEFBFC;}
	.st8{fill:#FEECF0;}
	.st9{fill:#FEFBF4;}
	.st10{fill:#FEF9F1;}
	.st11{fill:#FEE4E0;}
</style>
<path class="st0" d="M88,0.1c28.5,0,57.1,0,85.6-0.1c2.6,0,3.4,0.3,3.4,3.2c-0.2,16.9-0.1,33.8-0.1,50.7c-0.5,0.3-1,0.4-1.5,0.1
	c-11.8-7.9-24.3-14.6-36.8-21.3c7.1,5.1,14.7,9.5,22.1,14.1c2,1.2,5.7,1.9,5,4.7c-0.7,2.8-4.3,1.8-6.6,1.8
	c-47.1,0.1-94.1,0.1-141.2,0c-2.3,0-5.6,0.8-6.4-1.5c-0.9-2.8,2.7-3.7,4.6-4.9C37,33.9,58.3,21.4,79,8.3c5.5-3.5,10.4-4.9,15.9-0.6
	C95.4,8.1,96,8.5,96.7,8C94.7,4.4,89,4.8,88,0.1z"/>
<path class="st0" d="M2.1,182.8c-0.6-0.3-1.7,0.7-2-0.5c-0.2-1.1,0-2.3,0-3.5c0-58.1,0-116.2-0.1-174.3C0,1.1,0.4,0,4.2,0
	C31.8,0.2,59.4,0.1,87,0.1c-0.1,3-2.9,3.4-4.7,4.5c-24.7,15-49.4,30.2-74.1,45.2c-1.4,0.9-2.9,1.7-4.1,2.8c-2.3,2.3-2.9,7.5-0.4,9
	c5.7,3.4,7.5,11,14.4,12.8c2.7,3.7,2.5,7.8,1.6,12c-2.4,10.4-2.9,21.1-2.9,31.7c0,10.4,0.8,20.9,3.1,31.2c0.9,4.1,0.3,7.9-2.2,11.4
	c-1.1,1.1-2.7,1.2-4.1,1.5c-1.2,0.2-2.6,0.6-2.7,1.8c-0.4,4.1-2.7,6-6.6,6.6c-1.5,0.2-1.7,1.9-1.8,3.2c-0.2,2.5,0,4.9,0.1,7.4
	C2.6,181.9,2.4,182.3,2.1,182.8z"/>
<path class="st1" d="M17.1,73.8c-4.7-0.3-8.5-1.8-8.6-7.4c0-1.6-1.1-1.8-2.3-1.9c-2.8-0.2-4.9-1.6-5-4.5c-0.1-3.5-0.9-6.9,3.4-9.4
	c16-9.4,31.7-19.2,47.6-28.9C63.7,14.5,75.4,7.3,87,0.1c0.3,0,0.7,0,1,0c2.9,2.7,6.7,4.1,10,6.3c1.3,0.8,2.8,1.8,1.8,3.5
	c-1,1.7-2.9,1-3.9,0c-6.2-6-11.5-3.4-17.8,0.6C56.1,24.3,33.9,37.6,10.9,51.6c52.1,0,103.3,0,155.4,0c-9.2-5.5-17.7-10.5-26.2-15.5
	c-1.3-0.8-2.7-1.4-3.8-2.4c-0.7-0.6-1.3-1.6-0.7-2.6c0.6-0.9,1.6-1,2.7-0.8c0.2,0,0.3,0.2,0.4,0.2c12.3,7.5,25.1,14.2,37.1,22.4
	c0.2,0.2,0.3,0.6,0.4,0.9c0.5,2.2,0.1,4.4,0.2,6.6c0,0.6,0.3,1.6-0.1,1.9c-5.6,3.9-7.5,12.4-15.9,12.9c-1.3,0.1-2.7,0-4-0.2
	c-0.5-0.1-1.1-0.2-1.6-0.4c-5.3-0.8-10.5,0-15.7,0.8c-13.2,0.2-26.3,0.2-39.5,0c-1.5-0.1-3.1,0.2-4.6,0c-3.9,0-7.9,0.1-11.8,0
	c-1.5,0.2-3.1-0.1-4.6,0c-13.6,0.2-27.2,0.2-40.8,0c-1.5,0-3.1,0.2-4.6,0c-3.9,0.1-7.8,0.1-11.7,0C19.7,75.4,18.3,75.1,17.1,73.8z"
	/>
<path class="st0" d="M159.9,73.8c4.8-0.4,8.9-1.6,8.7-7.7c-0.1-1.7,1.4-1.5,2.5-1.6c2.3-0.2,4.2-1,4.9-3.4c0.2-0.6,0.5-0.6,0.8-0.1
	c0,36.3,0,72.5,0,108.8c-0.4,0.3-0.9,0.5-1.5,0.5c-4,0-7.7-0.4-8.1-5.6c-0.2-1.8-1.7-2.3-3.2-2.5c-1.6-0.2-3.3-0.2-4.7-1.4
	c-2.5-3.2-3-6.9-2.3-10.8c2-9.9,3-20,3.2-30.1c0.3-11.6-1-23.1-3.1-34.6C156.4,81.1,156.5,77.1,159.9,73.8z"/>
<path class="st1" d="M2.1,182.8c0-0.3,0-0.7,0-1c1.6-1.6,3.6-1.5,5.6-1.5c54.7,0,109.4,0,164.1,0c1.2,0,2.3,0,3.4,0.4
	c0.6,0.3,1.2,0.6,1.7,1.1c-0.9,2.1-2.7,0.9-4,0.9C116,182.8,59,182.8,2.1,182.8z"/>
<path class="st1" d="M176.9,181.8c-0.4,0-0.8-0.1-1.2-0.1c-1.8-4.1-2.2-8.1,0.4-12c0.3-0.1,0.6,0,0.9,0.2
	C176.9,173.8,176.9,177.8,176.9,181.8z"/>
<path class="st1" d="M176.9,61c-0.3,0.1-0.6,0.2-0.8,0.1c0-2.4,0.1-4.9,0.1-7.3c0.3-0.2,0.6-0.1,0.7,0.2
	C176.9,56.3,176.9,58.7,176.9,61z"/>
<path class="st1" d="M106.4,16.3c-1.6-0.2-2.5-0.8-2.3-2.2c0.1-1.4,1-2,2.4-1.9c1.2,0.1,1.7,0.9,1.7,2
	C108.2,15.6,107.4,16.1,106.4,16.3z"/>
<path class="st1" d="M176,169.6c-0.1,4-0.2,8-0.4,12.1c-39.1,0-78.1,0.1-117.2,0.1c-18.8,0-37.6,0-56.4,0c-1.8-3.6-0.7-7.4-0.7-11
	c0-2.1,2.1-2,3.8-2.1c1.3-0.1,3.8,0.7,3.5-1.4c-1-7.4,4.2-6.2,8.4-6.4c1.2-1.1,2.7-1.4,4.2-1.3c3.9-0.1,7.8-0.1,11.6,0
	c1.5-0.2,3.1,0,4.6,0c13.6-0.2,27.2-0.2,40.8,0c1.5,0,3.1-0.2,4.6,0c3.9-0.1,7.9-0.1,11.8,0c1.5-0.2,3.1,0,4.6,0
	c13.3-0.2,26.6-0.2,39.9,0c1.5,0,3.1-0.2,4.6,0c3.9-0.1,7.8-0.1,11.7,0c1.6-0.1,3,0.3,4.3,1.3c1.8,0.1,3.6,0.2,5.4,0.2
	c1.9,0,3.6,0.9,3.3,2.8c-0.8,5.1,2.2,5.2,5.8,5C174.9,168.7,175.5,169.3,176,169.6z"/>
<path class="st2" d="M37.2,160.7c-1.4,0-2.8,0-4.1,0c-4.7-3.8-6.2-3.8-11.8,0c-1.4,0-2.8,0-4.2,0c4-7.7,0.5-15.3-0.4-22.9
	c-1.9-17.6-1.6-35.1,1.8-52.5c0.8-4.3-0.5-7.8-1.4-11.6c1.4,0,2.8,0,4.1,0.1c5.3,3.9,6.8,3.9,11.7,0c1.4,0,2.7,0,4.1,0
	c0.9,5.5,0.2,11,1.2,16.5c3.4,19.2,3.2,38.6-0.7,57.7C36.6,152.4,38.6,156.6,37.2,160.7z"/>
<path class="st0" d="M37.2,160.7c-3.3-6.5-0.9-13,0-19.4c2.8-19.1,2.3-38.1-1.5-57c-0.8-4.1,1.3-7,1.4-10.5c14-0.6,27.9-0.6,41.9,0
	c3.5,3.2,3.6,7.2,2.7,11.5c-2.2,11.4-3.5,23-3.1,34.6c0.3,10.1,1.3,20.2,3.3,30.2c0.8,4,0.1,7.6-2.9,10.6
	C65,160.7,51.1,160.7,37.2,160.7z"/>
<path class="st0" d="M139.9,160.7c-13.6,0-27.3,0-40.9,0c-3-3-3.7-6.6-2.9-10.6c1.9-9.8,2.9-19.7,3.2-29.7c0.4-11.8-1-23.5-3.1-35.1
	c-0.8-4.3-0.7-8.3,2.7-11.5c13.7-0.5,27.3-0.6,41,0c3.5,3.2,3.6,7.2,2.7,11.5c-2.2,11.6-3.5,23.3-3.1,35.1
	c0.3,9.9,1.5,19.9,3.3,29.7C143.6,154.2,142.9,157.8,139.9,160.7z"/>
<path class="st3" d="M81.2,69.5c-16.5,0.7-40.3-0.4-64.1,0c-2.4,0-4.6-0.1-4.5-3.2c0.1-3,2.7-1.9,4.3-1.9c47.8-0.1,95.6-0.1,143.4,0
	c1.8,0,4.5-0.8,4.2,2.5c-0.2,2.8-2.5,2.5-4.5,2.5C136.1,69.5,112.3,69.5,81.2,69.5z"/>
<path class="st2" d="M139.9,160.7c2.8-5.8,1.2-11.5,0.3-17.4c-3-19.5-2.8-39.1,1.2-58.4c0.8-4.2-0.9-7.4-1.4-11.1
	c5.4-0.6,10.7-1.6,16.1,0.1c-2.5,2.1-5.7,0.8-8.9,1.7c3.8,2.2,6.3,0,8.9-1.8c1.3,0,2.6,0,3.9,0c-2.6,5.4-1.2,10.8-0.3,16.4
	c3.1,19.8,2.9,39.7-1.1,59.4c-0.8,4.2,0.8,7.4,1.5,11.1c-1.4,0-2.7,0-4.1,0c-5.1-3.7-6.8-3.7-11.9,0
	C142.6,160.7,141.3,160.7,139.9,160.7z"/>
<path class="st4" d="M89,56c25.8,0,51.6-0.1,77.4,0.1c1.9,0,5.8-2.2,5.9,1.9c0,3.8-3.6,2.3-5.9,2.3c-49.6,0.1-99.2,0.2-148.8,0.3
	c-3,0-6-0.1-9-0.1c-1.8,0-3.4-0.2-3.5-2.5c-0.2-2.9,2.1-2,3.5-2C35.4,56,62.2,56,89,56z"/>
<path class="st2" d="M98.9,73.8c-3.8,7.2-0.5,14.3,0.3,21.4c2.3,18.8,1.8,37.4-2.1,55.9c-0.8,3.7,1.7,6.3,1.8,9.6
	c-1.4,0-2.7,0-4.1,0c-5-3.7-6.8-3.7-11.8,0c-1.4,0-2.7,0-4.1,0c2.8-5.8,1.1-11.5,0.3-17.4c-2.9-19.3-2.8-38.7,1.1-57.9
	c0.9-4.3-0.5-7.8-1.3-11.6c1.4,0,2.7,0,4.1,0c5.4,3.9,6.4,3.9,11.8,0C96.2,73.9,97.6,73.9,98.9,73.8z"/>
<path class="st5" d="M33,73.9c-0.3,3.5-2.7,3.8-5.6,3.9c-3,0.1-5.6-0.2-6.2-3.9C25.2,73.9,29.1,73.9,33,73.9z"/>
<path class="st6" d="M94.8,73.9c-0.5,3.7-3.1,3.9-6.1,3.9c-3,0-5.1-0.6-5.6-3.9C87,73.9,90.9,73.9,94.8,73.9z"/>
<path class="st7" d="M89,172.6c26.5,0,52.9,0,79.4,0c2,0,4.4-0.9,4.4,2.8c0.1,4-2.5,3.1-4.7,3.1c-49.5,0-98.9,0-148.4,0
	c-3.7,0-7.3-0.1-11,0c-2.3,0.1-3.7-0.3-3.7-3.2c0-3.2,1.9-2.8,3.9-2.8C35.7,172.6,62.4,172.6,89,172.6z"/>
<path class="st8" d="M89,164.9c23.8,0,47.6,0,71.4,0.1c1.5,0,4.3-1.3,4.2,1.7c-0.1,2.9-2.8,1.7-4.3,1.7c-47.6,0.1-95.2,0.1-142.8,0
	c-1.2,0-2.3,0-3.5-0.2c-1-0.2-1.2-1.1-1.1-1.9c0.1-0.7,0.4-1.3,1.2-1.4c1-0.1,2-0.1,3-0.1C41.1,164.9,65,164.9,89,164.9z"/>
<path class="st9" d="M21.3,160.7c0.7-4.6,4.1-3.7,7.2-3.9c2.9-0.2,4.3,1.1,4.5,3.9C29.1,160.7,25.2,160.7,21.3,160.7z"/>
<path class="st10" d="M83.1,160.7c0.4-4,3.2-3.8,6.1-3.9c2.9,0,5.3,0.3,5.7,3.9C91,160.7,87,160.7,83.1,160.7z"/>
<path class="st10" d="M144,160.7c0.4-3.5,2.8-3.9,5.7-3.9c3,0,5.8,0,6.2,3.9C151.9,160.7,147.9,160.7,144,160.7z"/>
<path class="st0" d="M19.8,117.2c-0.2-10.5,0.9-20.9,2.6-31.2c0.5-2.9,1.5-4.6,5-4.5c3.4,0.1,4.1,1.7,4.6,4.5
	c3.7,20.8,3.7,41.5,0,62.3c-0.4,2.5-0.7,4.6-4.3,4.7c-3.8,0.1-4.8-1.5-5.4-4.7C20.7,138,19.6,127.7,19.8,117.2z"/>
<path class="st0" d="M142.7,116.9c-0.4-10.2,0.6-20.2,2.3-30.2c0.5-2.9,0.9-5.2,5-5.2c4.2,0,4.4,2.6,4.8,5.3
	c3.3,20.3,3.3,40.6,0,60.9c-0.4,2.7-0.5,5.3-4.8,5.4c-4.5,0-4.6-2.6-5.1-5.6C143.2,137.4,142.3,127.2,142.7,116.9z"/>
<path class="st11" d="M156,73.9c-1.8,3.5-7.1,5.3-10.1,3.4c-0.9-0.6-1.5-1.4-1.5-2.4c0.1-1.4,1.4-1.1,2.3-1.1
	C149.8,73.8,152.9,73.9,156,73.9C156,73.9,156,73.9,156,73.9z"/>
<path class="st0" d="M96.2,117.2c0.4,10.5-0.7,20.9-2.4,31.2c-0.5,2.7-1,4.8-4.8,4.8c-3.7,0-4.4-1.8-4.9-4.7
	c-3.4-20.8-3.5-41.6,0-62.4c0.5-2.9,1.5-4.5,5.1-4.5c3.6,0,4.2,1.9,4.6,4.5C95.6,96.3,96.7,106.7,96.2,117.2z"/>
</svg>
