<?xml version="1.0" encoding="utf-8"?>
<!-- Generator: Adobe Illustrator 24.2.1, SVG Export Plug-In . SVG Version: 6.00 Build 0)  -->
<svg version="1.1" id="Layer_1" xmlns="http://www.w3.org/2000/svg" xmlns:xlink="http://www.w3.org/1999/xlink" x="0px" y="0px"
	 viewBox="0 0 139 124" style="enable-background:new 0 0 139 124;" xml:space="preserve">
<style type="text/css">
	.st0{fill:#FEFEFE;}
	.st1{fill:#201D1E;}
	.st2{fill:#FEFEFD;}
	.st3{fill:#FDEBC6;}
	.st4{fill:#FCDA97;}
	.st5{fill:#85C441;}
	.st6{fill:#FEFCFC;}
</style>
<g>
	<path class="st0" d="M138.9,51c0,23.3,0,46.6,0.1,69.9c0,2.5-0.6,3.1-3.1,3.1c-44.3-0.1-88.6-0.1-132.9,0c-2.5,0-3.1-0.6-3.1-3.1
		C0.1,96.3,0.1,71.7,0.1,47c0.5-0.3,0.9-0.3,1.3,0.1c2.4,5.5,3,11.5,5.5,17c8.9,19,23.3,33,39.8,45.1c5.9,4.3,12.2,8.1,18.9,11.1
		c4.9,2.1,8.4,1.3,12.1-3c-0.3-0.2-0.6-0.4-0.9-0.2c-6.6,4.5-12.2,1.4-17.9-2c-18.3-10.9-34.1-24.3-45.6-42.4
		c-8.9-14-12.2-29-7.7-45.3C12.4,2.9,40.4-4.6,58.5,13.2c2.5,2.5,4.8,5,6.8,7.9c4,5.8,5,5.8,9.1-0.2c3.1-4.6,6.7-8.6,11.4-11.7
		c17.7-11.6,37.7-5.9,46.4,13.5c6,13.3,5.2,26.5-0.5,39.6c-5.1,11.8-12.7,21.8-22.2,30.4c-3,2.8-6,5.6-8.7,8.9
		c1.4,0.6,1.9-0.2,2.5-0.7c14.3-13.2,27.7-27,32.8-46.6C136.5,53,136.5,50.9,138.9,51z"/>
	<path class="st1" d="M138.9,51c-2.1,2.5-2,5.8-3.1,8.7c-6.6,17.9-19,31.4-33.2,43.5c-1.1,1-2.7,2.3-3.8,0.6c-1.2-1.7,0.5-3,1.8-4.1
		c8.3-7.7,16.6-15.4,22.9-24.9c9.4-14.3,14.7-29.4,9.4-46.6c-3.5-11.6-10.4-20.2-22.6-23c-13.3-3-23.6,2.9-32,12.7
		c-1.9,2.3-3.6,4.8-5.2,7.3c-2.3,3.5-4.3,3-6.5,0c-1.7-2.4-3.3-5-5.3-7.3C51.6,6.4,38.7,1.9,26.8,5.9C14.7,10,6.2,22.2,5,36.5
		c-1.5,16.9,5,30.9,15.1,43.6c11.9,15,26.4,27,43.4,36.1c4.1,2.2,7.8,3.3,11.9,0.3c1.5-1.1,3.7-2.1,4.7,0.1c0.8,1.7-1.3,2.6-2.7,3.5
		c-4.7,3-9.1,3.3-14.4,0.4c-23.8-12.9-43.6-29.7-56.3-54c-3.2-6.1-5-12.6-5.8-19.5c-0.8-3.4-0.2-6.8-0.4-10.1
		C0.7,17.1,11.7,3.7,31,0.1c2.7,0,5.3,0,8,0c12.5,0.7,21.3,7.5,28.4,17c1.9,2.6,3.1,2.4,4.8,0c3.6-5.1,8.1-9.2,13.4-12.5
		c4.3-2.7,9-4.3,14.2-4c2.9,0,5.7,0,8.6,0c13.2-1.4,27.1,13.2,29.5,26.2c0.4,2.1,0.2,4.3,1.1,6.2C138.9,39,138.9,45,138.9,51z"/>
	<path class="st0" d="M98.9,1c-9.5,1.5-12.3,3.5-29.2,20.8c-2.4-3-4.6-6-7.1-8.8C56.3,5.8,48,2.3,39,0.1c20,0,40,0,59.9,0
		c0.3,0.2,0.4,0.5,0.3,0.6C99.1,0.9,99,1,98.9,1z"/>
	<path class="st0" d="M31,0.1C21.1,2.9,12.6,7.6,7.1,16.8C3.6,22.8,1.9,29.2,0.9,36c-0.3,0.5-0.6,0.5-0.9,0.1c0-12,0-24,0-36
		C10.4,0.1,20.7,0.1,31,0.1z"/>
	<path class="st2" d="M138.9,33c-2.9-7.2-4.4-15.1-10-21.1c-5.5-5.9-11.7-10-19.8-11.1c-0.4-0.1-0.6-0.2-0.5-0.5
		c0.1-0.2,0.2-0.4,0.3-0.4c9.1,0,18.2,0.1,27.3-0.1c2.4,0,2.8,0.5,2.8,2.8C138.8,12.9,138.9,23,138.9,33z"/>
	<path class="st3" d="M0.1,36c0.3,0,0.6,0,0.9-0.1c0,3.7,0,7.4,0,11.1c-0.3,0-0.6,0-0.9-0.1C0.1,43.4,0.1,39.7,0.1,36z"/>
	<path class="st4" d="M109,0.1c0.1,0.3,0.1,0.5,0.2,0.8c-3.4,0-6.9,0-10.3,0.1C98.9,0.7,99,0.4,99,0.1C102.3,0.1,105.6,0.1,109,0.1z
		"/>
	<path class="st5" d="M69.9,95.8C53,95.9,39.3,82.4,39.2,65.7C39.1,49,52.9,35.2,69.6,35.2c16.7,0,30.4,13.8,30.4,30.4
		C99.9,82.2,86.3,95.7,69.9,95.8z"/>
	<path class="st5" d="M84.4,112.7c0.2-1.4,1-2.2,2.3-2.3c1.4,0,2.2,0.9,2.1,2.2c-0.1,1.3-0.9,2.2-2.2,2.2
		C85.3,114.8,84.5,114,84.4,112.7z"/>
	<path class="st0" d="M69.9,39.2c14.3,0.1,26.3,12.5,26,26.7c-0.3,14.4-12.5,26.1-26.8,25.9c-14-0.2-26-12.5-25.9-26.4
		C43.3,51.2,55.6,39.1,69.9,39.2z"/>
	<path class="st5" d="M70.5,51.5c3.3-0.3,7-0.5,6.4,5.3c-0.2,1.7,1.2,1.7,2.4,1.6c4-0.4,4.8,1.9,4.5,5.3c-0.1,2,0.1,4-0.1,6
		c-0.4,4.5-4.9,1.6-6.5,3.6c-1.5,1.8,1,5.8-3.2,6.2c-3,0.3-7.2,1.3-8.7-0.2c-3.2-3.1-6.2-6.4-9.6-9.4c-1.5-1.3-0.5-5.7-0.2-8.7
		c0.3-4.5,5.1-1.3,6.6-3.5c1.2-1.9-1-5.8,3.3-6.1C66.9,51.4,68.4,51.5,70.5,51.5z"/>
	<path class="st6" d="M69.7,75.4c-2.3,0.4-3.3-0.7-3.1-3.1c0.2-2.7-1.2-4-3.9-3.9c-2.4,0.2-3.2-0.9-3.2-3.2c0-2.3,1.2-2.8,3.1-2.7
		c2.6,0.1,4.1-1,3.9-3.8c-0.2-2.3,0.7-3.3,3.1-3.2c2.3,0,3.5,0.7,3.2,3.2c-0.4,3.3,1.4,4.1,4.1,3.9c2.1-0.2,2.9,0.8,2.9,2.9
		c0,2-0.6,3.2-2.8,3c-3.1-0.2-4.7,0.9-4.3,4.3C73.1,75.1,71.7,75.6,69.7,75.4z"/>
</g>
</svg>
