<svg xmlns="http://www.w3.org/2000/svg" xmlns:xlink="http://www.w3.org/1999/xlink" viewBox="0 0 833.13 763.19"><defs><style>.cls-1,.cls-2,.cls-31{fill:none;}.cls-10,.cls-15,.cls-16,.cls-17,.cls-18,.cls-19,.cls-2,.cls-20,.cls-21,.cls-27,.cls-28,.cls-29,.cls-30,.cls-31,.cls-6{stroke:#393934;stroke-width:2px;}.cls-16,.cls-17,.cls-19,.cls-2,.cls-6{stroke-linecap:round;stroke-linejoin:round;}.cls-3,.cls-6{fill:#ffe900;}.cls-4{clip-path:url(#clip-path);}.cls-5,.cls-7{fill:#1e1e18;fill-opacity:0.7;}.cls-5{opacity:0.3;}.cls-22,.cls-5,.cls-7{isolation:isolate;}.cls-7{opacity:0.2;}.cls-19,.cls-8{fill:#fcfff7;}.cls-9{fill:#393934;}.cls-10,.cls-14,.cls-18,.cls-27,.cls-28{fill:#bfbfbf;}.cls-10,.cls-21{stroke-miterlimit:10;}.cls-11,.cls-15,.cls-29,.cls-30{fill:#201D1E;}.cls-12,.cls-16{fill:#757575;}.cls-13,.cls-17{fill:#999;}.cls-15,.cls-18{stroke-miterlimit:10;}.cls-20,.cls-21,.cls-22,.cls-23{fill:#85c441;}.cls-20{stroke-miterlimit:10;}.cls-22{opacity:0.4;}.cls-24{clip-path:url(#clip-path-2);}.cls-25{clip-path:url(#clip-path-3);}.cls-26{clip-path:url(#clip-path-4);}.cls-27,.cls-29,.cls-31{stroke-miterlimit:10;}.cls-28,.cls-30{stroke-miterlimit:10;}</style><clipPath id="clip-path"><path class="cls-1" d="M429.43,647.73a34.54,34.54,0,1,1-8.82-48.05A34.54,34.54,0,0,1,429.43,647.73Z"/></clipPath><clipPath id="clip-path-2"><path class="cls-1" d="M699.94,273.84l-6.22,14.1-167.22,223L507.88,499l25.21-31.72L683.29,278.9l13.26-8.41A4.75,4.75,0,0,1,699.94,273.84Z"/></clipPath><clipPath id="clip-path-3"><path class="cls-1" d="M581,444.89s-18.75,37-36.63,63.25l-12.82,3.32s-29.44,29.24-47.4,43.84a40.17,40.17,0,0,1-8.77-7.36s25.5-49,53.71-80a35.81,35.81,0,0,1,9.24,4.91,46,46,0,0,1,9.68,9.27l31.43-39.56Z"/></clipPath><clipPath id="clip-path-4"><polygon class="cls-1" points="505.67 409.36 253.41 515.52 227.41 526.47 178.41 410.04 64.62 139.65 342.87 22.54 505.67 409.36"/></clipPath></defs><g id="Layer_2" data-name="Layer 2"><g id="Layer_1-2" data-name="Layer 1"><g id="freepik--Graphics--inject-166"><rect class="cls-2" x="384.79" y="4.61" width="58.17" height="58.17" rx="9.54" transform="translate(1.94 85.99) rotate(-11.89)"/><line class="cls-2" x1="411.45" y1="22.08" x2="416.32" y2="45.28"/><line class="cls-2" x1="425.49" y1="31.22" x2="402.28" y2="36.12"/><rect class="cls-2" x="770.35" y="413.55" width="58.17" height="58.17" rx="9.54" transform="translate(-74.05 174.21) rotate(-11.89)"/><line class="cls-2" x1="805.93" y1="432.66" x2="792.98" y2="452.54"/><line class="cls-2" x1="809.38" y1="449.09" x2="789.51" y2="436.11"/><rect class="cls-2" x="245.73" y="657.9" width="58.28" height="58.28" rx="9.56" transform="translate(-427.4 920.27) rotate(-86.57)"/><line class="cls-2" x1="288.04" y1="685.63" x2="264.34" y2="684.26"/><rect class="cls-2" x="6.16" y="379.44" width="58.17" height="58.17" rx="9.54" transform="translate(-363.63 313.5) rotate(-71.67)"/><line class="cls-2" x1="50.09" y1="401.08" x2="20.41" y2="415.98"/><path class="cls-2" d="M33.07,395a4.42,4.42,0,1,1-.07-.12A.75.75,0,0,1,33.07,395Z"/><path class="cls-2" d="M44.84,418.4a4.13,4.13,0,1,1-.06-.12Z"/></g><g id="freepik--Coins--inject-166"><path class="cls-3" d="M429.43,647.73a34.54,34.54,0,1,1-8.82-48.05A34.54,34.54,0,0,1,429.43,647.73Z"/><g class="cls-4"><path class="cls-5" d="M424.93,644.61a29.06,29.06,0,1,1-7.39-40.43A29.07,29.07,0,0,1,424.93,644.61Z"/><path class="cls-2" d="M424.93,644.61a29.06,29.06,0,1,1-7.39-40.43A29.07,29.07,0,0,1,424.93,644.61Z"/><path class="cls-6" d="M408.47,613.57l1.4-2,3.49,2.4L412,616c2.61,2.72,2.55,6.11,0,9.78l-.6.87-4-2.8.79-1.12c1.33-1.88,1.07-3.21-.28-4.15s-2.64-.75-4,1.2-1.5,3.75-.21,8.1c1.56,5.21,1.28,8.18-.86,11.25-2.55,3.75-5.78,5-9.23,3.49l-1.36,2-3.43-2.38,1.36-2c-2.64-2.74-2.55-6.17,0-9.86l1.28-1.88,4,2.8L394,633.38c-1.35,1.88-1,3.23.37,4.18s2.7.83,4.05-1.12,1.52-3.86.21-8.1c-1.6-5.15-1.3-8.15.86-11.25C401.87,613.46,405,612.16,408.47,613.57Z"/><path class="cls-7" d="M391.39,600.09a46.52,46.52,0,0,1-22.76,40A34.51,34.51,0,0,1,389,595.74c.72-.27,1.44-.51,2.18-.73A45.37,45.37,0,0,1,391.39,600.09Z"/></g><path class="cls-2" d="M429.43,647.73a34.54,34.54,0,1,1-8.82-48.05A34.54,34.54,0,0,1,429.43,647.73Z"/><circle class="cls-6" cx="351.7" cy="599.02" r="34.55"/><circle class="cls-5" cx="351.7" cy="599.02" r="29.06"/><circle class="cls-2" cx="351.7" cy="599.02" r="29.06"/><path class="cls-6" d="M349.58,582.84v-2.43h4.24v2.43c3.75.77,5.62,3.58,5.62,8.06v1h-4.91v-1.37c0-2.36-.93-3.26-2.58-3.26s-2.59.9-2.59,3.26.94,4,4.42,6.79c4.24,3.39,5.63,6,5.63,9.75,0,4.48-1.88,7.36-5.63,8.11v2.4h-4.23v-2.4c-3.75-.75-5.63-3.63-5.63-8.11V604.8h4.9v2.58c0,2.36,1,3.21,2.68,3.21s2.7-.85,2.7-3.21-.94-4-4.45-6.78c-4.23-3.36-5.62-6-5.62-9.77C344.11,586.48,346,583.65,349.58,582.84Z"/><circle class="cls-6" cx="516.52" cy="609.4" r="34.55"/><path class="cls-5" d="M537.8,589.65a29.06,29.06,0,1,1-41.07-1.51h0a29,29,0,0,1,41,1.47Z"/><path class="cls-2" d="M537.8,589.65a29.06,29.06,0,1,1-41.07-1.51h0a29,29,0,0,1,41,1.47Z"/><path class="cls-6" d="M504,599l-1.67-1.87,3.1-2.89,1.67,1.87c3.22-1.87,6.52-1.16,9.56,2.12l.71.75-3.58,3.34-.94-1c-1.61-1.73-2.91-1.75-4.1-.62s-1.3,2.42.3,4.14,3.43,2.29,7.87,2c5.42-.41,8.25.49,10.82,3.26,3,3.28,3.58,6.69,1.4,9.75l1.63,1.76-3.11,2.89L526,622.74c-3.24,2-6.58,1.16-9.62-2.12L514.82,619l3.6-3.34,1.76,1.88c1.61,1.72,2.94,1.65,4.16.52s1.39-2.46-.23-4.18-3.44-2.32-7.85-1.87c-5.4.43-8.27-.51-10.82-3.29C502.42,605.4,501.84,602.08,504,599Z"/></g><path class="cls-7" d="M502.29,459.25s-.15,71.68,0,75.86,5.63,29.36,5.63,29.36l-17.42,32.1,15,12.07L534.65,580s24.82,15.32,29.36,37.25,31.55,37.91,59.57,98.65,60-135.9,60-135.9L597.1,471.11Z"/><polygon class="cls-8" points="766.66 74.12 740.17 332.6 723.88 491.6 496.22 468.28 451.92 463.75 423.56 460.84 448.7 215.45 466.34 43.35 766.66 74.12"/><polygon class="cls-1" points="766.66 74.12 740.17 332.6 723.88 491.6 496.22 468.28 451.92 463.75 423.56 460.84 448.7 215.45 466.34 43.35 766.66 74.12"/><path class="cls-9" d="M679.43,83.85,549.8,70.55a4.43,4.43,0,1,0-.9,8.82L678.53,92.66a4.43,4.43,0,1,0,.9-8.81Z"/><path class="cls-9" d="M645.16,98.56l-64.81-6.65a2.21,2.21,0,1,0-.45,4.4h0L644.71,103a2.24,2.24,0,0,0,2.44-2,2.18,2.18,0,0,0-1.95-2.41Z"/><path class="cls-9" d="M716.49,289.33,506.08,267.77a2.21,2.21,0,0,0-2.44,1.87,2.24,2.24,0,0,0,2,2.44L716,293.81a2.21,2.21,0,0,0,2.42-2h0a2.19,2.19,0,0,0-1.86-2.48Z"/><path class="cls-9" d="M714.94,305.17,470.2,280.1a2.21,2.21,0,0,0-2.42,1.95v0a2.22,2.22,0,0,0,1.88,2.44l244.66,25.06a2.21,2.21,0,1,0,.45-4.4Z"/><path class="cls-9" d="M644.73,314,468.51,295.94a2.22,2.22,0,0,0-.47,4.41h0l176.22,18a2.21,2.21,0,0,0,2.42-2h0a2.19,2.19,0,0,0-1.94-2.42Z"/><rect class="cls-10" x="550.45" y="236.62" width="70.22" height="247.94" transform="matrix(0.1, -0.99, 0.99, 0.1, 167.16, 906.35)"/><circle class="cls-9" cx="543.77" cy="190.01" r="54.91"/><path class="cls-8" d="M545.35,189.88l45.67,23a52.5,52.5,0,0,0-6-55.23Z"/><path class="cls-11" d="M545.65,187.4l38.25-31.12a52.38,52.38,0,0,0-21.35-15.22l-7,18.93Z"/><path class="cls-12" d="M550,138l-4.62,45.21,15.56-42.76A52,52,0,0,0,550,138Z"/><path class="cls-13" d="M543,189.46l5.31-51.66a52.5,52.5,0,0,0-52.59,73.11Z"/><path class="cls-14" d="M538.44,242.22a52.48,52.48,0,0,0,51.79-27.84L543.76,191l-47.37,21.52A52.5,52.5,0,0,0,538.44,242.22Z"/><rect class="cls-15" x="624" y="154.04" width="8.64" height="8.64" rx="1.18" transform="translate(406.75 767.26) rotate(-84.15)"/><path class="cls-9" d="M718.93,166.48l-80.72-8.27a1,1,0,0,1-.49-1.31,1,1,0,0,1,.69-.56l80.73,8.12a1,1,0,0,1-.21,2Z"/><path class="cls-9" d="M710.59,170l-72.81-7.5a1,1,0,0,1-.89-1.09,1,1,0,0,1,1.06-.88h0l72.81,7.5a1,1,0,0,1-.2,2Z"/><rect class="cls-16" x="622.03" y="173.29" width="8.64" height="8.64" rx="1.18" transform="matrix(0.1, -0.99, 0.99, 0.1, 385.82, 782.59)"/><path class="cls-9" d="M717,185.73l-80.76-8.26a1,1,0,0,1,.21-2l80.7,8.27a1,1,0,0,1,.9,1.08A1,1,0,0,1,717,185.73Z"/><path class="cls-9" d="M708.6,189.24l-72.79-7.5a1,1,0,0,1,.18-2l72.82,7.5a1,1,0,1,1-.21,2Z"/><rect class="cls-17" x="620.06" y="192.56" width="8.64" height="8.64" rx="1.18" transform="translate(364.88 797.94) rotate(-84.15)"/><path class="cls-9" d="M714.94,205l-80.61-8.29a1,1,0,1,1,0-2l.17,0L715.24,203a1,1,0,0,1,.89,1.09,1,1,0,0,1-1.1.9Z"/><path class="cls-9" d="M706.63,208.49,633.82,201a1,1,0,0,1-.88-1.08A1,1,0,0,1,634,199l72.81,7.49a1,1,0,1,1-.21,2Z"/><rect class="cls-18" x="618.08" y="211.83" width="8.64" height="8.64" rx="1.18" transform="translate(343.94 813.28) rotate(-84.15)"/><path class="cls-9" d="M713.06,224.26,632.36,216a1,1,0,0,1-.9-1.08h0a1,1,0,0,1,1.09-.9l80.72,8.29a1,1,0,1,1,0,2Z"/><path class="cls-9" d="M704.66,227.74l-72.81-7.49a1,1,0,0,1,.21-2l72.81,7.5a1,1,0,0,1,1.18.76,1,1,0,0,1-.76,1.18,1.05,1.05,0,0,1-.63-.07Z"/><rect class="cls-19" x="616.11" y="231.08" width="8.64" height="8.64" rx="1.18" transform="matrix(0.1, -0.99, 0.99, 0.1, 323.02, 828.61)"/><path class="cls-9" d="M711,243.51l-80.73-8.27a1,1,0,0,1-.48-1.31,1,1,0,0,1,.69-.56l80.67,8.17a1,1,0,0,1,.41,2,1,1,0,0,1-.62-.07Z"/><path class="cls-9" d="M702.7,246.94l-72.82-7.5a1,1,0,1,1,0-2h.18l72.79,7.5a1,1,0,0,1,0,2Z"/><rect class="cls-16" x="665.53" y="369.35" width="26.49" height="4.63" transform="translate(239.86 1009.02) rotate(-84.15)"/><rect class="cls-20" x="672.24" y="372.34" width="12.47" height="4.63" transform="translate(236.62 1011.41) rotate(-84.15)"/><rect class="cls-16" x="676.6" y="363.75" width="26.49" height="4.63" transform="translate(255.37 1015.01) rotate(-84.15)"/><rect class="cls-21" x="683.59" y="363.74" width="12.47" height="4.63" transform="translate(255.37 1014.98) rotate(-84.15)"/><rect class="cls-16" x="686.45" y="369.85" width="26.49" height="4.63" transform="translate(258.15 1030.27) rotate(-84.15)"/><rect class="cls-20" x="693.76" y="366.93" width="12.47" height="4.63" transform="translate(261.32 1027.96) rotate(-84.15)"/><rect class="cls-16" x="655.69" y="363.09" width="26.49" height="4.63" transform="translate(237.26 993.61) rotate(-84.15)"/><rect class="cls-20" x="662.41" y="366.06" width="12.47" height="4.63" transform="translate(234.04 995.98) rotate(-84.15)"/><rect class="cls-16" x="644.53" y="369.79" width="26.49" height="4.63" transform="translate(220.56 988.52) rotate(-84.15)"/><rect class="cls-20" x="651.12" y="373.81" width="12.47" height="4.63" transform="translate(216.19 991.71) rotate(-84.15)"/><rect class="cls-16" x="634.84" y="361.92" width="26.49" height="4.63" transform="translate(219.69 971.83) rotate(-84.15)"/><rect class="cls-20" x="641.24" y="367.94" width="12.47" height="4.63" transform="translate(213.15 976.62) rotate(-84.15)"/><rect class="cls-16" x="623.05" y="374.65" width="26.49" height="4.63" transform="translate(196.44 971.52) rotate(-84.15)"/><rect class="cls-20" x="629.43" y="380.64" width="12.47" height="4.63" transform="translate(189.91 976.28) rotate(-84.15)"/><rect class="cls-16" x="614.38" y="356.97" width="26.49" height="4.63" transform="translate(206.24 947.02) rotate(-84.15)"/><rect class="cls-20" x="621.1" y="359.98" width="12.47" height="4.63" transform="translate(202.98 949.43) rotate(-84.15)"/><rect class="cls-16" x="604.15" y="354.4" width="26.49" height="4.63" transform="translate(199.61 934.53) rotate(-84.15)"/><rect class="cls-20" x="611.48" y="351.41" width="12.47" height="4.63" transform="translate(202.87 932.17) rotate(-84.15)"/><rect class="cls-16" x="592.11" y="369.86" width="26.49" height="4.63" transform="translate(173.41 936.44) rotate(-84.15)"/><rect class="cls-20" x="599.52" y="365.9" width="12.47" height="4.63" transform="translate(177.71 933.29) rotate(-84.15)"/><rect class="cls-16" x="582.92" y="357.2" width="26.49" height="4.63" transform="translate(177.75 915.93) rotate(-84.15)"/><rect class="cls-20" x="589.72" y="359.22" width="12.47" height="4.63" transform="translate(175.56 917.53) rotate(-84.15)"/><rect class="cls-16" x="571.81" y="363.05" width="26.49" height="4.63" transform="translate(161.96 910.13) rotate(-84.15)"/><rect class="cls-20" x="578.54" y="366.02" width="12.47" height="4.63" transform="translate(158.76 912.52) rotate(-84.15)"/><rect class="cls-16" x="560.23" y="373.81" width="26.49" height="4.63" transform="translate(140.86 908.27) rotate(-84.15)"/><rect class="cls-20" x="566.56" y="380.76" width="12.47" height="4.63" transform="translate(133.33 913.84) rotate(-84.15)"/><rect class="cls-16" x="551.59" y="356.04" width="26.49" height="4.63" transform="translate(150.77 883.72) rotate(-84.15)"/><rect class="cls-20" x="558.18" y="360.02" width="12.47" height="4.63" transform="translate(146.44 886.88) rotate(-84.15)"/><rect class="cls-16" x="542.38" y="343.41" width="26.49" height="4.63" transform="translate(155.06 863.22) rotate(-84.15)"/><rect class="cls-20" x="549.01" y="347.39" width="12.47" height="4.63" transform="translate(150.76 866.41) rotate(-84.15)"/><rect class="cls-16" x="530.58" y="356.28" width="26.49" height="4.63" transform="translate(131.66 863.04) rotate(-84.15)"/><rect class="cls-20" x="537.9" y="353.35" width="12.47" height="4.63" transform="translate(134.85 860.71) rotate(-84.15)"/><rect class="cls-16" x="518.7" y="370.11" width="26.49" height="4.63" transform="translate(107.23 863.64) rotate(-84.15)"/><rect class="cls-20" x="526.2" y="365.16" width="12.47" height="4.63" transform="translate(112.6 859.68) rotate(-84.15)"/><rect class="cls-16" x="509.84" y="354.15" width="26.49" height="4.63" transform="translate(115.16 840.5) rotate(-84.15)"/><rect class="cls-20" x="516.54" y="357.18" width="12.47" height="4.63" transform="translate(111.87 842.91) rotate(-84.15)"/><rect class="cls-16" x="499.92" y="348.73" width="26.49" height="4.63" transform="translate(111.65 825.75) rotate(-84.15)"/><rect class="cls-20" x="507.34" y="344.76" width="12.47" height="4.63" transform="translate(115.95 822.6) rotate(-84.15)"/><rect class="cls-16" x="488.69" y="355.89" width="26.49" height="4.63" transform="translate(94.44 821.01) rotate(-84.15)"/><rect class="cls-20" x="495" y="362.84" width="12.47" height="4.63" transform="translate(86.89 826.56) rotate(-84.15)"/><rect class="cls-16" x="479.16" y="346.57" width="26.49" height="4.63" transform="translate(95.15 803.17) rotate(-84.15)"/><rect class="cls-20" x="485.67" y="351.58" width="12.47" height="4.63" transform="translate(89.71 807.16) rotate(-84.15)"/><rect class="cls-16" x="468.43" y="349.07" width="26.49" height="4.63" transform="translate(83.03 794.73) rotate(-84.15)"/><rect class="cls-20" x="474.83" y="355.05" width="12.47" height="4.63" transform="translate(76.53 799.5) rotate(-84.15)"/><rect class="cls-16" x="458.4" y="344.61" width="26.49" height="4.63" transform="translate(78.45 780.76) rotate(-84.15)"/><rect class="cls-20" x="466.03" y="338.71" width="12.47" height="4.63" transform="translate(84.88 776.07) rotate(-84.15)"/><path class="cls-9" d="M703.41,416.94,493,395.36a2.23,2.23,0,0,0-2.43,2,2.19,2.19,0,0,0,1.94,2.41h0L703,421.28a2.18,2.18,0,1,0,.45-4.34Z"/><path class="cls-9" d="M701.81,432.78,457.13,407.69a2.22,2.22,0,0,0-2.43,2,2.19,2.19,0,0,0,1.94,2.42h0l244.67,25.08a2.22,2.22,0,0,0,2.41-2,2.19,2.19,0,0,0-1.94-2.41Z"/><path class="cls-9" d="M597.4,438.16,455.5,423.61a2.22,2.22,0,0,0-2.43,2,2.2,2.2,0,0,0,2,2.41h0L597,442.56a2.21,2.21,0,0,0,.45-4.4Z"/><path class="cls-7" d="M726.62,296.6c-7.26-.58-9.77,11-9.77,11s-11.47-15-9.66-50.39c0,0-5.62-15.68-20.62-6.21S656,293.81,659.71,330.18l-29.13-96.9C620.49,235.41,600,249,605.4,314.41l-31.87-33.74s-8.62-2.78-13.5,4.85-2.55,62.28,1.48,82.71-6.24,61.49-6.24,61.49-11-46.49-30.86-58.26l-75.68-156L423.56,460.84l28.36,2.91,45.56-22.18c-.27,10.25-.51,19.68-1.26,26.71L723.88,491.6l16.29-159C734.64,312.78,729.35,296.81,726.62,296.6Z"/><polygon class="cls-2" points="766.66 74.12 740.17 332.6 723.88 491.6 496.22 468.28 451.92 463.75 423.56 460.84 448.7 215.45 466.34 43.35 766.66 74.12"/><path class="cls-8" d="M762.91,739.55l-133.1,22.64s-23.17-123.07-37-142.47-11.25-27.37-18-40.44c-4-7.89-24.37-22.61-40.28-37.14h0c-1.39-1.25-2.74-2.51-4-3.74-.56-.51-1.09-1-1.61-1.56-2.12-2.1-4.09-4.14-5.83-6.15-.64-.71-1.27-1.42-1.88-2.14a30.38,30.38,0,0,1-6.45-11.41,3,3,0,0,1-.11-.58,4.08,4.08,0,0,1-.11-.7c-.36-2.9-.73-6.22-1.11-9.82a19.35,19.35,0,0,0-.24-2.21l-.12-.9c-.31-3-.67-6.19-1.08-9.47s-.87-7-1.39-10.57c-.17-1.24-.34-2.48-.54-3.75h0c-.21-1.39-.44-2.78-.66-4.18l-.66-3.62a3.7,3.7,0,0,0-.11-.56l-.79-4.17a1.79,1.79,0,0,1-.09-.46c-.26-1.22-.51-2.42-.79-3.64-.58-2.72-1.23-5.38-1.87-8a98.54,98.54,0,0,0-5-14.25c-9.6-21.42,2.89-13.68-4.63-68.81,0,0,5.53-12.79,21.3-2.57a41.64,41.64,0,0,1,3.52,2.57h0a44,44,0,0,1,8.38,9,51.71,51.71,0,0,1,7.24,15A65,65,0,0,1,538,422.24s11.85,40.61,18.09,49.85,32.06-43.85,30.39-50a84.64,84.64,0,0,1-1.33-8.39c-.11-.92-.22-1.88-.35-2.93s-.25-2.1-.36-3.21a11.93,11.93,0,0,0-.21-1.63v-.65c-.22-2.12-.48-4.37-.73-6.69a15.69,15.69,0,0,0-.2-1.88c-.12-1.11-.23-2.25-.34-3.37a5.42,5.42,0,0,1,0-.57,18.11,18.11,0,0,0-.21-1.87c-.15-1.31-.28-2.64-.41-4s-.23-2.28-.34-3.43c-.22-2.15-.43-4.31-.64-6.39-.15-1.55-.3-3.09-.43-4.59a3.58,3.58,0,0,0-.09-1c-.79-8.25-1.41-15-1.63-17.93,0,0-18.75-27.78-20.62-40.86s-1.76-26.87,6.09-32.47c18.6-13.24,13.12,8.1,21.48,16.87s21.09,23.3,28.33,27.82c6.67,4.24,12.64,20.62,13.48,23.09-1-3.59-10.5-39-10.71-46.11-.24-7.5-6-47.17,3.75-61.4s22.71-3.18,23.91-.37,1.55,41.24,5,51.93,17.79,55.24,17.79,55.24.6-43.34,3.75-62.74,11.66-34.57,19.91-35.43,15.88,8.23,15.88,8.23-3.26,30.93-2.33,38.07-1.34,32.94,2.57,46.87c0,0-.45-37,5.29-41.68s10.67-7,13.89-3.75,3.92,25.07,7.2,38.23,2.87,31,5,51.57,10.65,49,9,65.31-6.88,56.69-11.06,80.41S722,588.62,722,588.62s4.85,17.34,3.91,32.8S762.91,739.55,762.91,739.55Z"/><path class="cls-22" d="M712.72,300.41h0c-.2.13-.71.54-1.44,1.16a23.13,23.13,0,0,1,1.46-2.44Z"/><path class="cls-7" d="M535.93,395.36s-33.21,16.87-35.83,45c-9.6-21.43,2.89-13.68-4.63-68.82,0,0,5.53-12.78,21.3-2.57,1.21.8,2.39,1.66,3.52,2.57h0a44.24,44.24,0,0,1,8.38,9Z"/><path class="cls-2" d="M629.81,762.19s-23.17-123.07-37-142.47-11.25-27.37-18-40.44-58-44.86-60.25-63.44-4.87-54.12-14.47-75.56,2.89-13.69-4.65-68.82c0,0,5.63-12.79,21.32-2.57s24.05,30.65,21.29,53.28c0,0,11.85,40.56,18.11,49.82s32-43.84,30.35-50.05-6.62-59-7.38-68.61c0,0-18.75-27.8-20.63-40.89s-1.76-26.86,6.1-32.45c18.59-13.23,13.12,8.1,21.48,16.87s21.09,23.29,28.31,27.82,13.51,23.49,13.51,23.49-10.59-38.88-10.79-46.39-6-47.17,3.75-61.38,22.72-3.21,23.92-.39,1.55,41.24,5,51.92l17.76,55.25s.61-43.34,3.86-62.75,11.66-34.56,19.91-35.43,15.87,8.23,15.87,8.23-3.26,30.94-2.34,38.08-1.33,32.92,2.59,46.86c0,0-.45-36.95,5.28-41.67s10.67-7,13.9-3.75,3.91,25.07,7.19,38.23,2.87,31,5,51.57,10.65,49,9,65.29-6.88,56.71-11.08,80.44-14.81,56.24-14.81,56.24,4.84,17.34,3.9,32.81,37.08,118.42,37.08,118.42"/><path class="cls-2" d="M667.55,347.14c3.88,9.11,13.46,47.58,16.87,52.9a18.22,18.22,0,0,0,7.31,6.94"/><path class="cls-2" d="M627.91,348.17c5.2,15.32,8.14,39.73,11.1,47.08s5.63,8.86,5.63,8.86"/><path class="cls-2" d="M636.33,384.88a23.18,23.18,0,0,1,7.2,9.09"/><path class="cls-2" d="M556.17,472s2.83,20.31,15.56,18.75"/><path class="cls-2" d="M586.52,422s3.3,24.15-2.1,34.38"/><path class="cls-2" d="M688.2,422.18s8.55,5.24,2.83,20.63-15.67,77.29-15.67,77.29"/><path class="cls-2" d="M725.42,438.38c3.58,13.87,3.9,14.23-1.88,31.27s-15.2,58.79-15.2,58.79"/><path class="cls-2" d="M721.91,588.32s-5.62-11.25-1-20.62"/><path class="cls-2" d="M592.82,619.74S607,639.59,613.11,661.8"/><polygon class="cls-16" points="696.83 271.74 700.65 267.98 702.38 267.47 702.26 269.34 698.76 273.82 696.83 271.74"/><path class="cls-23" d="M699.94,273.84l-6.22,14.1-167.22,223L507.88,499l25.21-31.72L683.29,278.9l13.26-8.41A4.75,4.75,0,0,1,699.94,273.84Z"/><g class="cls-24"><path class="cls-5" d="M699.94,273.84l-6.22,14.1-167.22,223L507.88,499l25.21-31.72c11.63-1.2,13.58,5.62,13.58,5.62l144.06-188c-1.42-5.06-7.49-6-7.49-6l13.25-8.42A4.74,4.74,0,0,1,699.94,273.84Z"/></g><path class="cls-2" d="M699.94,273.84l-6.22,14.1-167.22,223L507.88,499l25.21-31.72L683.29,278.9l13.26-8.41A4.75,4.75,0,0,1,699.94,273.84Z"/><path class="cls-23" d="M581,444.89s-18.75,37-36.63,63.25l-12.82,3.32s-29.44,29.24-47.4,43.84a40.17,40.17,0,0,1-8.77-7.36s25.5-49,53.71-80a35.81,35.81,0,0,1,9.24,4.91,46,46,0,0,1,9.68,9.27l31.43-39.56Z"/><g class="cls-25"><path class="cls-5" d="M581,444.89s-18.75,37-36.63,63.25l-12.82,3.32s-29.44,29.24-47.4,43.84l.49-7.94c19.48-29.75,44.23-62.21,53.69-74.47a46,46,0,0,1,9.68,9.27l-17.48,23.32,10-1.88,38.9-61.08Z"/></g><path class="cls-2" d="M581,444.89s-18.75,37-36.63,63.25l-12.82,3.32s-29.44,29.24-47.4,43.84a40.17,40.17,0,0,1-8.77-7.36s25.5-49,53.71-80a35.81,35.81,0,0,1,9.24,4.91,46,46,0,0,1,9.68,9.27l31.43-39.56Z"/><path class="cls-8" d="M644.6,404.08l-52.23,50.61-8.34,8.1c5.72-14.7,2.94-37.49,2.59-40.17h0V422a82.43,82.43,0,0,1-1.33-8.4c-.12-.92-.23-1.87-.36-2.92s-.24-2.1-.36-3.21a13.42,13.42,0,0,0-.2-1.63v-.66c-.23-2.12-.49-4.37-.73-6.69a15.49,15.49,0,0,0-.21-1.87c-.11-1.11-.23-2.25-.34-3.38a5.23,5.23,0,0,1,0-.56c0-.64-.15-1.29-.2-1.88-.15-1.31-.29-2.64-.42-4s-.22-2.29-.33-3.43c-.23-2.16-.44-4.31-.64-6.39-.15-1.56-.3-3.1-.43-4.6a3.3,3.3,0,0,0-.1-1c-.78-8.25-1.4-15-1.63-17.92,0,0-18.74-27.78-20.62-40.87s-1.76-26.86,6.09-32.47c18.6-13.23,13.13,8.1,21.49,16.87s21.09,23.31,28.32,27.82,13.29,23.34,13.29,23.34c5.2,15.3,8.14,39.71,11.1,47.06S644.6,404.08,644.6,404.08Z"/><path class="cls-2" d="M636.33,384.88a23.18,23.18,0,0,1,7.2,9.09"/><path class="cls-2" d="M644.62,404.08s-2.65-1.52-5.63-8.87-5.9-31.76-11.09-47.07c0,0-6.36-18.75-13.6-23.36s-20-19-28.3-27.82-2.89-30.18-21.49-16.87c-7.85,5.62-8,19.38-6.09,32.45S579,353.42,579,353.42c.77,9.64,5.72,62.43,7.39,68.61"/><g id="freepik--left-hand--inject-166"><path class="cls-7" d="M265.9,451.49s11.87,55.11-13.84,95.19-45.49,50.79-54.36,62.75S154,688.26,154,688.26L113.3,567.77l40.68-149Z"/><polygon class="cls-8" points="505.67 409.36 253.41 515.52 227.41 526.47 178.41 410.04 64.62 139.65 342.87 22.54 505.67 409.36"/><g class="cls-26"><path class="cls-9" d="M271,72.88,150.87,123.49a4.44,4.44,0,0,0,3.43,8.18h0L274.39,81a4.42,4.42,0,1,0-3.29-8.21l-.14.06Z"/><path class="cls-9" d="M248,102.29l-60,25.27a2.22,2.22,0,1,0,1.72,4.09l60-25.29a2.21,2.21,0,1,0-1.52-4.16Z"/><path class="cls-27" d="M346.83,256.31s2.53,19.89-4.88,23c-6.76,2.85-15.67-7.82-23.45-4.56s-1.65,31.5-9.15,34.65-16.53-8.44-23-5.63-2.55,17.25-9.22,20.06c-5.51,2.31-13.39-9.22-19.68-11.75a4.75,4.75,0,0,0-3.75-.19c-6.6,2.77-3.32,33.09-9,35.47a10.84,10.84,0,0,1-5.06.84,35.64,35.64,0,0,0-6.43-.62,8.24,8.24,0,0,0-2.4.62c-4.86,2-4.2,18-8.64,19.87s-8.83-.45-13.58,1.54-4.67,10.29-11.75,13.27l3,7.11,172.67-72.67"/><polyline class="cls-2" points="164.84 306.78 199.8 389.85 380.59 313.77"/><path class="cls-16" d="M360.72,289.27s-.86-1-2.14-2.3c-2.23-2.16-5.77-4.9-8.47-3.75s-2.87,5.47-2.81,10.16c0,5.62.56,11.81-2.31,13-2.44,1-4.61-.51-6.86-2.2-2.57-1.87-5.19-4-8.36-2.68-5.33,2.25-3.75,9.19-5.63,15.13a11.46,11.46,0,0,1-7,7.5c-4.59,1.87-9.26,0-13.66-3-7.5-5.06-14.1-13.27-18.41-11.46-6.88,2.91.69,21.51-6.69,24.62-4.13,1.74-12.68-11.25-21-22.5-6.56-8.86-13-16.59-16.87-15-8.91,3.75,5.77,48.24-.7,51l-.2.09a6.9,6.9,0,0,1-6.43-.62c-2.33-1.31-4.24-3.2-6.81-2.12-4.78,2-2,19.46-7.23,21.68s-8.42-1-14.35,1.5c-5,2.11-8,14.24-8,14.24l3,7.11L372.47,317"/><path class="cls-9" d="M324.16,348.57l-60,25.27a2.22,2.22,0,1,0,1.73,4.08l60-25.27a2.22,2.22,0,1,0-1.73-4.08Z"/><rect class="cls-28" x="366.18" y="249.96" width="8.64" height="8.64" rx="1.18" transform="translate(-69.62 163.6) rotate(-22.82)"/><path class="cls-9" d="M403.12,239.26l-24,10.1a1,1,0,0,1-1.31-.54,1,1,0,0,1,.52-1.3l24-10.1a1,1,0,0,1,.77,1.83Z"/><path class="cls-9" d="M397.48,246.32l-16.68,7a1,1,0,0,1-.78-1.83h0l16.68-7a1,1,0,0,1,1.3.52A1,1,0,0,1,397.48,246.32Z"/><rect class="cls-16" x="373.7" y="267.81" width="8.64" height="8.64" rx="1.18" transform="translate(-75.95 167.91) rotate(-22.82)"/><path class="cls-9" d="M410.62,257.1l-24,10.09a1,1,0,0,1-.77-1.88l24-10.1a1,1,0,1,1,.77,1.87Z"/><path class="cls-9" d="M405,264.15l-16.67,7a1,1,0,1,1-.78-1.87h0l16.68-7a1,1,0,0,1,1.32.56,1,1,0,0,1-.55,1.32Z"/><path class="cls-9" d="M442.19,330.66l-195,82a2.22,2.22,0,0,0,1.72,4.09l195-82.06a2.21,2.21,0,1,0-1.52-4.15l-.21.08Z"/><path class="cls-9" d="M448.38,345.34l-226.7,95.4a2.21,2.21,0,0,0,1.51,4.16l.21-.09,226.68-95.4a2.21,2.21,0,1,0-1.39-4.2l-.31.13Z"/><path class="cls-9" d="M454.55,360l-226.69,95.4a2.21,2.21,0,0,0,1.52,4.16l.21-.09,226.64-95.4a2.21,2.21,0,0,0-1.52-4.16l-.2.09Z"/><path class="cls-9" d="M460.73,374.7,234.05,470a2.21,2.21,0,1,0,1.39,4.19,1.2,1.2,0,0,0,.31-.13l226.69-95.4a2.2,2.2,0,0,0,1.4-2.79,2.22,2.22,0,0,0-2.8-1.41l-.31.13Z"/><path class="cls-9" d="M371.69,429.44,240.22,484.78a2.21,2.21,0,0,0,1.51,4.16l.21-.09,131.47-55.32a2.22,2.22,0,0,0-1.72-4.09Z"/><path class="cls-27" d="M299.29,143.27s2.53,19.91-4.88,23c-6.77,2.85-15.69-7.81-23.45-4.55s-1.65,31.47-9.15,34.64-16.55-8.43-23-5.72-2.55,17.25-9.22,20c-5.51,2.33-13.39-9.2-19.69-11.73a4.79,4.79,0,0,0-3.75-.19c-6.59,2.78-3.31,33.07-9,35.47a10.46,10.46,0,0,1-5.06.82,38.65,38.65,0,0,0-6.43-.6,8.57,8.57,0,0,0-2.4.62c-4.86,2-4.2,18-8.65,19.86s-8.83-.44-13.57,1.55-4.67,10.29-11.75,13.27l3,7.11L325,204.22"/><path class="cls-29" d="M310.44,169.8s1.58,9.63-2.23,11.25c-3.17,1.33-5.12-.53-8.45-.64a11,11,0,0,0-4.75.92c-3.05,1.27-3.75,5.4-4.33,9.82-.67,5.46-1,11.38-5,13.12-2.8,1.19-5.81.49-8.93-.6-5-1.72-10.18-4.46-15.22-2.34-2.44,1-4.14,3.75-5.47,7-3.13,7.74-4.11,19-7.5,20.37-4.82,2.05-13.65-6.24-17.92-4.44s-2.53,9.22-6,10.69-5.46-2.85-11.57-.29-3.13,11.61-11.75,15.25-12.41-3.06-20.74.45-6.82,9.84-12.71,12.31-8.36-1.87-12.56,0-5.21,8.42-5.27,8.83l2.31,5.48L325,204.22"/><polyline class="cls-2" points="117.29 193.81 152.26 276.88 333.03 200.79"/><path class="cls-9" d="M276.08,234.31l-60,25.27a2.21,2.21,0,1,0,1.7,4.08l60-25.27a2.21,2.21,0,1,0-1.72-4.08Z"/><rect class="cls-28" x="315.6" y="129.78" width="8.64" height="8.64" rx="1.18" transform="translate(-26.97 134.57) rotate(-22.82)"/><path class="cls-9" d="M352.55,119.07l-24,10.1a1,1,0,0,1-1.31-.54,1,1,0,0,1,.54-1.29l24-10.11a1,1,0,0,1,1.29.55,1,1,0,0,1-.5,1.28Z"/><path class="cls-9" d="M346.9,126.14l-16.68,7a1,1,0,0,1-.77-1.88l16.68-7a1,1,0,0,1,1.3.53,1,1,0,0,1-.48,1.35Z"/><rect class="cls-30" x="323.13" y="147.63" width="8.64" height="8.64" rx="1.18" transform="translate(-33.3 138.89) rotate(-22.82)"/><path class="cls-9" d="M360,136.92l-24,10.1a1,1,0,0,1-1.29-.54,1,1,0,0,1,.5-1.29h0l24-10.1A1,1,0,1,1,360,137Z"/><path class="cls-9" d="M354.4,144l-16.66,7a1,1,0,0,1-1.34-.55,1,1,0,0,1,.55-1.33l16.68-7a1,1,0,0,1,1.32.55A1,1,0,0,1,354.4,144Z"/><path class="cls-7" d="M253.41,515.52l-26,11L178.41,410A28.85,28.85,0,0,0,186.6,394c2.92-15.6.86-65.74,39.91-70.92s6.11,82.64,7.91,99.36C236.07,437.67,258.33,482,253.41,515.52Z"/></g><polygon class="cls-2" points="505.67 409.36 253.41 515.52 227.41 526.47 178.41 410.04 64.62 139.65 342.87 22.54 505.67 409.36"/><path class="cls-8" d="M237.7,428.78c4.39-15,21.49-63,19.24-84.26a21.91,21.91,0,0,0-1.2-5.18c-6-15.86-30.52-14.32-40-1.18-10.33,14.46-18.75,40.48-19.5,56.24a48.94,48.94,0,0,1-7.5,22.24h0a55.76,55.76,0,0,1-5,7L127.92,291.05a75.87,75.87,0,0,0-14.64,16.33A27.06,27.06,0,0,0,109,318.76c-1.14,13.08-16,66.91-22,89.4-.13.49-.26,1-.37,1.41-5.92,21.78,9.71,102.69,5.23,126.2s-7.24,23-7.89,39.67c-.47,12.18-17.91,49.23-37.5,87.26-11.24,21.81-23.09,43.89-32.9,61.87l143.08-5.94c2.47-17.38,5-35.74,7.35-53.51a197.35,197.35,0,0,1,4.27-22h0c3.15-12.75,7-24.28,9.37-31a286.92,286.92,0,0,0,7.5-30.16c16.65-17.62,38.47-45.31,44.79-64.06v-.13a23.23,23.23,0,0,0,1.42-12.15,55.74,55.74,0,0,1-1.14-10.23h0C229.4,475.05,234,441.25,237.7,428.78Z"/><path class="cls-2" d="M35.26,685.11c17.92-32.79,35.37-66.52,47.92-102.89,1.5-5.23-.51-12.05,1-17.28,17-47.22-2.29-96.39.88-144.78,2.68-19.07,8.77-38.24,15-57.5,2.87-13.89,3.93-29.45,8.53-43.43,4.72-10.54,9.37-22.78,19.44-28.12,19.12,43.81,38.17,87.83,55.94,132.76,8-4.65,9.37-15,10.68-23.71,4.31-20.87,8.68-40,16.57-57.55,8-14.12,28.46-20.14,41-8.61A19.6,19.6,0,0,1,258,347.55c-2.44,24.23-10,48.75-17.72,71.39-3,10.46-6.09,19.22-7.38,29.6.13,3.45.2,5.16.35,8.61-4.44,17.41-.35,32.75-1.36,50C228,538.36,203,560.07,185,583.22c-4.46,17.41-8.91,34.83-15,52.32-7.5,26.25-9.9,52.12-12.46,77.33"/><path class="cls-2" d="M183.88,423.82a116.68,116.68,0,0,0-8.25,20.47c-2.34,9.18-14.21,7.87-20.34,13.57"/><path class="cls-2" d="M139.12,407.64s16.14,5.62,25.55,13S181,429.8,181,429.8"/><path class="cls-2" d="M128.82,367.61s13.13,3.66,22.69-.93A84.52,84.52,0,0,1,154,352.82"/><path class="cls-2" d="M154.62,368.57s.13,1.87,6.77,1.87"/><path class="cls-2" d="M185,582a88.89,88.89,0,0,0-20.47,32.4"/><path class="cls-2" d="M85.72,413.64c-.59,11.24,12.6,51.14,16.6,71s5.51,33.86,5.51,33.86"/></g><path class="cls-31" d="M226.07,329.82c-10.81,14.6-12.42,31.53-7.29,38,5.82,7.34,19.46,9.51,27.74-1.14,5.72-7.36,8.85-23.4,9.27-27.58"/></g></g></svg>