<svg id="Layer_1" data-name="Layer 1" xmlns="http://www.w3.org/2000/svg" viewBox="0 0 615.41 403.19"><defs><style>.cls-1{fill:#e0e0e0;}.cls-2{fill:#fafafa;}.cls-3{fill:#ebebeb;}.cls-4{fill:#e8505b;}.cls-5{opacity:0.3;}.cls-6{fill:#fff;}.cls-7{fill:#263238;}.cls-8{fill:#ffbe9d;}.cls-9{fill:#455a64;}.cls-10{fill:#eb996e;}.cls-11{fill:none;stroke:#4e585d;stroke-miterlimit:10;}.cls-12{fill:#b78876;}.cls-13{fill:#aa6550;}</style></defs><rect class="cls-1" x="89.03" y="198.72" width="90.75" height="124.67" rx="2.41" transform="translate(-167.22 34.85) rotate(-25.7)"/><rect class="cls-2" x="93.38" y="201.54" width="80.62" height="116.04" transform="translate(-166.64 34.39) rotate(-25.7)"/><path class="cls-3" d="M124.06,201.76a9.86,9.86,0,0,0-10.33-1.08l-2.23-4.42a6.78,6.78,0,0,0-9.06-3.17h0a6.8,6.8,0,0,0-3.17,9.06l2.24,4.63-1.55.78a9.89,9.89,0,0,0-5.45,8.7l0,2.3,31.62-15.22Zm-16.88.72a3.65,3.65,0,1,1,1.71-4.88A3.65,3.65,0,0,1,107.18,202.48Z" transform="translate(-67.29 -49.28)"/><path class="cls-1" d="M106.26,226.62c.06.13-4.3,2.36-9.73,5s-9.9,4.63-10,4.5,4.3-2.36,9.74-5S106.2,226.49,106.26,226.62Z" transform="translate(-67.29 -49.28)"/><path class="cls-1" d="M97.66,234.85A27.07,27.07,0,0,1,93,237.37a25.86,25.86,0,0,1-4.86,2,27.4,27.4,0,0,1,4.64-2.52A26.69,26.69,0,0,1,97.66,234.85Z" transform="translate(-67.29 -49.28)"/><path class="cls-1" d="M148.39,221.83c.06.13-12.16,6.15-27.3,13.43s-27.46,13.09-27.52,13,12.15-6.14,27.3-13.43S148.32,221.71,148.39,221.83Z" transform="translate(-67.29 -49.28)"/><path class="cls-1" d="M150.9,227.06c.07.13-12.16,6.14-27.29,13.43s-27.46,13.09-27.53,13,12.16-6.14,27.3-13.43S150.84,226.93,150.9,227.06Z" transform="translate(-67.29 -49.28)"/><path class="cls-1" d="M153.42,232.29c.06.13-12.16,6.14-27.3,13.43s-27.46,13.09-27.52,13,12.16-6.14,27.3-13.43S153.36,232.16,153.42,232.29Z" transform="translate(-67.29 -49.28)"/><path class="cls-1" d="M155.94,237.52c.06.13-12.16,6.14-27.3,13.42s-27.46,13.09-27.52,13,12.15-6.14,27.29-13.42S155.87,237.39,155.94,237.52Z" transform="translate(-67.29 -49.28)"/><path class="cls-1" d="M158.45,242.74c.06.13-12.16,6.15-27.29,13.43s-27.47,13.09-27.53,13,12.16-6.14,27.3-13.43S158.39,242.62,158.45,242.74Z" transform="translate(-67.29 -49.28)"/><path class="cls-1" d="M161,248c.06.13-12.16,6.14-27.3,13.43s-27.46,13.09-27.52,13,12.16-6.14,27.3-13.43S160.91,247.84,161,248Z" transform="translate(-67.29 -49.28)"/><path class="cls-1" d="M135.83,265.88a5.85,5.85,0,0,1-1,.61l-2.9,1.49c-2.46,1.23-5.87,2.91-9.65,4.73s-7.23,3.45-9.73,4.6l-3,1.34a5,5,0,0,1-1.12.42,5.06,5.06,0,0,1,1-.61l2.9-1.49c2.46-1.23,5.87-2.91,9.66-4.73s7.22-3.44,9.72-4.59l3-1.34A5.08,5.08,0,0,1,135.83,265.88Z" transform="translate(-67.29 -49.28)"/><path class="cls-1" d="M144.48,207.64A23.5,23.5,0,0,1,140.2,210a22.79,22.79,0,0,1-4.5,1.88,22.77,22.77,0,0,1,4.27-2.35A23,23,0,0,1,144.48,207.64Z" transform="translate(-67.29 -49.28)"/><path class="cls-1" d="M128.85,283.27a59.43,59.43,0,0,1-7,3.66,60.44,60.44,0,0,1-7.23,3.19,60.44,60.44,0,0,1,7-3.66A60.44,60.44,0,0,1,128.85,283.27Z" transform="translate(-67.29 -49.28)"/><path class="cls-1" d="M131.61,287.79a64.82,64.82,0,0,1-7.12,3.71,60.37,60.37,0,0,1-7.36,3.25,63.42,63.42,0,0,1,7.13-3.72A62.27,62.27,0,0,1,131.61,287.79Z" transform="translate(-67.29 -49.28)"/><path class="cls-1" d="M169.8,262.68a14.15,14.15,0,0,1-3.33,1.89,14,14,0,0,1-3.55,1.42,28.21,28.21,0,0,1,6.88-3.31Z" transform="translate(-67.29 -49.28)"/><path class="cls-1" d="M172.09,266.84a14.09,14.09,0,0,1-3.32,1.89,14.41,14.41,0,0,1-3.56,1.42,14.15,14.15,0,0,1,3.33-1.89A14,14,0,0,1,172.09,266.84Z" transform="translate(-67.29 -49.28)"/><path class="cls-1" d="M127.36,296a13,13,0,0,1-3.2,1.83,13.66,13.66,0,0,1-3.44,1.37,13.36,13.36,0,0,1,3.21-1.84A13.25,13.25,0,0,1,127.36,296Z" transform="translate(-67.29 -49.28)"/><path class="cls-1" d="M174.73,271.71a7.54,7.54,0,0,1-2.38,1.43,7.93,7.93,0,0,1-2.6,1,7.31,7.31,0,0,1,2.38-1.44A7.51,7.51,0,0,1,174.73,271.71Z" transform="translate(-67.29 -49.28)"/><path class="cls-1" d="M125.7,310.63s.09-.08.27-.21l.85-.56,3.23-2.08,11.61-7.28.23-.15.1.25a6.59,6.59,0,0,1,.12,4.41,5.37,5.37,0,0,1-8.14,2.91,4.67,4.67,0,0,1-1.66-4.87,4.21,4.21,0,0,1,1-1.82,3.15,3.15,0,0,1,.37-.36,2.05,2.05,0,0,1,.46-.31.73.73,0,0,1,.7,0,1.09,1.09,0,0,1,.39.46,8.88,8.88,0,0,1,1,3.7,8.78,8.78,0,0,1-.57,3.65,5.58,5.58,0,0,1-2.15,2.85,3.19,3.19,0,0,1-3.38-.07,4.76,4.76,0,0,1-2-2.51,11.45,11.45,0,0,1,0-5.65l.06-.38.26.29a7.87,7.87,0,0,1,1.9,4.31,8.33,8.33,0,0,1-.33,3.55,7.53,7.53,0,0,1-1,2c-.15.21-.29.35-.37.45s-.13.15-.14.14a9.16,9.16,0,0,0,1.32-2.66,8.2,8.2,0,0,0,.24-3.45,7.55,7.55,0,0,0-1.89-4.1l.32-.09a11.38,11.38,0,0,0,0,5.44,4.32,4.32,0,0,0,1.83,2.25,2.7,2.7,0,0,0,2.89.06,5.06,5.06,0,0,0,1.93-2.61,8.48,8.48,0,0,0-.43-6.93.81.81,0,0,0-.21-.27.22.22,0,0,0-.22,0,2.66,2.66,0,0,0-.66.54,3.74,3.74,0,0,0-.83,1.59,4.14,4.14,0,0,0,1.45,4.33,4.85,4.85,0,0,0,4.47.5,4.92,4.92,0,0,0,2.92-3.14,6.15,6.15,0,0,0-.09-4.09l.33.11L130.19,308l-3.3,2-.88.5A1.41,1.41,0,0,1,125.7,310.63Z" transform="translate(-67.29 -49.28)"/><path class="cls-1" d="M177.62,285.42a3.26,3.26,0,0,1-.17.94,3.63,3.63,0,0,1-.45,1.06,2.22,2.22,0,0,1-1.25.95,1.5,1.5,0,0,1-1,0,2,2,0,0,1-.83-.65,19,19,0,0,1-1.12-1.9c-.75-1.38-1.59-2.9-2.49-4.54l.46-.1c-.08,2.29-.17,4.79-.26,7.41,0,.63-.05,1.24-.07,1.85l0,1-.45-.93-3.76-7.72.42,0a26.66,26.66,0,0,0-1,7c0,1.71.12,2.68.06,2.69a3.17,3.17,0,0,1-.14-.7,17.17,17.17,0,0,1-.17-2,24.39,24.39,0,0,1,.78-7.09l.15-.58.26.54,3.82,7.69-.49.1c0-.6.05-1.22.07-1.85.1-2.62.2-5.12.3-7.41l0-.9.42.79,2.42,4.57a20.08,20.08,0,0,0,1,1.89,1.35,1.35,0,0,0,1.45.61,2.54,2.54,0,0,0,1.63-1.78A6.35,6.35,0,0,1,177.62,285.42Z" transform="translate(-67.29 -49.28)"/><path class="cls-1" d="M177.51,281.67c.08.12-4,3.07-9.21,6.59s-9.43,6.27-9.51,6.15,4-3.06,9.21-6.58S177.43,281.56,177.51,281.67Z" transform="translate(-67.29 -49.28)"/><path class="cls-1" d="M182.58,282.55a77.72,77.72,0,0,1-6.75,6.15,81.34,81.34,0,0,1-7.1,5.76,78.94,78.94,0,0,1,6.76-6.15A80.42,80.42,0,0,1,182.58,282.55Z" transform="translate(-67.29 -49.28)"/><path class="cls-4" d="M543.79,69.67c-1.09-8.76-8.5-16.93-17.32-16.93-5.21,0-10.17,2.72-13.73,6.52a36.36,36.36,0,0,0-3.48,4.13,35.65,35.65,0,0,0-2.6-4.73c-2.74-4.43-7.06-8.08-12.17-9.1-8.66-1.73-17.53,4.81-20.32,13.19s-.46,17.77,4.12,25.31,12.49,17.39,27,22.28c10-1.29,23.46-10.18,29.44-16.67S544.88,78.42,543.79,69.67Z" transform="translate(-67.29 -49.28)"/><path class="cls-2" d="M540.61,85.39a1.07,1.07,0,0,1-.29,0l-.85,0-3.27-.27-12-1.1.21-.13c-1.44,3.77-3.14,8.19-5,13l-.3.78-.2-.82c-1.52-6.32-3.23-13.41-5-20.88-.56-2.31-1.1-4.59-1.63-6.81l.5.1-9.16,12.6-.08.12-.15,0-21.09-2.2-6-.66-1.57-.2a2.13,2.13,0,0,1-.54-.1,2.85,2.85,0,0,1,.55,0l1.58.11,6,.52,21.11,2-.23.1,9.11-12.62.37-.51.14.61c.53,2.22,1.08,4.49,1.63,6.81,1.79,7.47,3.48,14.56,5,20.89l-.49,0,5.09-13,.06-.15.16,0,12,1.28,3.26.38.84.11A1.19,1.19,0,0,1,540.61,85.39Z" transform="translate(-67.29 -49.28)"/><path class="cls-4" d="M652.48,343s29.26-7,30.23-8.21l-24.07-62a45.35,45.35,0,0,0-28.07-27.36,79.57,79.57,0,0,0-28.43-4.39l-40.63-2.15a80.42,80.42,0,0,0-32,8.87,64.66,64.66,0,0,0-30.1,33.17l-18.21,45.51,46,9.61,1.74,48.9-6.93,67.47H648.83l-.89-106.94h0Z" transform="translate(-67.29 -49.28)"/><g class="cls-5"><path class="cls-6" d="M677.7,326.69c0,.14-7.55,2.61-17,5.53s-17.06,5.17-17.11,5,7.55-2.61,17-5.53S677.66,326.55,677.7,326.69Z" transform="translate(-67.29 -49.28)"/></g><path class="cls-7" d="M544.93,283.11a6.06,6.06,0,0,1-.78-1.07c-.47-.7-1.18-1.7-2.1-2.9a48,48,0,0,0-3.44-4,53.19,53.19,0,0,0-4.77-4.4,55.54,55.54,0,0,0-5.31-3.74,49.78,49.78,0,0,0-4.66-2.51c-1.37-.65-2.49-1.13-3.28-1.44a5.72,5.72,0,0,1-1.21-.54,7.76,7.76,0,0,1,1.27.35,35.64,35.64,0,0,1,3.37,1.29,45.29,45.29,0,0,1,4.76,2.44A45.16,45.16,0,0,1,539,274.78a44.63,44.63,0,0,1,3.39,4.14,31.66,31.66,0,0,1,2,3A6.76,6.76,0,0,1,544.93,283.11Z" transform="translate(-67.29 -49.28)"/><path class="cls-7" d="M538.94,297.91c.14,0-1.28,14.94-3.17,33.34s-3.54,33.31-3.68,33.29,1.27-14.94,3.16-33.34S538.79,297.89,538.94,297.91Z" transform="translate(-67.29 -49.28)"/><path class="cls-7" d="M638.85,270.24a26.67,26.67,0,0,1-.66-3,54.7,54.7,0,0,0-2-7.16,55.5,55.5,0,0,0-3-6.82,28.9,28.9,0,0,1-1.42-2.75s.21.21.52.65.74,1.1,1.22,1.92a40.83,40.83,0,0,1,3.16,6.82,41.55,41.55,0,0,1,1.89,7.27c.16.95.25,1.72.29,2.26A2.91,2.91,0,0,1,638.85,270.24Z" transform="translate(-67.29 -49.28)"/><path class="cls-7" d="M641.39,322.44a8.12,8.12,0,0,1-.25-1.47c-.12-.94-.28-2.32-.44-4-.33-3.41-.68-8.12-.87-13.33s-.16-9.95-.07-13.37c0-1.71.1-3.09.16-4a9.14,9.14,0,0,1,.14-1.48,7.2,7.2,0,0,1,.06,1.48c0,1.05,0,2.41,0,4.05,0,3.41,0,8.13.23,13.34s.47,9.91.7,13.32c.12,1.63.21,3,.28,4A8.39,8.39,0,0,1,641.39,322.44Z" transform="translate(-67.29 -49.28)"/><path class="cls-6" d="M580,313.71a208.63,208.63,0,0,1-32-.6v4.16h32Z" transform="translate(-67.29 -49.28)"/><g class="cls-5"><path class="cls-6" d="M611.78,244.56a3.83,3.83,0,0,1,.12.64c.07.45.17,1.06.28,1.84.21,1.62.49,4,.72,7,.48,6,.89,14.55,1,24.64v.38l-.35-.16c-6.38-3.11-13.54-6.49-21-10.21l-36.37-18.2-11-5.57-3-1.54c-.32-.16-.57-.3-.77-.41s-.26-.14-.25-.15l.28.11.79.36,3,1.45,11.07,5.42,36.44,18.07c7.44,3.72,14.58,7.11,20.94,10.24l-.34.21c-.1-10.07-.45-18.61-.85-24.62-.19-3-.42-5.37-.58-7-.08-.78-.15-1.4-.2-1.85A3.87,3.87,0,0,1,611.78,244.56Z" transform="translate(-67.29 -49.28)"/></g><g class="cls-5"><path class="cls-6" d="M535.38,331a1.73,1.73,0,0,1-.53-.09l-1.49-.35-5.47-1.4c-4.62-1.18-11-2.79-18.06-4.5s-13.49-3.19-18.13-4.25l-5.5-1.26-1.49-.36a3.23,3.23,0,0,1-.52-.16,2,2,0,0,1,.54.05l1.51.27c1.31.24,3.2.62,5.54,1.1,4.66,1,11.1,2.39,18.17,4.1s13.44,3.39,18,4.66c2.3.64,4.15,1.17,5.43,1.55l1.47.45A3.09,3.09,0,0,1,535.38,331Z" transform="translate(-67.29 -49.28)"/></g><path class="cls-7" d="M606.19,237c0-.15,2.75,1.29,5.41,5.22s5,10,6.43,17a69.93,69.93,0,0,1,1.17,9.95c0,1.54.06,3,0,4.37s-.09,2.64-.21,3.8-.24,2.19-.34,3.12-.28,1.69-.4,2.33a7.38,7.38,0,0,1-.47,2,7.83,7.83,0,0,1,.07-2c.06-.67.14-1.45.22-2.34s.11-2,.18-3.11.05-2.41.08-3.76-.07-2.8-.11-4.31a78.05,78.05,0,0,0-1.23-9.8,53.59,53.59,0,0,0-6-16.77,23.45,23.45,0,0,0-3.33-4.24C606.74,237.47,606.15,237.07,606.19,237Z" transform="translate(-67.29 -49.28)"/><path class="cls-7" d="M560.73,237.28a21.59,21.59,0,0,1-2.11,3,41.89,41.89,0,0,0-4.71,8.8,60.35,60.35,0,0,0-3.5,14.37c-.72,5.54-1,11.74-1.44,18.23s-.36,12.67-.36,18.3,0,10.71,0,15-.11,7.73-.24,10.12a15.64,15.64,0,0,1-.37,3.7,18.3,18.3,0,0,1-.24-3.71c-.06-2.43-.15-5.87-.26-10.1s-.25-9.34-.32-15-.1-11.86.24-18.4.76-12.71,1.58-18.34a57.36,57.36,0,0,1,3.9-14.6,36.67,36.67,0,0,1,5.24-8.73A13.74,13.74,0,0,1,560.73,237.28Z" transform="translate(-67.29 -49.28)"/><path class="cls-7" d="M628,320.88a20.33,20.33,0,0,1-.2-3.3c0-2.13-.1-5.21-.15-9,0-1.91,0-4-.05-6.22s0-4.64-.13-7.1a11.7,11.7,0,0,0-2.56-7,9.62,9.62,0,0,0-7-3.34,11,11,0,0,0-7.36,2.86,12.65,12.65,0,0,0-3.73,6.49c-.62,2.38-.88,4.77-1.25,7s-.67,4.27-1,6.15c-.61,3.75-1.11,6.79-1.48,8.88a20.65,20.65,0,0,1-.69,3.24,21,21,0,0,1,.29-3.3c.24-2.11.64-5.16,1.15-8.93.26-1.89.54-4,.85-6.16s.55-4.59,1.17-7.09a13.52,13.52,0,0,1,4-7,12,12,0,0,1,8.06-3.14,10.62,10.62,0,0,1,7.81,3.71,12.56,12.56,0,0,1,2.73,7.58c.16,2.56,0,4.93,0,7.17s0,4.31-.07,6.22c-.05,3.8-.11,6.88-.18,9A20.88,20.88,0,0,1,628,320.88Z" transform="translate(-67.29 -49.28)"/><path class="cls-7" d="M618.31,275.16c-.32,3.5-1.45,7.43-3.88,10a14.1,14.1,0,0,1,6.46.12c-1.52-3-1.76-6.7-1.72-10.09" transform="translate(-67.29 -49.28)"/><path class="cls-7" d="M628,297.91c-.19,0-.3-1.68-1.59-4a12.22,12.22,0,0,0-2.9-3.48,10.85,10.85,0,0,0-4.92-2.34,10.49,10.49,0,0,0-5.42.54A11.83,11.83,0,0,0,609.3,291c-1.95,1.76-2.58,3.36-2.75,3.27s.3-1.77,2.24-3.8a11.65,11.65,0,0,1,4-2.71,10.64,10.64,0,0,1,11.31,2,11.94,11.94,0,0,1,2.94,3.87C628.26,296.13,628.09,297.92,628,297.91Z" transform="translate(-67.29 -49.28)"/><path class="cls-8" d="M654.76,411.19c6,0,11.27-4.29,14.08-9.54s3.51-11.36,3.79-17.31a140.77,140.77,0,0,0-5.72-46.7l-26.1,4.55,7.1,70.29Z" transform="translate(-67.29 -49.28)"/><polygon class="cls-7" points="481.9 370.66 566.88 367.57 587.49 267.99 497.99 272.96 481.9 370.66"/><path class="cls-9" d="M592.94,320.53l1.28-2.54,6.78-.5s1.72-4.44,11.41-4.9c8.69-.4,9.05,4,9.05,4h4.68v2.14Z" transform="translate(-67.29 -49.28)"/><path class="cls-8" d="M640.32,387.85l6.44-1.87a7.85,7.85,0,0,1,3.73-.17h0a7.9,7.9,0,0,1,4,2.11c2.13,2.1,5.56,5.57,6,6.61.72,1.51.72,4.13,0,5.09s1.59,5.92,1.3,7.58a10.13,10.13,0,0,1-1.3,4c-.57.69,0,3.05-1.43,4.83a23.42,23.42,0,0,1-2.74,2.88s-17.69.83-19.42,0-4.74-4-4.74-4-1.59-2.89.86-3.17L623,407.89a2.39,2.39,0,0,1-1.46-3,1.65,1.65,0,0,1,.89-1s-4.52-1.43-5.57-1.89c-2.09-.92-2.88-5.78,1.44-5.16,2.29.33,5.37,1,5.37,1s-1.64-2.68.66-4.28c1.4-1,7.7.21,7.7.21l8.29-5.91Z" transform="translate(-67.29 -49.28)"/><path class="cls-10" d="M642.56,414.41a14.85,14.85,0,0,1-5.23-.78,13,13,0,0,1-4.82-2.18c.07-.12,2.17.91,5,1.68S642.58,414.26,642.56,414.41Z" transform="translate(-67.29 -49.28)"/><path class="cls-10" d="M638.71,408.12a68.26,68.26,0,0,1-8.21-1.83,67,67,0,0,1-8.09-2.33,136.42,136.42,0,0,1,16.3,4.16Z" transform="translate(-67.29 -49.28)"/><path class="cls-10" d="M640.81,401.86a156.17,156.17,0,0,1-17.57-4.11,156.17,156.17,0,0,1,17.57,4.11Z" transform="translate(-67.29 -49.28)"/><path class="cls-10" d="M647.35,393.8a11,11,0,0,1-2.27.73l-2.49.64-1.49.37a5.59,5.59,0,0,1-1.7.16,9.47,9.47,0,0,1-1.65-.27l-1.49-.34-2.51-.6a10.72,10.72,0,0,1-2.28-.69,10.86,10.86,0,0,1,2.36.33l2.54.49a30.29,30.29,0,0,0,3.06.56,11.16,11.16,0,0,0,3-.47l2.53-.54A11.29,11.29,0,0,1,647.35,393.8Z" transform="translate(-67.29 -49.28)"/><path class="cls-10" d="M648.49,397.19s.29.18.49.66a3,3,0,0,1-1.12,3.56c-.43.27-.75.32-.77.26s1-.68,1.46-2A5.74,5.74,0,0,0,648.49,397.19Z" transform="translate(-67.29 -49.28)"/><path class="cls-10" d="M648.12,404c.13-.06.53.65.47,1.62s-.53,1.64-.65,1.56.09-.74.13-1.59S648,404.08,648.12,404Z" transform="translate(-67.29 -49.28)"/><path class="cls-10" d="M648.23,411.45c.13-.05.39.43.27,1.06s-.56,1-.66.87.06-.48.15-1S648.09,411.49,648.23,411.45Z" transform="translate(-67.29 -49.28)"/><path class="cls-10" d="M650.15,393.39a5.85,5.85,0,0,1-1.7-.08l-1.82-.24a7,7,0,0,0-2.16-.11,5.29,5.29,0,0,0-1.93.87c-.55.37-1,.79-1.5,1.06a2.87,2.87,0,0,1-1.63.56c0-.09.61-.26,1.43-.87a8.71,8.71,0,0,1,3.56-2.13,6.26,6.26,0,0,1,1.22,0c.4,0,.74.12,1.08.18l1.81.34A5.72,5.72,0,0,1,650.15,393.39Z" transform="translate(-67.29 -49.28)"/><path class="cls-10" d="M660.38,411.52a8.72,8.72,0,0,1,.45-1.27,8.68,8.68,0,0,0,.33-6c-.21-.88-.61-1.76-.83-2.81a9,9,0,0,1,.21-3.27A5.71,5.71,0,0,0,660,395a15,15,0,0,0-1.85-2.85c-.68-.87-1.36-1.72-2-2.48a11.74,11.74,0,0,0-4.18-3.27,6.75,6.75,0,0,0-3.52-.54c-.85.11-1.28.34-1.3.29s.09-.07.3-.18a4.82,4.82,0,0,1,1-.31A6.71,6.71,0,0,1,652,386a11.92,11.92,0,0,1,4.41,3.3c.7.77,1.37,1.61,2.08,2.48a15.74,15.74,0,0,1,1.91,2.95,6.21,6.21,0,0,1,.61,3.5,8.72,8.72,0,0,0-.25,3.11c.19,1,.58,1.89.78,2.79a10.4,10.4,0,0,1,.33,2.56,9.17,9.17,0,0,1-.89,3.61A6.17,6.17,0,0,1,660.38,411.52Z" transform="translate(-67.29 -49.28)"/><path class="cls-8" d="M600.89,362.27l-69.77,11.08,3.1-36.42-38.8-7.49-4.72,53.91-.82,12.36A24.13,24.13,0,0,0,500,417h0a24.16,24.16,0,0,0,21.42,3.25l15-4.89,73.12-26" transform="translate(-67.29 -49.28)"/><path class="cls-8" d="M643.11,354.76a2,2,0,0,0-2-2.33c-3.94,0-14.55,0-18.31,1.11-4.64,1.31-21.92,8.73-21.92,8.73l7.33,27.05,26.53.28s9.69-4.45,9.81-6.38a33.54,33.54,0,0,0-.24-3.61l2.92-1.57c4.36-2.76,1.57-8.07,1.57-8.07s3-1.68,3.16-4.72a4.72,4.72,0,0,0-2.34-4.47s1.2-4.28-1-5.43-6,.32-6,.32A1.6,1.6,0,0,0,643.11,354.76Z" transform="translate(-67.29 -49.28)"/><path class="cls-10" d="M644.63,355.2a2.46,2.46,0,0,1-.81.29c-.54.15-1.32.32-2.29.49-1.95.35-4.67.64-7.65,1a62,62,0,0,0-7.58,1.16c-1.91.44-3,1-3,1s.24-.2.73-.47a13,13,0,0,1,2.19-.85,47,47,0,0,1,7.62-1.32c3-.32,5.7-.55,7.65-.8S644.61,355.12,644.63,355.2Z" transform="translate(-67.29 -49.28)"/><path class="cls-10" d="M649.62,360.62a6.22,6.22,0,0,1-1.86.95,29.89,29.89,0,0,1-4.84,1.41c-1.92.4-3.68.66-4.95.83a8.68,8.68,0,0,1-2.08.16c0-.17,3.11-.73,6.93-1.5,1.9-.4,3.6-.85,4.82-1.24A12.3,12.3,0,0,1,649.62,360.62Z" transform="translate(-67.29 -49.28)"/><path class="cls-10" d="M648.87,370a28.86,28.86,0,0,1-11.65,2.64c0-.16,2.64-.49,5.85-1.22S648.81,369.87,648.87,370Z" transform="translate(-67.29 -49.28)"/><path class="cls-10" d="M647.24,378a13.38,13.38,0,0,1-4.36,1.61,13.53,13.53,0,0,1-4.61.56,42.37,42.37,0,0,1,4.49-1.07A44.76,44.76,0,0,1,647.24,378Z" transform="translate(-67.29 -49.28)"/><path class="cls-10" d="M633.41,373.25c0,.06-.27.23-.81.28a3,3,0,0,1-3.19-2.26c-.13-.53-.06-.86,0-.86s.29,1.29,1.48,2.14A5.56,5.56,0,0,0,633.41,373.25Z" transform="translate(-67.29 -49.28)"/><path class="cls-10" d="M632.85,381.63c0,.14-1,.2-1.94-.61s-1-1.87-.83-1.86.4.8,1.18,1.47S632.87,381.48,632.85,381.63Z" transform="translate(-67.29 -49.28)"/><path class="cls-10" d="M629.78,364.6c.06.14-.68.37-1.35-.15s-.66-1.28-.51-1.26.32.49.82.85S629.76,364.46,629.78,364.6Z" transform="translate(-67.29 -49.28)"/><path class="cls-10" d="M600.89,362.27l.21-.12.63-.29,2.46-1.09c2.15-.93,5.29-2.28,9.25-3.91,2-.81,4.17-1.69,6.56-2.58a25.31,25.31,0,0,1,3.81-1.18,40.21,40.21,0,0,1,4.22-.52c2.9-.23,6-.33,9.18-.37l2.43,0h1.24a2.53,2.53,0,0,1,1.32.28,2.12,2.12,0,0,1,1.13,2.41.75.75,0,0,1-.31.34l-.29.19-.61.28a9.84,9.84,0,0,1-1.26.44.27.27,0,0,1-.31-.18.26.26,0,0,1,.18-.31,27.86,27.86,0,0,1,3.31-.74,12,12,0,0,1,3.5-.12,2.75,2.75,0,0,1,2.56,2.43,8.65,8.65,0,0,1-.22,3.65l-.14-.31a4.79,4.79,0,0,1,1.47,1.3,5.18,5.18,0,0,1,.77,4.73,7.08,7.08,0,0,1-3.05,3.63l.11-.35a8.45,8.45,0,0,1,.84,4.62,5.31,5.31,0,0,1-2.5,3.78h0l-2.92,1.57.12-.25c.08.7.15,1.4.19,2.09,0,.34,0,.69.06,1,0,.17,0,.35,0,.52a1.26,1.26,0,0,1-.22.58,6,6,0,0,1-1.51,1.44c-.54.4-1.09.76-1.65,1.1a72.25,72.25,0,0,1-6.58,3.45.14.14,0,0,1-.09,0l-19.31-.29-5.34-.11-1.4-.05a2.2,2.2,0,0,1-.48,0,2.49,2.49,0,0,1,.48,0l1.4,0h5.34l19.31.11-.09,0a69.11,69.11,0,0,0,6.52-3.46q.83-.49,1.62-1.08a5.76,5.76,0,0,0,1.38-1.31,1,1,0,0,0,.14-.35c0-.16,0-.33,0-.49q0-.51-.06-1c0-.68-.12-1.37-.19-2.06a.23.23,0,0,1,.12-.24l2.93-1.58h0a4.84,4.84,0,0,0,2.27-3.43,7.85,7.85,0,0,0-.8-4.31.27.27,0,0,1,.1-.34,6.51,6.51,0,0,0,2.8-3.34,4.71,4.71,0,0,0-.68-4.26,4.31,4.31,0,0,0-1.29-1.14.27.27,0,0,1-.13-.3,8.24,8.24,0,0,0,.21-3.41,2.55,2.55,0,0,0-.69-1.41,2.65,2.65,0,0,0-1.44-.61,11.35,11.35,0,0,0-3.34.12,24.19,24.19,0,0,0-3.24.71l-.13-.49a10.24,10.24,0,0,0,1.18-.4l.56-.26c.17-.07.34-.27.41-.25a2,2,0,0,0-.17-1,1.82,1.82,0,0,0-.76-.77,2.1,2.1,0,0,0-1.09-.22h-3.67c-3.2,0-6.26.12-9.15.33a41.41,41.41,0,0,0-4.17.49,24.88,24.88,0,0,0-3.76,1.14c-2.39.87-4.58,1.73-6.57,2.52l-9.3,3.77-2.5,1-.64.26Z" transform="translate(-67.29 -49.28)"/><path class="cls-10" d="M531.4,373.28a20.67,20.67,0,0,0-8.59,10.33,5.37,5.37,0,0,1,.52-2,15.45,15.45,0,0,1,2.51-4.24,15.76,15.76,0,0,1,3.71-3.25A5.88,5.88,0,0,1,531.4,373.28Z" transform="translate(-67.29 -49.28)"/><path class="cls-8" d="M622.51,157.54a35.25,35.25,0,0,0-35.07-32.48h-1.82c-19.69,1.11-29.74,18.44-28.09,38.09l3.4,78.75a3.55,3.55,0,0,0,2,3.06l44.17,20.73-1.36-41.33s18.92-2.9,19.2-21.82C625.11,193.41,623.85,174.57,622.51,157.54Z" transform="translate(-67.29 -49.28)"/><path class="cls-10" d="M605.93,224.33a45.82,45.82,0,0,1-24.77-7.3s5.81,13.62,24.68,12Z" transform="translate(-67.29 -49.28)"/><path class="cls-7" d="M615.8,169.29a2.7,2.7,0,0,1-2.61,2.72,2.59,2.59,0,0,1-2.78-2.44,2.69,2.69,0,0,1,2.61-2.72A2.58,2.58,0,0,1,615.8,169.29Z" transform="translate(-67.29 -49.28)"/><path class="cls-7" d="M618.42,166.79c-.33.35-2.38-1.17-5.28-1.17s-5,1.46-5.36,1.1c-.15-.16.19-.79,1.12-1.47a7.45,7.45,0,0,1,4.29-1.31,7,7,0,0,1,4.2,1.37C618.29,166,618.59,166.63,618.42,166.79Z" transform="translate(-67.29 -49.28)"/><path class="cls-7" d="M587.23,170.17a2.69,2.69,0,0,1-2.61,2.72,2.58,2.58,0,0,1-2.78-2.44,2.7,2.7,0,0,1,2.61-2.72A2.59,2.59,0,0,1,587.23,170.17Z" transform="translate(-67.29 -49.28)"/><path class="cls-7" d="M589.85,167.27c-.34.35-2.38-1.16-5.29-1.16s-5,1.45-5.35,1.09c-.16-.16.18-.79,1.12-1.46a7.32,7.32,0,0,1,4.28-1.32,7.19,7.19,0,0,1,4.21,1.37C589.71,166.48,590,167.12,589.85,167.27Z" transform="translate(-67.29 -49.28)"/><path class="cls-7" d="M600.35,188.85c0-.16,1.8-.47,4.73-.84.74-.08,1.44-.22,1.57-.73a3.82,3.82,0,0,0-.49-2.2c-.7-1.8-1.42-3.68-2.19-5.66-3-8-5.22-14.67-4.9-14.79s3,6.31,6.08,14.37c.73,2,1.43,3.87,2.09,5.69a4.23,4.23,0,0,1,.38,2.91,1.84,1.84,0,0,1-1.22,1.08,4.67,4.67,0,0,1-1.26.17C602.19,189,600.37,189,600.35,188.85Z" transform="translate(-67.29 -49.28)"/><path class="cls-7" d="M591.8,190.84c.47,0,.47,3.13,3.16,5.38s6.06,1.9,6.08,2.34c.05.2-.75.62-2.17.65a7.84,7.84,0,0,1-5.07-1.78,6.86,6.86,0,0,1-2.46-4.5C591.23,191.61,591.58,190.83,591.8,190.84Z" transform="translate(-67.29 -49.28)"/><path class="cls-7" d="M590.62,155.88c-.28.79-3.19.41-6.6.82s-6.17,1.32-6.62.62c-.2-.34.28-1.09,1.39-1.85a11.21,11.21,0,0,1,4.92-1.71,11,11,0,0,1,5.16.62C590.12,154.89,590.75,155.51,590.62,155.88Z" transform="translate(-67.29 -49.28)"/><path class="cls-7" d="M617.37,158.37c-.51.66-2.51,0-4.92-.06s-4.45.43-4.92-.26c-.2-.34.12-1,1-1.62a7.15,7.15,0,0,1,7.93.26C617.32,157.37,617.6,158.05,617.37,158.37Z" transform="translate(-67.29 -49.28)"/><path class="cls-8" d="M560.36,177.15c-.32-.14-13-3.87-12.6,9.07s13.29,9.87,13.3,9.5S560.36,177.15,560.36,177.15Z" transform="translate(-67.29 -49.28)"/><path class="cls-10" d="M558.11,190.94c-.06,0-.23.16-.6.35a2.26,2.26,0,0,1-1.68.09c-1.39-.47-2.6-2.6-2.73-4.93a7.4,7.4,0,0,1,.53-3.24,2.61,2.61,0,0,1,1.64-1.78,1.15,1.15,0,0,1,1.35.57c.19.36.11.62.18.64s.27-.22.15-.75a1.43,1.43,0,0,0-.53-.8,1.71,1.71,0,0,0-1.26-.29,3.17,3.17,0,0,0-2.29,2.07,7.65,7.65,0,0,0-.67,3.63c.16,2.61,1.56,5,3.45,5.49a2.4,2.4,0,0,0,2.05-.41C558.09,191.25,558.15,191,558.11,190.94Z" transform="translate(-67.29 -49.28)"/><path class="cls-7" d="M568.84,138.71l53.93,1.19a24.67,24.67,0,0,0-7.92-9.16A42.09,42.09,0,0,0,590.43,122c-8.8-.16-26.7,10.56-33.07,16.62-5.1,4.85-5.07,9.05-5.07,9.05-.81,7,3.11,14.94,4.66,21.81.8,3.54,2.35,14.25,2.35,14.25h0c3,0,4.07-2.38,3.62-5.31l-.56-11.53s10.11-7.18,5.32-20.32C566.92,145.47,565.28,140.67,568.84,138.71Z" transform="translate(-67.29 -49.28)"/><path class="cls-10" d="M580.17,179.61a.34.34,0,0,1-.39-.28.36.36,0,0,1,.25-.41.34.34,0,0,1,.38.29A.33.33,0,0,1,580.17,179.61Z" transform="translate(-67.29 -49.28)"/><path class="cls-10" d="M585.72,178.36a.36.36,0,0,1-.39-.33.33.33,0,1,1,.63-.12A.36.36,0,0,1,585.72,178.36Z" transform="translate(-67.29 -49.28)"/><path class="cls-10" d="M589.46,178.28c-.17,0-.34-.2-.38-.48s.08-.54.25-.56.35.19.39.48S589.64,178.26,589.46,178.28Z" transform="translate(-67.29 -49.28)"/><path class="cls-10" d="M582.89,183.1c-.18,0-.32-.09-.32-.2s.14-.21.32-.21.32.1.32.21S583.07,183.1,582.89,183.1Z" transform="translate(-67.29 -49.28)"/><path class="cls-10" d="M588,181.93a.33.33,0,0,1-.35-.33.34.34,0,0,1,.28-.39.33.33,0,0,1,.35.33A.34.34,0,0,1,588,181.93Z" transform="translate(-67.29 -49.28)"/><path class="cls-10" d="M614.5,178.82a.37.37,0,1,1,.24-.42A.34.34,0,0,1,614.5,178.82Z" transform="translate(-67.29 -49.28)"/><path class="cls-10" d="M618.28,178.48c-.17,0-.33-.15-.35-.37a.37.37,0,0,1,.28-.43c.17,0,.33.15.35.37A.35.35,0,0,1,618.28,178.48Z" transform="translate(-67.29 -49.28)"/><path class="cls-10" d="M611.16,178.91a.3.3,0,0,1-.37-.22.29.29,0,0,1,.26-.33.3.3,0,0,1,.37.21A.31.31,0,0,1,611.16,178.91Z" transform="translate(-67.29 -49.28)"/><path class="cls-10" d="M614,182.7a.37.37,0,1,1,.15-.47A.34.34,0,0,1,614,182.7Z" transform="translate(-67.29 -49.28)"/><path class="cls-10" d="M617.19,182.06a.3.3,0,0,1-.24-.34.29.29,0,0,1,.38-.18.3.3,0,0,1,.24.35A.3.3,0,0,1,617.19,182.06Z" transform="translate(-67.29 -49.28)"/><path class="cls-7" d="M557,139.31a15.95,15.95,0,0,1,15.93-19.82c2.52.1,5,.81,7.53.54,4.67-.51,8.27-4.25,12.59-6.07a16.44,16.44,0,0,1,19.39,5.82c1.64,2.45,2.72,5.48,5.23,7,2.18,1.33,4.91,1.22,7.36,2,4.93,1.48,8.32,6.73,8.06,11.88a14.16,14.16,0,0,1-8.61,11.88,17.28,17.28,0,0,1-14.9-1.05c-4.07-2.27-7.72-6.13-12.37-6-4.82.14-9,4.68-13.77,3.74-2.47-.49-4.39-2.4-6.2-4.16s-3.91-3.55-6.43-3.7-3.84,3.32-2.94,5.68L557,139.31" transform="translate(-67.29 -49.28)"/><path class="cls-9" d="M621.72,133.05s0,.07-.08.19a5,5,0,0,1-.32.52,8.84,8.84,0,0,1-1.54,1.76,9.77,9.77,0,0,1-3.21,1.86,9.19,9.19,0,0,1-4.89.29,9.69,9.69,0,0,1-5.16-2.94c-1.48-1.62-2.35-3.78-3.72-5.68a7,7,0,0,0-6.19-3.15,8.13,8.13,0,0,0-3.67,1,6.91,6.91,0,0,0-2.71,2.78,39.43,39.43,0,0,1-1.9,3.64,4.46,4.46,0,0,1-3.45,2.1,6.73,6.73,0,0,1-3.76-1.08,14.56,14.56,0,0,1-2.87-2.37c-1.66-1.68-3.3-3.36-5.35-3.81a6.77,6.77,0,0,0-5.41,1.27,9.27,9.27,0,0,0-3,3.68,15.38,15.38,0,0,0-1.11,3.47c-.2,1-.29,1.76-.36,2.29a5.37,5.37,0,0,1-.11.81.77.77,0,0,1,0-.21c0-.14,0-.34,0-.61a20.45,20.45,0,0,1,.26-2.32,14.72,14.72,0,0,1,1-3.55,9.52,9.52,0,0,1,3-3.86,7.14,7.14,0,0,1,5.73-1.39c2.21.47,3.93,2.23,5.59,3.88a13.68,13.68,0,0,0,2.78,2.29,6.24,6.24,0,0,0,3.48,1,4,4,0,0,0,3.06-1.88c.73-1.08,1.19-2.37,1.87-3.6a7.39,7.39,0,0,1,2.91-3,8.66,8.66,0,0,1,3.91-1,7.53,7.53,0,0,1,6.59,3.38c1.4,2,2.25,4.12,3.65,5.68a9.31,9.31,0,0,0,4.91,2.86,8.85,8.85,0,0,0,4.73-.21,9.6,9.6,0,0,0,3.17-1.73A12.21,12.21,0,0,0,621.72,133.05Z" transform="translate(-67.29 -49.28)"/><path class="cls-9" d="M631.5,133.25a3,3,0,0,1,.22,1,8.45,8.45,0,0,1-.28,2.89,10,10,0,0,1-2,3.8,11.74,11.74,0,0,1-4.26,3.11,17.48,17.48,0,0,1-9.41,1.06,25.49,25.49,0,0,1-2.83-.56,3.62,3.62,0,0,1-1-.34c0-.08,1.48.28,3.87.53a18.34,18.34,0,0,0,9.16-1.17,11.83,11.83,0,0,0,4.11-2.94,10.24,10.24,0,0,0,2-3.6A11.47,11.47,0,0,0,631.5,133.25Z" transform="translate(-67.29 -49.28)"/><path class="cls-11" d="M547.48,306.49" transform="translate(-67.29 -49.28)"/><path class="cls-11" d="M547.48,327.62" transform="translate(-67.29 -49.28)"/><path class="cls-1" d="M539.46,341.6a10.82,10.82,0,0,0,2.27,5.6c1.16,1.51,3.51,3,5.4,2.87a8.24,8.24,0,0,0,7.27-3.65c2.3-3.66,2.87-11.29,1-15.8-1.27-3.1-4.12-6-7.47-6.07-4.4-.1-7.16,3.08-8.1,6.3" transform="translate(-67.29 -49.28)"/><path class="cls-7" d="M539.85,330.85a6.82,6.82,0,0,1,.81-2.16,8.9,8.9,0,0,1,1.65-2.17,7.72,7.72,0,0,1,3.12-1.82,7.81,7.81,0,0,1,2.09-.34,6.29,6.29,0,0,1,2.29.3,9,9,0,0,1,4.08,2.93,11.79,11.79,0,0,1,2.41,5,21.94,21.94,0,0,1,.44,5.93c-.2,3.13-.82,6.25-2.55,8.63a7.8,7.8,0,0,1-3.32,2.5,8.92,8.92,0,0,1-3.76.63h0a5.72,5.72,0,0,1-2.69-.66,9.05,9.05,0,0,1-2-1.42,10.13,10.13,0,0,1-2.2-3.28,9.33,9.33,0,0,1-.7-2.43,5.25,5.25,0,0,1-.06-.66.68.68,0,0,1,0-.23,14.12,14.12,0,0,0,1,3.22,10.15,10.15,0,0,0,2.22,3.13,8.84,8.84,0,0,0,2,1.32,5.3,5.3,0,0,0,2.5.59h0a8,8,0,0,0,6.65-3c1.61-2.23,2.23-5.3,2.42-8.36.22-4-.45-7.94-2.7-10.6a8.66,8.66,0,0,0-3.84-2.82,6.19,6.19,0,0,0-2.15-.31,7.54,7.54,0,0,0-5,2,9.07,9.07,0,0,0-1.67,2.05A17.59,17.59,0,0,0,539.85,330.85Z" transform="translate(-67.29 -49.28)"/><path class="cls-1" d="M537.12,341.8a10.85,10.85,0,0,0,2.27,5.6c1.15,1.51,3.51,3,5.4,2.87a8.25,8.25,0,0,0,7.27-3.65c2.3-3.67,2.87-11.29,1-15.8-1.27-3.11-4.12-6-7.47-6.07a8.27,8.27,0,0,0-8.1,6.29" transform="translate(-67.29 -49.28)"/><path class="cls-7" d="M537.51,331a6.73,6.73,0,0,1,.81-2.15,8.9,8.9,0,0,1,1.65-2.17,7.72,7.72,0,0,1,5.21-2.16,6.32,6.32,0,0,1,2.29.3,9,9,0,0,1,4.08,2.93,11.66,11.66,0,0,1,2.4,5,21.54,21.54,0,0,1,.45,5.93c-.2,3.13-.82,6.24-2.55,8.63a7.8,7.8,0,0,1-3.32,2.5,8.92,8.92,0,0,1-3.76.63h0a5.61,5.61,0,0,1-2.69-.67,8.71,8.71,0,0,1-2-1.41,9.9,9.9,0,0,1-2.2-3.29,9.28,9.28,0,0,1-.7-2.42c0-.29-.06-.51-.07-.66a.82.82,0,0,1,0-.23,14.14,14.14,0,0,0,1,3.21,10,10,0,0,0,2.21,3.14,9.15,9.15,0,0,0,2,1.32,5.42,5.42,0,0,0,2.5.59h0a8,8,0,0,0,6.64-3c1.62-2.24,2.24-5.3,2.43-8.36.22-4-.45-7.95-2.7-10.6a8.61,8.61,0,0,0-3.85-2.82,6.14,6.14,0,0,0-2.14-.31,7.54,7.54,0,0,0-5,2A9.07,9.07,0,0,0,538.5,329,18.06,18.06,0,0,0,537.51,331Z" transform="translate(-67.29 -49.28)"/><path class="cls-1" d="M541.37,329.92A5.13,5.13,0,0,0,536,333a8.87,8.87,0,0,0,0,6.53,8.24,8.24,0,0,0,1.66,2.94,4.45,4.45,0,0,0,3,1.45,5.22,5.22,0,0,0,4.13-2.44,9.34,9.34,0,0,0,1.41-7.67c-.46-1.74-1.74-3.51-3.53-3.56" transform="translate(-67.29 -49.28)"/><path class="cls-7" d="M542.67,330.26s.14,0,.4,0a2.64,2.64,0,0,1,1.08.37,5.3,5.3,0,0,1,2.29,3.44,9.37,9.37,0,0,1-.62,6.12,7.76,7.76,0,0,1-2.24,2.94,4.34,4.34,0,0,1-3.86.93,5.4,5.4,0,0,1-3.08-2.52,11.29,11.29,0,0,1-1.28-3.46,7.69,7.69,0,0,1,1-6,5.38,5.38,0,0,1,3.48-2.22,3.93,3.93,0,0,1,1.15,0c.25.05.38.09.38.11a7.87,7.87,0,0,0-1.49.09,5.31,5.31,0,0,0-3.22,2.23,7.37,7.37,0,0,0-.83,5.73,10.77,10.77,0,0,0,1.25,3.29,4.89,4.89,0,0,0,2.78,2.28,3.83,3.83,0,0,0,3.41-.82,7.63,7.63,0,0,0,2.12-2.74,9.16,9.16,0,0,0,.69-5.84,5.24,5.24,0,0,0-2-3.35A4.22,4.22,0,0,0,542.67,330.26Z" transform="translate(-67.29 -49.28)"/><path class="cls-7" d="M546.41,346.36c-.08,0-.19-.32-.53-.72a3.78,3.78,0,0,0-1.71-1.09,8.59,8.59,0,0,0-2.1-.33c-.56,0-.91-.09-.91-.16s.34-.15.91-.21a5.87,5.87,0,0,1,2.26.2,3.27,3.27,0,0,1,1.85,1.38C546.49,346,546.47,346.35,546.41,346.36Z" transform="translate(-67.29 -49.28)"/><path class="cls-7" d="M547.2,328.56s-.16.35-.62.72a4.81,4.81,0,0,1-2.11.92,5,5,0,0,1-2.3-.12c-.56-.19-.86-.41-.83-.47a11.75,11.75,0,0,0,3,.08A12.49,12.49,0,0,0,547.2,328.56Z" transform="translate(-67.29 -49.28)"/><path class="cls-7" d="M271.67,153.65c.12-4.36-3.91-7.72-8-9.32s-8.57-2.2-12.18-4.63c-3.2-2.16-5.35-5.52-8.06-8.26a26.83,26.83,0,0,0-45.12,12.3c-1.56,6.21-.49,13.54,4.4,17.67,5.67,4.78,14.09,3.72,21.36,2.23s15.5-3,21.58,1.31c3.66,2.58,5.76,6.77,8,10.65s5,7.83,9.28,9.29,10-1.06,10.14-5.53" transform="translate(-67.29 -49.28)"/><path class="cls-7" d="M271.37,156c-.48,3.65,2.17,6.92,4.8,9.5s5.6,5.31,6.06,9c.54,4.27-2.57,8.47-1.67,12.68.58,2.67,2.65,4.72,3.91,7.15a15.19,15.19,0,0,1,.78,11.19c-1.09,3.68-2.81,11.89-5.37,14.75-7.07,7.9-18.32,14.72-28.66,17.09s-21.06,2.39-31.65,1.74c-8.66-.53-18.62-.13-25.84-12-3.74-6.18-5.59-14.38-7.58-21.32-1.71-6-3.19-12.37-1.41-18.33,1-3.46,3.12-6.55,4.14-10,1.28-4.34.82-9,1.33-13.48a30.91,30.91,0,0,1,44-24.4" transform="translate(-67.29 -49.28)"/><path class="cls-8" d="M194.35,171c.82-12.43,9.09-27.67,21.47-26.33l38.67,9.86A7.29,7.29,0,0,1,261,162l-4.34,93.28.26.05s-8.81,26.31-34.37,18.28c-5.07-1.6-7.39-7.14-8.39-12.85l-.27,0c0-.68,0-1.31,0-2a60.44,60.44,0,0,1-.15-12.81h0c-.08-7.53-.07-10.62-.07-10.55s-15.88-2.67-19.13-23.4C192.9,201.72,193.45,184.82,194.35,171Z" transform="translate(-67.29 -49.28)"/><path class="cls-7" d="M200.58,183.5a2.66,2.66,0,0,0,2.56,2.69,2.54,2.54,0,0,0,2.74-2.39,2.65,2.65,0,0,0-2.55-2.69A2.55,2.55,0,0,0,200.58,183.5Z" transform="translate(-67.29 -49.28)"/><path class="cls-7" d="M198,179.81c.33.35,2.35-1.14,5.21-1.13s4.95,1.45,5.26,1.1c.15-.15-.18-.78-1.09-1.45a7.29,7.29,0,0,0-4.22-1.3,6.94,6.94,0,0,0-4.14,1.32C198.14,179,197.84,179.65,198,179.81Z" transform="translate(-67.29 -49.28)"/><path class="cls-7" d="M228.7,183.5a2.65,2.65,0,0,0,2.55,2.69A2.55,2.55,0,0,0,234,183.8a2.66,2.66,0,0,0-2.56-2.69A2.54,2.54,0,0,0,228.7,183.5Z" transform="translate(-67.29 -49.28)"/><path class="cls-7" d="M226.11,180.4c.33.35,2.35-1.13,5.21-1.12s5,1.45,5.27,1.1c.15-.16-.18-.78-1.1-1.45a7.35,7.35,0,0,0-4.21-1.31,7.07,7.07,0,0,0-4.15,1.33C226.25,179.62,226,180.25,226.11,180.4Z" transform="translate(-67.29 -49.28)"/><path class="cls-7" d="M215.69,201.59c0-.16-1.77-.47-4.65-.85-.73-.07-1.42-.22-1.54-.72a3.75,3.75,0,0,1,.49-2.16q1-2.66,2.18-5.56c3-7.91,5.2-14.42,4.88-14.53s-3,6.19-6,14.1l-2.08,5.59a4.23,4.23,0,0,0-.39,2.87,1.84,1.84,0,0,0,1.2,1.07,5.61,5.61,0,0,0,1.24.18C213.88,201.74,215.68,201.76,215.69,201.59Z" transform="translate(-67.29 -49.28)"/><path class="cls-10" d="M213.64,235.43a52.73,52.73,0,0,0,27.77-7.34s-7,14.33-27.75,12.35Z" transform="translate(-67.29 -49.28)"/><path class="cls-10" d="M216.88,208.49a5.18,5.18,0,0,1,4.63-1.91,4.69,4.69,0,0,1,3.24,1.76,3,3,0,0,1,.22,3.4,3.43,3.43,0,0,1-3.75.94,10.68,10.68,0,0,1-3.65-2.19,3.12,3.12,0,0,1-.82-.84,1,1,0,0,1,0-1.07" transform="translate(-67.29 -49.28)"/><path class="cls-7" d="M224.1,203.59c-.46,0-.48,3.08-3.14,5.27s-6,1.85-6,2.29c0,.19.73.6,2.13.64a7.7,7.7,0,0,0,5-1.73,6.71,6.71,0,0,0,2.44-4.42C224.66,204.34,224.31,203.57,224.1,203.59Z" transform="translate(-67.29 -49.28)"/><path class="cls-7" d="M224.84,175.39c.28.78,3.14.42,6.49.83s6.07,1.33,6.51.64c.2-.34-.27-1.07-1.36-1.82a10.68,10.68,0,0,0-4.82-1.7,10.91,10.91,0,0,0-5.09.58C225.34,174.41,224.72,175,224.84,175.39Z" transform="translate(-67.29 -49.28)"/><path class="cls-7" d="M199.07,171.53c.5.65,2.47,0,4.84,0s4.38.44,4.84-.23c.21-.33-.11-1-1-1.6a7,7,0,0,0-7.8.22C199.13,170.55,198.85,171.22,199.07,171.53Z" transform="translate(-67.29 -49.28)"/><path class="cls-7" d="M269,222.73a18.41,18.41,0,0,1-21.9-20.35c.65-5.09,3.39-10.27,1.63-15.09-2.33-6.37-11.26-8.33-13.63-14.69-1.38-3.69-.14-8-1.7-11.63-1.47-3.41-5.05-5.37-8.54-6.63s-7.23-2.13-10.15-4.4-4.76-6.57-2.87-9.76a196.19,196.19,0,0,1,45.29,11C260.47,152.44,264,154,266,157c2.11,3.18,2,7.29,1.83,11.11q-1.31,27.91-2.6,55.82" transform="translate(-67.29 -49.28)"/><path class="cls-9" d="M267.66,229.85s.12-.06.33-.21l.93-.7c.8-.63,2-1.56,3.43-2.85a36.54,36.54,0,0,0,4.87-5.12,19.23,19.23,0,0,0,3.88-8.54,13,13,0,0,0-2.68-10.9,40.82,40.82,0,0,0-4.83-4.12,11.26,11.26,0,0,1-3.76-5.14c-1.53-4.22-.85-9.11-1.44-14.11a28.15,28.15,0,0,0-5.88-14.28,19.33,19.33,0,0,0-6.15-5,37.51,37.51,0,0,0-7.25-2.44,16.94,16.94,0,0,1-6.36-3.14,25,25,0,0,1-4.62-5.09c-2.61-3.7-4.53-7.64-7-10.93a24.12,24.12,0,0,0-4.08-4.33,15.7,15.7,0,0,0-4.85-2.64,10.32,10.32,0,0,0-9.2.92,8.49,8.49,0,0,0-3.27,6.2,6.17,6.17,0,0,0,1.25,4.27,4,4,0,0,0,.84.81,1.31,1.31,0,0,0,.33.22s-.08-.11-.27-.29a5,5,0,0,1-.76-.85,6.16,6.16,0,0,1-1-4.13,8.14,8.14,0,0,1,3.22-5.82,9.8,9.8,0,0,1,8.7-.72,14.94,14.94,0,0,1,4.6,2.57,23.13,23.13,0,0,1,3.92,4.24c2.41,3.23,4.29,7.16,6.93,11A26,26,0,0,0,242.2,154a17.6,17.6,0,0,0,6.66,3.31,37,37,0,0,1,7.09,2.4,18.6,18.6,0,0,1,5.86,4.8,27.36,27.36,0,0,1,5.69,13.81c.6,4.83-.1,9.8,1.54,14.29a12,12,0,0,0,4,5.47,42.45,42.45,0,0,1,4.78,4,12.33,12.33,0,0,1,2.6,10.3,18.63,18.63,0,0,1-3.65,8.33,37.67,37.67,0,0,1-4.7,5.17c-1.41,1.32-2.55,2.29-3.31,3A10.61,10.61,0,0,0,267.66,229.85Z" transform="translate(-67.29 -49.28)"/><path class="cls-7" d="M271.44,232.42c4.26-4.11,11.54-.53,15.12,4.19s6.1,10.82,11.53,13.19,12.49.34,17.05,4.12c6.28,5.22,2.75,17.31,9.54,21.85,2.7,1.8,6.25,1.74,9.14,3.22,6.79,3.5,6.71,13.08,5.66,20.65-1.48,10.62-3.09,21.63-9,30.61s-17.27,15.29-27.42,11.83c-9.75-3.33-14.75-13.85-18.72-23.36q-8.24-19.74-16.46-39.47c-3.18-7.61-6.38-15.34-7.42-23.52s.36-17,5.56-23.42" transform="translate(-67.29 -49.28)"/><path class="cls-4" d="M274.17,223.35c3.1-.37,5.46,3.42,4.65,6.43s-3.71,5-6.65,6.05a10,10,0,0,1-5.14.59,5,5,0,0,1-3.89-3.13,3,3,0,0,1,1.43-3.89c2-1.27,3.23-2.27,4.83-3.16,2.46-1.35,2.32-1.53,4.77-2.89" transform="translate(-67.29 -49.28)"/><polygon class="cls-4" points="135.65 207.42 147.67 198.31 192.98 195.41 194.8 201.49 180.06 293.45 191.69 403.17 128.48 403.17 135.65 207.42"/><g class="cls-5"><path d="M251.45,413.53c-1.44-1.55-3.81-3.67-5.93-3.72-15.13-.33-30.59-1.84-45.72-2.18l-1.21,44.84c3.62-6.38,7-13,8-20.3.41-3.18.95-7,3.85-8.34,1.64-.77,3.56-.47,5.34-.11,5.47,1.08,10.9,2.49,16.46,2.84s11.38-.47,16-3.51a9.72,9.72,0,0,0,3.84-4.15A5,5,0,0,0,251.45,413.53Z" transform="translate(-67.29 -49.28)"/></g><path class="cls-4" d="M212.74,258.56l-1.4-13.15a4.17,4.17,0,0,1,3.77-4.6L256.82,237a2,2,0,0,1,2.15,1.9l.47,15.65-12.08,20.49L234.94,279H219.76L211,269.71Z" transform="translate(-67.29 -49.28)"/><path class="cls-7" d="M253.28,249.57s-.6-.06-1.67-.17a30,30,0,0,0-4.54-.08,44,44,0,0,0-6.68,1c-2.49.52-5.2,1.25-8.07,2a52.73,52.73,0,0,1-8.21,1.46,21.19,21.19,0,0,1-6.81-.46,14.33,14.33,0,0,1-4.25-1.76,9.61,9.61,0,0,1-1-.74,1.48,1.48,0,0,1-.32-.3s.5.33,1.44.86a15.42,15.42,0,0,0,4.22,1.58,21.62,21.62,0,0,0,6.69.34,55.19,55.19,0,0,0,8.13-1.49c2.86-.69,5.58-1.41,8.09-1.91a40.15,40.15,0,0,1,6.76-.86,24.33,24.33,0,0,1,4.59.24c.53.09,1,.17,1.22.24A1.42,1.42,0,0,1,253.28,249.57Z" transform="translate(-67.29 -49.28)"/><g class="cls-5"><path d="M213.74,251.64c-1.12,3.07-1.15,6.87,1.11,9.22,1.85,1.92,4.82,2.4,7.43,1.88a23.41,23.41,0,0,0,7.25-3.26c5.74-3.41,11.57-7,18.1-8.4a2.35,2.35,0,0,0,1.17-.49.78.78,0,0,0,0-1.13,1.15,1.15,0,0,0-.54-.15c-5.77-.58-11.5,1.05-17.16,2.32s-11.69,2.17-17.15.2" transform="translate(-67.29 -49.28)"/></g><path class="cls-7" d="M221.7,240.39a3.74,3.74,0,0,0-1.42,1.36c-.66,1.06-.63,2.86-.57,4.8.1,3.89.75,7,.59,7a7.16,7.16,0,0,1-.56-2,31.51,31.51,0,0,1-.55-5,21.29,21.29,0,0,1,.05-2.79,4.93,4.93,0,0,1,.72-2.21,3,3,0,0,1,1.18-1.05C221.49,240.36,221.7,240.36,221.7,240.39Z" transform="translate(-67.29 -49.28)"/><path class="cls-7" d="M232.73,251.82c-.17,0,.21-2.88-.3-6.36a59.75,59.75,0,0,0-1.49-6.2,5.35,5.35,0,0,1,.86,1.69,20.53,20.53,0,0,1,1.27,9A5.47,5.47,0,0,1,232.73,251.82Z" transform="translate(-67.29 -49.28)"/><path class="cls-7" d="M246.15,238.15a4.2,4.2,0,0,1,.8,1.55,10.77,10.77,0,0,1,.54,4.17,10.6,10.6,0,0,1-1.09,4.07,4.06,4.06,0,0,1-1,1.42,13.82,13.82,0,0,0,.74-11.21Z" transform="translate(-67.29 -49.28)"/><path class="cls-3" d="M187.67,262.62s-14.22,9.52-17.95,26.72c-2.94,13.52-11,84.94-11,84.94L144.65,401.7l9.2,21.88h0a33.59,33.59,0,0,0,22.09-6.31l6.2-4.5,11.34-16.83Z" transform="translate(-67.29 -49.28)"/><polygon class="cls-3" points="144.49 200.72 120.38 213.34 114.69 232.03 109.62 286.22 119.16 349.75 102.42 402.98 131.29 403.19 131.98 371.99 134.86 270.99 137.69 206.65 144.49 200.72"/><path class="cls-7" d="M200.11,334.2a5.52,5.52,0,0,1-.45-.76c-.3-.54-.7-1.28-1.2-2.21s-1-2.22-1.61-3.64c-.3-.72-.54-1.51-.84-2.34s-.61-1.71-.85-2.65c-2.27-7.49-3.77-18.3-3.45-30.22,0-.92.06-1.83.13-2.74v-.16l.14-.06,4.22-1.78-.06.44-4.21-3.39-.09-.07v-.1a36.47,36.47,0,0,1,1.92-12c1.06-3.53,2.22-6.57,3.24-9.07s1.9-4.45,2.54-5.77c.31-.67.56-1.18.74-1.52a2.92,2.92,0,0,1,.29-.5,3.31,3.31,0,0,1-.21.54l-.67,1.55c-.59,1.34-1.43,3.31-2.41,5.82s-2.09,5.55-3.12,9.07a36.86,36.86,0,0,0-1.83,11.89l-.09-.17,4.22,3.37.34.27-.4.17-4.21,1.78.15-.22c-.06.89-.09,1.8-.12,2.72-.32,11.86,1.12,22.63,3.28,30.09.23.95.54,1.82.82,2.65s.51,1.63.79,2.35c.6,1.42,1,2.67,1.52,3.65l1.11,2.25A6.6,6.6,0,0,1,200.11,334.2Z" transform="translate(-67.29 -49.28)"/><path class="cls-7" d="M181.19,372.14a4.39,4.39,0,0,1-.23-.78q-.21-.86-.57-2.28c-.25-1-.54-2.2-.82-3.62s-.64-3-.93-4.82-.65-3.76-.92-5.88-.54-4.4-.8-6.79c-.43-4.8-.72-10.09-.73-15.65s.34-10.85.79-15.64c.27-2.39.49-4.67.82-6.79s.63-4.09.95-5.88.66-3.4.95-4.82.57-2.63.83-3.61l.57-2.27a4.8,4.8,0,0,1,.24-.79,4.61,4.61,0,0,1-.13.81c-.12.57-.28,1.34-.49,2.29s-.48,2.21-.74,3.63-.6,3-.87,4.83-.62,3.75-.88,5.87-.52,4.39-.77,6.77c-.43,4.79-.72,10.06-.75,15.61s.28,10.81.69,15.6c.24,2.38.45,4.66.75,6.77s.56,4.09.86,5.88.59,3.41.85,4.83.51,2.64.73,3.63.35,1.72.47,2.29A4.92,4.92,0,0,1,181.19,372.14Z" transform="translate(-67.29 -49.28)"/><path class="cls-7" d="M187.71,420.92a10.83,10.83,0,0,1-1.17,2.43,39.37,39.37,0,0,1-8.21,10,11.19,11.19,0,0,1-2.15,1.63,19.24,19.24,0,0,1,1.9-1.9,55.62,55.62,0,0,0,8.15-9.94A19.3,19.3,0,0,1,187.71,420.92Z" transform="translate(-67.29 -49.28)"/><path class="cls-3" d="M298.49,261.07a33.17,33.17,0,0,1,20.38,23.6c7.88,34.76,21.38,81,21.59,95.92.27,19-8,32-18.88,34.41-8.58,1.9-86.33-2.36-86.33-2.36l-3.63-29,63-9.27L286,326.24l8.54-66.72Z" transform="translate(-67.29 -49.28)"/><path class="cls-3" d="M294.49,259.52l-17.41-7.11-18.35-10.76-.12,3.15h0a18.4,18.4,0,0,1,2.18,12.76l-15.27,79.66L249,395.43l7.1,57h55.22L286,392.82l8.95-80.39Z" transform="translate(-67.29 -49.28)"/><path class="cls-7" d="M310.61,415.49l-.37.05-1.11.11c-1,.1-2.44.09-4.31.14-3.75,0-9.18-.08-15.95-.3-13.53-.45-32.37-1.36-53.63-2.59H235l0-.22c-.44-3.45-.89-7.09-1.36-10.78-.78-6.25-1.54-12.35-2.27-18.18l0-.25.25,0,48.08-7,14.11-2,3.8-.51,1-.13.33,0a1.51,1.51,0,0,1-.32.07l-1,.17-3.78.6-14.1,2.15-48,7.17.21-.29c.73,5.84,1.5,11.93,2.29,18.18.46,3.7.92,7.34,1.35,10.79l-.24-.23c21.26,1.25,40.09,2.22,53.61,2.77,6.77.26,12.2.41,15.94.45,1.87,0,3.32,0,4.3-.05l1.11-.06Z" transform="translate(-67.29 -49.28)"/><path class="cls-7" d="M285.45,321.37a2.39,2.39,0,0,1,.13.53c.09.41.19.92.31,1.55.26,1.41.61,3.34,1,5.69l3.27,18.8c1.23,7.32,2.33,13.94,3.14,18.83.37,2.36.67,4.29.9,5.71.08.63.16,1.15.21,1.56a1.76,1.76,0,0,1,0,.55,3.52,3.52,0,0,1-.14-.53c-.08-.41-.19-.92-.31-1.54-.27-1.42-.62-3.34-1.06-5.69-.87-4.81-2-11.45-3.29-18.8s-2.35-14-3.12-18.83c-.37-2.36-.66-4.3-.88-5.72-.09-.63-.15-1.15-.21-1.56A1.91,1.91,0,0,1,285.45,321.37Z" transform="translate(-67.29 -49.28)"/><path class="cls-7" d="M266.73,247.26a.8.8,0,0,1,.07.2l.16.58c.13.52.36,1.27.56,2.27a70.29,70.29,0,0,1,1.33,8.57,97.53,97.53,0,0,1,.33,13.08c-.17,5-.7,10.47-1.45,16.3l0,.18-.18,0-5.69,1,.19-.35c.32.88.66,1.82.92,2.79a35.45,35.45,0,0,1-.65,19.31,61.25,61.25,0,0,1-6.68,14.4c-2.38,3.86-4.53,6.82-6,8.87l-1.73,2.34-.46.6a2.49,2.49,0,0,1-.17.2s0-.08.13-.23l.41-.63,1.65-2.4c1.42-2.08,3.52-5.07,5.85-8.94a61.72,61.72,0,0,0,6.54-14.34c1.65-5.67,2.43-12.41.61-19-.26-1-.59-1.88-.9-2.74l-.11-.29.3-.06,5.69-1-.2.22c.76-5.81,1.3-11.29,1.5-16.25a102.34,102.34,0,0,0-.21-13,79.28,79.28,0,0,0-1.18-8.57c-.17-1-.37-1.76-.47-2.28,0-.24-.08-.43-.11-.59A1,1,0,0,1,266.73,247.26Z" transform="translate(-67.29 -49.28)"/><path class="cls-4" d="M266.73,329V316.27s.17-3.13-2.47-2.47-2.15,5.61-2.15,5.61-.5,19.31.66,19.15,1.6-1.66,1.6-1.66v-7.42Z" transform="translate(-67.29 -49.28)"/><path class="cls-7" d="M277.72,329.77a43.86,43.86,0,0,1-6.81.26,43.86,43.86,0,0,1-6.81-.26,45.4,45.4,0,0,1,6.81-.26A45.4,45.4,0,0,1,277.72,329.77Z" transform="translate(-67.29 -49.28)"/><path class="cls-7" d="M302.87,268.61a9.9,9.9,0,0,1-1.43.53,32.06,32.06,0,0,0-3.77,1.63,29.39,29.39,0,0,0-10.22,8.71,21.82,21.82,0,0,0-2,3.27,21.26,21.26,0,0,0-1.21,3.36,33.9,33.9,0,0,0-1,6c-.15,1.73-.18,3.15-.19,4.12a15,15,0,0,1,0,1.52,6.11,6.11,0,0,1-.17-1.52,38.5,38.5,0,0,1,0-4.15,31.75,31.75,0,0,1,.92-6.1,21,21,0,0,1,1.21-3.46,21.44,21.44,0,0,1,2-3.36,28.29,28.29,0,0,1,10.47-8.73,26.55,26.55,0,0,1,3.88-1.5A7.49,7.49,0,0,1,302.87,268.61Z" transform="translate(-67.29 -49.28)"/><polygon class="cls-7" points="11.47 325 102.42 358.68 179.1 370.4 87.94 325.96 11.47 325"/><path class="cls-8" d="M117.69,410.6a38.73,38.73,0,0,0-4.85-13.78,10.63,10.63,0,0,1-1.24-2.59,3,3,0,0,1,.52-2.71c1.17-1.27,3.3-.71,4.73.25a16.73,16.73,0,0,1,6.13,8.58,49.16,49.16,0,0,1,2,10.51" transform="translate(-67.29 -49.28)"/><path class="cls-8" d="M153.14,401.94h-4.52a8.86,8.86,0,0,0-4-2.28,3.14,3.14,0,0,0-3,1.17c2-3.33,4.2-7,4.62-8,.81-1.95-1-3.41-3.91-3.41s-15.79,18.23-15.79,18.23,8-14.67,8.77-16.91c1.93-5.6-4.19-6-6.41-3.31-2.76,3.35-13.92,20.22-13.92,20.22s-2.11,3.42-.65,6.67,5.7,2,5.7,2a5.47,5.47,0,0,0,3,4.52c3.27,1.82,7.57-.29,7.57-.29l16.63,3.74,6-.6A18.48,18.48,0,0,0,169.72,408h0Z" transform="translate(-67.29 -49.28)"/><path class="cls-10" d="M141.93,400.57c.18.12-2,3.6-4.9,7.78-1.44,2.09-2.77,4-3.76,5.3a13.26,13.26,0,0,1-1.68,2.1,13.57,13.57,0,0,1,1.38-2.31c.91-1.39,2.19-3.3,3.63-5.39s2.75-4,3.72-5.32l1.15-1.59A3.76,3.76,0,0,1,141.93,400.57Z" transform="translate(-67.29 -49.28)"/><path class="cls-10" d="M140.93,419.13a15.14,15.14,0,0,1,1.48-2.72c1-1.64,2.38-3.88,3.92-6.35.76-1.23,1.5-2.41,2.11-3.5a4,4,0,0,0,.36-3.09,7.49,7.49,0,0,0-1.42-2.65s.28.14.65.54a5.31,5.31,0,0,1,1.13,2,4.33,4.33,0,0,1-.3,3.41c-.59,1.13-1.32,2.32-2.09,3.56-1.54,2.48-3,4.68-4.05,6.27A21.86,21.86,0,0,1,140.93,419.13Z" transform="translate(-67.29 -49.28)"/><path class="cls-10" d="M149.68,420.79a9.47,9.47,0,0,1,.88-2.59l1.19-2.72a21.21,21.21,0,0,0,1.22-3.35,3.93,3.93,0,0,0-.52-3.26,3.23,3.23,0,0,0-1.19-.84,3.29,3.29,0,0,0-1.24-.35,4.89,4.89,0,0,0-1.79.63,2,2,0,0,1-.69.28s.19-.19.59-.46a7.87,7.87,0,0,1,.74-.45,3.05,3.05,0,0,1,1.15-.37,3.65,3.65,0,0,1,1.41.32,3.4,3.4,0,0,1,1.39.94,4.29,4.29,0,0,1,.66,3.67,19.14,19.14,0,0,1-1.29,3.44c-.47,1-.92,1.91-1.29,2.67C150.14,419.86,149.75,420.81,149.68,420.79Z" transform="translate(-67.29 -49.28)"/><path class="cls-10" d="M152.74,405.05a1.8,1.8,0,0,1,.71.21,8.43,8.43,0,0,1,1.74,1,9.48,9.48,0,0,1,2.69,12.06,8.12,8.12,0,0,1-1.14,1.67c-.32.35-.52.51-.55.49a26.4,26.4,0,0,0,1.36-2.32A9.64,9.64,0,0,0,155,406.57,24.88,24.88,0,0,0,152.74,405.05Z" transform="translate(-67.29 -49.28)"/><path class="cls-10" d="M123.45,395.48a48.84,48.84,0,0,1-3.77,6,48.68,48.68,0,0,1-4.2,5.74,48.84,48.84,0,0,1,3.77-6A48.68,48.68,0,0,1,123.45,395.48Z" transform="translate(-67.29 -49.28)"/><path class="cls-8" d="M231.35,384.76,221,382.41,211,373a7.12,7.12,0,0,0-4.45-1.92l-18.17-1a7.08,7.08,0,0,0-5,1.66l-13,11L227,410.3l7.78.69Z" transform="translate(-67.29 -49.28)"/><path class="cls-10" d="M200.54,379.91c0,.08-1.35-.17-3.5-.44s-5.24-.53-8.23.86a20.91,20.91,0,0,0-3.92,2.45c-1.15.86-2.18,1.66-3.09,2.27a16.44,16.44,0,0,1-2.25,1.31,3.23,3.23,0,0,1-.9.33c0-.08,1.2-.63,2.93-1.94.88-.64,1.88-1.47,3-2.36a20.33,20.33,0,0,1,4-2.54,11.77,11.77,0,0,1,4.64-1,20.75,20.75,0,0,1,3.85.3c1.08.17,1.95.37,2.54.52A2.92,2.92,0,0,1,200.54,379.91Z" transform="translate(-67.29 -49.28)"/><path class="cls-10" d="M204.27,390c0,.08-.75-.25-2-.38a10.56,10.56,0,0,0-4.68.66,24.35,24.35,0,0,0-4.28,2.19,9.06,9.06,0,0,1-1.76,1,7,7,0,0,1,1.56-1.3,18.57,18.57,0,0,1,4.3-2.37,9.59,9.59,0,0,1,4.91-.53A3.77,3.77,0,0,1,204.27,390Z" transform="translate(-67.29 -49.28)"/><path class="cls-10" d="M227.66,391.71a57.86,57.86,0,0,1-3.53-4.68c-1.92-2.59-3.58-4.61-3.47-4.71a35.31,35.31,0,0,1,7,9.39Z" transform="translate(-67.29 -49.28)"/><path class="cls-4" d="M199,371.11l23-21.45a2.21,2.21,0,0,0-.16-3.36h0a2.2,2.2,0,0,0-2.81.11l-27,24.22" transform="translate(-67.29 -49.28)"/><g class="cls-5"><path d="M199,371.11l23-21.45a2.21,2.21,0,0,0-.16-3.36h0a2.2,2.2,0,0,0-2.81.11l-27,24.22" transform="translate(-67.29 -49.28)"/></g><path class="cls-12" d="M387.26,164.37c-.35-.14-14.3-3.8-13.46,10.31s14.83,10.35,14.83,9.94S387.26,164.37,387.26,164.37Z" transform="translate(-67.29 -49.28)"/><path class="cls-13" d="M384,179.54c-.06,0-.23.18-.64.4a2.41,2.41,0,0,1-1.83.14c-1.52-.45-2.92-2.74-3.14-5.28a8.09,8.09,0,0,1,.48-3.56,2.85,2.85,0,0,1,1.73-2,1.24,1.24,0,0,1,1.49.59c.22.38.14.67.22.69s.29-.26.14-.83a1.57,1.57,0,0,0-.61-.85,1.82,1.82,0,0,0-1.38-.28A3.48,3.48,0,0,0,378,170.9a8.34,8.34,0,0,0-.61,4c.26,2.84,1.87,5.41,3.95,5.88a2.63,2.63,0,0,0,2.22-.51C384,179.88,384.05,179.56,384,179.54Z" transform="translate(-67.29 -49.28)"/><path class="cls-7" d="M422.49,114c7.16,0,14.46,0,23.43,4.69,5.66,3,9.19,7.63,12.14,13.29a30.72,30.72,0,0,1,3.34,14.89c-.26,4.88-.28,8.29-2.23,12.77" transform="translate(-67.29 -49.28)"/><path class="cls-12" d="M419.62,115.09A38,38,0,0,1,460.26,151c.93,17.68,1.74,36.79,1.54,46.41-.42,20.66-21.1,23.71-21.1,23.71s.45,6.12,1,13.72a27.21,27.21,0,0,1-26.11,29h0a27.2,27.2,0,0,1-28.22-26.18l-3.08-83.26a38.05,38.05,0,0,1,35.37-39.35Z" transform="translate(-67.29 -49.28)"/><path class="cls-13" d="M440.7,221.14s-12.7.66-26.51-8.17c0,0,6.25,15,26.88,13.34Z" transform="translate(-67.29 -49.28)"/><path class="cls-7" d="M452.35,162.52a2.94,2.94,0,0,1-2.87,2.95,2.82,2.82,0,0,1-3-2.68,3,3,0,0,1,2.87-3A2.83,2.83,0,0,1,452.35,162.52Z" transform="translate(-67.29 -49.28)"/><path class="cls-7" d="M455.21,158.34c-.37.38-2.59-1.29-5.76-1.31s-5.52,1.56-5.86,1.17c-.17-.18.21-.87,1.23-1.6a8.14,8.14,0,0,1,4.69-1.41,7.76,7.76,0,0,1,4.59,1.53C455.07,157.47,455.39,158.17,455.21,158.34Z" transform="translate(-67.29 -49.28)"/><path class="cls-7" d="M421.22,162.52a2.94,2.94,0,0,1-2.87,2.95,2.81,2.81,0,0,1-3-2.68,3,3,0,0,1,2.87-3A2.83,2.83,0,0,1,421.22,162.52Z" transform="translate(-67.29 -49.28)"/><path class="cls-7" d="M424,158.68c-.37.39-2.59-1.29-5.76-1.3s-5.52,1.55-5.86,1.16c-.17-.17.21-.87,1.23-1.6a8.11,8.11,0,0,1,4.69-1.4,7.76,7.76,0,0,1,4.59,1.52C423.86,157.82,424.18,158.51,424,158.68Z" transform="translate(-67.29 -49.28)"/><path class="cls-7" d="M435.34,182.32c0-.18,2-.51,5.16-.89.81-.08,1.58-.23,1.72-.78a4.14,4.14,0,0,0-.52-2.41l-2.35-6.19c-3.26-8.82-5.61-16.06-5.26-16.19s3.29,6.91,6.55,15.73c.78,2.17,1.53,4.24,2.25,6.23a4.64,4.64,0,0,1,.39,3.18,2,2,0,0,1-1.34,1.17,5.74,5.74,0,0,1-1.38.19C437.34,182.5,435.35,182.5,435.34,182.32Z" transform="translate(-67.29 -49.28)"/><path class="cls-7" d="M426,184.44c.51,0,.49,3.42,3.42,5.89s6.6,2.12,6.63,2.6c0,.22-.83.67-2.38.7a8.58,8.58,0,0,1-5.53-2,7.44,7.44,0,0,1-2.65-4.94C425.35,185.27,425.74,184.42,426,184.44Z" transform="translate(-67.29 -49.28)"/><path class="cls-7" d="M424.92,146.25c-.32.86-3.49.43-7.21.85s-6.75,1.41-7.24.63c-.22-.37.31-1.18,1.53-2a12.13,12.13,0,0,1,5.38-1.83,11.91,11.91,0,0,1,5.63.71C424.38,145.16,425.06,145.84,424.92,146.25Z" transform="translate(-67.29 -49.28)"/><path class="cls-7" d="M454.77,147c-.57.72-2.75,0-5.38-.11s-4.86.45-5.36-.31c-.23-.37.13-1.09,1.11-1.76a7.75,7.75,0,0,1,8.65.34C454.72,146,455,146.69,454.77,147Z" transform="translate(-67.29 -49.28)"/><path class="cls-7" d="M384.49,160.89s.9,4.78,1.14,6.93c.09.79,0,9.54,2.11,10,1.83.38,5.47-1.29,7.09-4.91s4.69-12.31,4.36-16.26c-.45-5.38-.7-10.86.37-16.16s3.61-10.46,7.87-13.8,10.4-4.49,15.23-2.07c3,1.5,5.22,4.15,8,6a12.41,12.41,0,0,0,8.52,2.21,8,8,0,0,0,6.58-5.4c.89-3.15-.74-6.6-3.26-8.69s-5.78-3-9-3.69a48.4,48.4,0,0,0-26.82,1.88c-8.46,3.29-16,9.61-19.59,17.94-4.19,9.63-3.7,15.54-2.6,26" transform="translate(-67.29 -49.28)"/><path class="cls-7" d="M431.72,162.65a24.26,24.26,0,0,0-.54-3.4,14,14,0,0,0-5.12-7.61,13.69,13.69,0,0,0-5.83-2.56,13.9,13.9,0,0,0-7.25.61,13,13,0,0,0-3.49,1.89,12.85,12.85,0,0,0-2.91,2.93,13.72,13.72,0,0,0,0,16.29,13.26,13.26,0,0,0,2.91,2.93,13,13,0,0,0,3.49,1.88,13.9,13.9,0,0,0,7.25.62,13.7,13.7,0,0,0,5.83-2.57,14,14,0,0,0,5.12-7.61,24,24,0,0,0,.54-3.4.82.82,0,0,1,0,.23v.67a6.7,6.7,0,0,1-.09,1.09,10.55,10.55,0,0,1-.26,1.46,14.14,14.14,0,0,1-18.56,10,13.05,13.05,0,0,1-3.62-1.93,13.2,13.2,0,0,1-3-3,14.19,14.19,0,0,1,0-16.9,14.42,14.42,0,0,1,6.65-5,14.27,14.27,0,0,1,7.49-.59,14.14,14.14,0,0,1,11.07,10.55,10.67,10.67,0,0,1,.26,1.47,6.59,6.59,0,0,1,.09,1.08v.67A.77.77,0,0,1,431.72,162.65Z" transform="translate(-67.29 -49.28)"/><path class="cls-7" d="M468.08,162.65a24.26,24.26,0,0,0-.54-3.4,14,14,0,0,0-5.11-7.61,13.73,13.73,0,0,0-5.84-2.56,13.9,13.9,0,0,0-7.25.61,12.84,12.84,0,0,0-3.48,1.89,12.69,12.69,0,0,0-2.92,2.93,13.76,13.76,0,0,0,0,16.29,13.09,13.09,0,0,0,2.92,2.93,12.8,12.8,0,0,0,3.48,1.88,13.93,13.93,0,0,0,7.26.62,13.75,13.75,0,0,0,5.83-2.57,14,14,0,0,0,5.11-7.61,24,24,0,0,0,.54-3.4.6.6,0,0,1,0,.23c0,.18,0,.4,0,.67a6.7,6.7,0,0,1-.09,1.09,9.24,9.24,0,0,1-.26,1.46,14.09,14.09,0,0,1-11.07,10.55,14.17,14.17,0,0,1-7.49-.59,13.2,13.2,0,0,1-3.62-1.93,13.4,13.4,0,0,1-3-3,14.19,14.19,0,0,1,0-16.9,14.42,14.42,0,0,1,6.65-5,14.27,14.27,0,0,1,7.49-.59,14.12,14.12,0,0,1,6,2.7,14,14,0,0,1,5.09,7.85,9.34,9.34,0,0,1,.26,1.47,6.59,6.59,0,0,1,.09,1.08c0,.27,0,.49,0,.67S468.09,162.65,468.08,162.65Z" transform="translate(-67.29 -49.28)"/><path class="cls-7" d="M440.34,161.15c0,.08-.51-.18-1.3-.44a8.41,8.41,0,0,0-3.18-.41,8.69,8.69,0,0,0-3.1.82c-.75.37-1.17.69-1.23.62s.31-.47,1.05-.94a7.2,7.2,0,0,1,6.59-.44A2.79,2.79,0,0,1,440.34,161.15Z" transform="translate(-67.29 -49.28)"/><path class="cls-7" d="M446,126.3c.2-1.07-.15-1.67.45-2.11s2,.81,2.47,1.34c.15.16.64-.49.83-.61a3.65,3.65,0,0,0,.36-1.37c-.09-.75-1.26-1-1.82-1.46a5.51,5.51,0,0,0-1.94-1.11,1.9,1.9,0,0,0-1.87.11,1.82,1.82,0,0,0-.41,1.4,3.83,3.83,0,0,0,.28,1.46,2.05,2.05,0,0,0,1,1.06" transform="translate(-67.29 -49.28)"/><path class="cls-3" d="M383.73,149.91s10.12,3.71,15.4,6l-.3-5.18-14.74-5.83S383.72,148.7,383.73,149.91Z" transform="translate(-67.29 -49.28)"/><path class="cls-3" d="M384.67,141.86a57,57,0,0,1,7.17,2.75,56.26,56.26,0,0,1,7,3.23,57,57,0,0,1-7.17-2.75A58,58,0,0,1,384.67,141.86Z" transform="translate(-67.29 -49.28)"/><path class="cls-4" d="M387.73,251l-.79-24.51s4.87,22.43,30.38,22.14c24.38-.28,23.94-19.76,23.94-19.76l.87,9.88v39.91l-15.91,65.11-20.3,2.58-22.44-89Z" transform="translate(-67.29 -49.28)"/><path class="cls-7" d="M439,243.14a3,3,0,0,1-.3.52,12.7,12.7,0,0,1-1,1.42,21.26,21.26,0,0,1-4.54,4.4,26.08,26.08,0,0,1-8.49,4,30,30,0,0,1-11.44.79,37.4,37.4,0,0,1-11-3.31,47.48,47.48,0,0,1-8-4.84,56.57,56.57,0,0,1-4.86-4c-.55-.5-.95-.92-1.23-1.2a3.26,3.26,0,0,1-.41-.44s.18.11.48.37l1.29,1.12c1.13,1,2.79,2.33,4.95,3.88a49.74,49.74,0,0,0,8,4.7,37.47,37.47,0,0,0,10.86,3.22,30.12,30.12,0,0,0,11.25-.73,26.78,26.78,0,0,0,8.39-3.82,22.34,22.34,0,0,0,4.6-4.23C438.5,243.8,438.94,243.11,439,243.14Z" transform="translate(-67.29 -49.28)"/><path class="cls-3" d="M421.29,452.4l-.37-115.7-32.86-84.45L387,226.83l-20,15.15s-29.15,100.32-29.6,96.85,0,113.57,0,113.57Z" transform="translate(-67.29 -49.28)"/><path class="cls-7" d="M420.5,452.08c-.15,0-.26-26.07-.26-58.23s.11-58.23.26-58.23.26,26.07.26,58.23S420.64,452.08,420.5,452.08Z" transform="translate(-67.29 -49.28)"/><polygon class="cls-1" points="299.93 209.22 304 212.3 301.14 231.02 349.1 281.26 305.54 224.05 309.25 209.22 299.93 209.22"/><path class="cls-3" d="M423.08,393.13l-73.6-21.58L347,315.64,367.23,242s-48.13,24-51.4,39.28-11.17,52.42-12,79.27c-.75,24-.86,40,4.62,47.71,15.69,21.94,119.13,25.86,160.46,0" transform="translate(-67.29 -49.28)"/><path class="cls-7" d="M417.32,331.75a1.54,1.54,0,0,1-.24-.27l-.66-.82-2.5-3.2-9.12-11.84c-7.67-10.05-18.24-23.89-29.92-39.17l-2.25-3-.08-.1,0-.12c1.29-5.12,2.53-10.09,3.72-14.83l.25.31H367v-.24c0-6.05,0-11.6,0-16.52v-.1l.08-.06,14.46-11,4-3,1-.77a3,3,0,0,1,.37-.25,3.06,3.06,0,0,1-.34.3l-1,.81-3.9,3.06-14.36,11.13.08-.15c0,4.92,0,10.47,0,16.52l-.23-.23,9.32,0h.32l-.08.32-3.7,14.83,0-.22c.75,1,1.5,2,2.25,2.95L405.1,315.4l9,11.93,2.43,3.26c.26.36.46.65.62.86A1.91,1.91,0,0,1,417.32,331.75Z" transform="translate(-67.29 -49.28)"/><path class="cls-3" d="M450.14,237.62c-5.88-10.26-8.92-9.2-8.92-9.2l.31,3.66v7.69l-2.78,33-17.83,71.69.37,107.94H488.7l8.39-131.76-.77-56.77Z" transform="translate(-67.29 -49.28)"/><path class="cls-3" d="M496.32,263.87s17.45,12.88,19,33.61c1.23,16.83,4.05,62.92,4.56,72.95.79,15.62-11.37,52.21-43.05,41.85-19-6.22-89.18-30.07-89.18-30.07l4.66-29.81,83.31,5,1.65-69.48Z" transform="translate(-67.29 -49.28)"/><path class="cls-12" d="M391.33,355.83s-23.58-2.55-29-1.23c-5.25,1.27-12.72,7.69-12.72,7.69l.1,9.31,37.94,10.61Z" transform="translate(-67.29 -49.28)"/><path class="cls-7" d="M420.92,333.68a1.2,1.2,0,0,1,.1-.32l.36-.92c.33-.84.8-2,1.41-3.52,1.26-3.09,3-7.49,5.27-12.92S433,304.05,436,296.86c.75-1.79,1.49-3.66,2.41-5.49s1.94-3.66,3-5.49a122.65,122.65,0,0,1,7.49-10.8c1.36-1.76,2.73-3.46,4.15-5.1l0,.26q-1.5-3.81-2.93-7.46l-.1-.25.25-.09,12.29-4.18-.13.35-13.93-23.26c-1.69-2.82-3.13-5.08-4.65-6a6.24,6.24,0,0,0-1.87-.75,5.7,5.7,0,0,1-.68-.17,6.06,6.06,0,0,1,.7.09,5.9,5.9,0,0,1,1.92.71,8.41,8.41,0,0,1,2.37,2.29,43.42,43.42,0,0,1,2.45,3.68l14.1,23.18.15.25-.28.09-12.28,4.21.16-.33,2.94,7.46.06.15-.1.12c-1.4,1.62-2.77,3.33-4.13,5.08a123.08,123.08,0,0,0-7.46,10.75c-1.08,1.82-2.13,3.61-3,5.44s-1.66,3.65-2.42,5.45l-8,19.1c-2.28,5.4-4.13,9.79-5.43,12.85l-1.5,3.49c-.16.38-.3.67-.4.9A1.26,1.26,0,0,1,420.92,333.68Z" transform="translate(-67.29 -49.28)"/><path class="cls-7" d="M505.9,406.48l-.3.31-.89.87a26.45,26.45,0,0,1-3.83,2.9,25.69,25.69,0,0,1-7,2.94,28.21,28.21,0,0,1-10,.64,32,32,0,0,1-5.75-1.22c-1.95-.62-3.91-1.39-6-2.11-4.12-1.5-8.53-3.05-13.18-4.68-9.29-3.26-19.54-6.74-30.34-10.29C407,388.75,387.28,382.77,373,378.5l-16.92-5-4.6-1.37-1.19-.37a1.69,1.69,0,0,1-.4-.14,2.18,2.18,0,0,1,.41.09l1.21.32,4.63,1.27c4,1.12,9.81,2.77,17,4.85,14.31,4.17,34,10.1,55.64,17.2,10.8,3.54,21.05,7,30.34,10.32,4.65,1.65,9.06,3.22,13.17,4.73,2.06.73,4,1.52,6,2.14a30.77,30.77,0,0,0,5.66,1.23,28.21,28.21,0,0,0,9.93-.55,26.31,26.31,0,0,0,7-2.83,28.36,28.36,0,0,0,3.86-2.81l.93-.83A2.28,2.28,0,0,1,505.9,406.48Z" transform="translate(-67.29 -49.28)"/><path class="cls-7" d="M349.67,371.77c0,.11-1.32-.18-3.43-.09a15.19,15.19,0,0,0-3.65.6,16.72,16.72,0,0,0-4.1,1.87,19.11,19.11,0,0,0-5.7,5.86c-1.12,1.8-1.6,3-1.69,3a2.7,2.7,0,0,1,.28-.89,15.18,15.18,0,0,1,1.09-2.3,18.06,18.06,0,0,1,5.74-6.11,16.13,16.13,0,0,1,4.25-1.89,14.83,14.83,0,0,1,3.77-.51,12.27,12.27,0,0,1,2.54.23A3.12,3.12,0,0,1,349.67,371.77Z" transform="translate(-67.29 -49.28)"/><path class="cls-7" d="M326.48,364.47a.75.75,0,0,1,.1-.27,2.64,2.64,0,0,1,.46-.65,4.69,4.69,0,0,1,2.62-1.3,13.29,13.29,0,0,1,4.32,0,24.5,24.5,0,0,1,5.13,1.25,22.52,22.52,0,0,1,8.13,5,17.78,17.78,0,0,1,1.89,2.21,4,4,0,0,1,.54.91c-.08.07-.9-1.21-2.68-2.85a24,24,0,0,0-8.06-4.75,27,27,0,0,0-5-1.27,14,14,0,0,0-4.19-.12,4.86,4.86,0,0,0-2.54,1.08C326.69,364.14,326.53,364.49,326.48,364.47Z" transform="translate(-67.29 -49.28)"/><path class="cls-7" d="M354,300.25a7.85,7.85,0,0,1-.34-1.51c-.15-.48-.37-1.05-.59-1.71s-.64-1.38-1.09-2.14a30.15,30.15,0,0,0-3.76-5,40.68,40.68,0,0,0-5.74-5.06,34.66,34.66,0,0,0-12.57-5.77,26.38,26.38,0,0,0-4.19-.54,9.62,9.62,0,0,1-1.56-.12,8.9,8.9,0,0,1,1.57-.08,21.36,21.36,0,0,1,4.25.38,33,33,0,0,1,12.8,5.71,38.34,38.34,0,0,1,5.8,5.15,28.75,28.75,0,0,1,3.72,5.14c.44.78.74,1.56,1,2.21s.4,1.28.52,1.77A10.55,10.55,0,0,1,354,300.25Z" transform="translate(-67.29 -49.28)"/><path class="cls-7" d="M493.71,385.75a1.48,1.48,0,0,1,0-.36l0-1.05c0-.92-.06-2.27-.19-4a56.1,56.1,0,0,0-3-14.41,20.88,20.88,0,0,0-2-4.4,8.63,8.63,0,0,0-3.9-3.31c-3.35-1.44-7.38-1.25-11.48-1.48l-26.85-1.13c-22.18-1-41.91-1.8-54.3-2.46l.16-.14c-.75,4.56-1.34,8.17-1.75,10.68-.21,1.21-.37,2.15-.49,2.82-.06.3-.1.54-.14.73s-.05.25-.06.24a2.43,2.43,0,0,1,0-.25l.09-.73c.1-.67.23-1.62.41-2.84.38-2.51.92-6.13,1.61-10.7l0-.14H392l54.32,2.26,26.84,1.17c2.06.1,4.07.15,6,.31a17.59,17.59,0,0,1,5.6,1.25,9.12,9.12,0,0,1,4.07,3.49,20.31,20.31,0,0,1,2,4.5,54.12,54.12,0,0,1,2.82,14.52c.1,1.74.11,3.1.1,4q0,.66,0,1.05A1.77,1.77,0,0,1,493.71,385.75Z" transform="translate(-67.29 -49.28)"/><path class="cls-7" d="M477.83,320.53c.14,0,.26,8.07.26,18s-.12,18-.26,18-.26-8.07-.26-18S477.68,320.53,477.83,320.53Z" transform="translate(-67.29 -49.28)"/><path class="cls-7" d="M316.41,279.46s-.06.23-.21.66-.39,1.08-.6,1.95c-.48,1.74-1.1,4.32-1.79,7.69-1.39,6.74-3.11,16.6-5,28.94-1,6.17-2,13-3,20.31-.51,3.67-.83,7.49-1.09,11.45s-.48,8-.63,12.24c-.3,8.41-.48,17.29-.24,26.54.07,2.31.16,4.65.35,7,.06,1.18.25,2.34.4,3.51a27.14,27.14,0,0,0,.85,3.45,19.82,19.82,0,0,0,3.31,6.34,14.3,14.3,0,0,0,5.69,4.38h0a86.62,86.62,0,0,0,14.83,5.66c5.17,1.55,10.51,2.8,15.93,3.91a218.93,218.93,0,0,0,35.8,4.36,166.27,166.27,0,0,0,17.09-.44c5.57-.39,11-1,16.25-1.75a170.93,170.93,0,0,0,29.16-6.78,149,149,0,0,0,23.58-10.12l0,.33-32.34-11.45-8.71-3.11-2.26-.82-.76-.3.78.25,2.27.77,8.74,3,32.4,11.3.38.13-.35.2a148.64,148.64,0,0,1-23.62,10.2,170.61,170.61,0,0,1-29.22,6.85q-7.9,1.19-16.28,1.77a167.18,167.18,0,0,1-17.14.46A218.63,218.63,0,0,1,345.15,424c-5.44-1.12-10.79-2.37-16-3.93a87.3,87.3,0,0,1-14.92-5.7h0a14.72,14.72,0,0,1-5.92-4.54,20.24,20.24,0,0,1-3.4-6.5,29.12,29.12,0,0,1-.86-3.52c-.15-1.2-.35-2.38-.4-3.56-.19-2.37-.28-4.71-.35-7-.23-9.28,0-18.16.28-26.58q.24-6.3.65-12.25c.28-4,.6-7.8,1.12-11.47,1-7.35,2.06-14.14,3-20.31,2-12.34,3.74-22.19,5.18-28.92.72-3.37,1.37-6,1.88-7.68.23-.87.5-1.51.65-1.94S316.41,279.46,316.41,279.46Z" transform="translate(-67.29 -49.28)"/><path class="cls-1" d="M349.57,364.86c12.3-13.63,11.76-37.86,4.7-55.06-.65,18.63-2.85,35.15-4.53,53.25" transform="translate(-67.29 -49.28)"/><path class="cls-7" d="M354.3,313.29a3.93,3.93,0,0,1,0,.6c0,.45-.06,1-.11,1.7-.12,1.55-.29,3.66-.49,6.25-.44,5.34-1,12.59-1.7,20.61s-1.19,15.28-1.61,20.62c-.2,2.58-.36,4.7-.47,6.25l-.15,1.69a2.33,2.33,0,0,1-.09.59,2.65,2.65,0,0,1,0-.59c0-.45,0-1,.05-1.71.05-1.48.16-3.62.31-6.26.3-5.28.81-12.58,1.46-20.63s1.33-15.33,1.85-20.6c.27-2.58.5-4.7.66-6.24.08-.69.15-1.25.21-1.69A2.2,2.2,0,0,1,354.3,313.29Z" transform="translate(-67.29 -49.28)"/><path class="cls-7" d="M384.64,288.67c.14,0,.26,4.73.26,10.57s-.12,10.56-.26,10.56-.26-4.73-.26-10.56S384.5,288.67,384.64,288.67Z" transform="translate(-67.29 -49.28)"/><path class="cls-1" d="M376.62,323.78a10.73,10.73,0,0,0,2.27,5.6c1.15,1.51,3.5,3,5.4,2.87a8.23,8.23,0,0,0,7.26-3.65c2.31-3.66,2.88-11.29,1-15.8-1.27-3.1-4.13-6-7.48-6.07-4.4-.1-7.15,3.08-8.09,6.29" transform="translate(-67.29 -49.28)"/><path class="cls-7" d="M377,313a6.82,6.82,0,0,1,.81-2.15,8.9,8.9,0,0,1,1.65-2.17,7.86,7.86,0,0,1,5.21-2.16,6.35,6.35,0,0,1,2.29.3,9,9,0,0,1,4.08,2.93,11.77,11.77,0,0,1,2.4,5,21.54,21.54,0,0,1,.45,5.93c-.2,3.13-.82,6.25-2.55,8.63a7.8,7.8,0,0,1-3.32,2.5,9,9,0,0,1-3.76.63h0a5.72,5.72,0,0,1-2.69-.66,8.83,8.83,0,0,1-2-1.42,10.17,10.17,0,0,1-2.21-3.28,9.63,9.63,0,0,1-.69-2.43c0-.29-.06-.51-.07-.66a.82.82,0,0,1,0-.23,13.49,13.49,0,0,0,1,3.22,10.1,10.1,0,0,0,2.21,3.13,9.15,9.15,0,0,0,2,1.32,5.3,5.3,0,0,0,2.5.59h0a8,8,0,0,0,6.64-3c1.62-2.23,2.24-5.3,2.43-8.36.21-4-.45-7.94-2.7-10.6a8.68,8.68,0,0,0-3.85-2.82,6.14,6.14,0,0,0-2.14-.31,7.54,7.54,0,0,0-5,2A8.55,8.55,0,0,0,378,311,16.9,16.9,0,0,0,377,313Z" transform="translate(-67.29 -49.28)"/><path class="cls-1" d="M374.28,324a10.84,10.84,0,0,0,2.26,5.6c1.16,1.51,3.51,3,5.41,2.87a8.23,8.23,0,0,0,7.26-3.65c2.31-3.67,2.88-11.29,1-15.8-1.27-3.11-4.13-6-7.48-6.07-4.4-.1-7.15,3.08-8.09,6.29" transform="translate(-67.29 -49.28)"/><path class="cls-7" d="M374.67,313.22a6.43,6.43,0,0,1,.81-2.15,8.9,8.9,0,0,1,1.65-2.17,7.74,7.74,0,0,1,3.11-1.83,7.89,7.89,0,0,1,2.1-.33,6.27,6.27,0,0,1,2.28.3,8.94,8.94,0,0,1,4.09,2.93,11.77,11.77,0,0,1,2.4,5,21.54,21.54,0,0,1,.45,5.93c-.21,3.13-.82,6.24-2.55,8.63a7.8,7.8,0,0,1-3.32,2.5,9,9,0,0,1-3.76.63h0a5.68,5.68,0,0,1-2.7-.67,8.65,8.65,0,0,1-2-1.41,9.94,9.94,0,0,1-2.21-3.29,10.15,10.15,0,0,1-.7-2.42,5.25,5.25,0,0,1-.06-.66.82.82,0,0,1,0-.23,13.51,13.51,0,0,0,1,3.21,10,10,0,0,0,2.21,3.14,9.15,9.15,0,0,0,2,1.32,5.38,5.38,0,0,0,2.49.59h0a8,8,0,0,0,6.65-3c1.62-2.24,2.24-5.3,2.43-8.36.21-4-.45-7.95-2.7-10.6a8.66,8.66,0,0,0-3.85-2.82,6.14,6.14,0,0,0-2.14-.31,7.54,7.54,0,0,0-2,.29,7.34,7.34,0,0,0-3,1.69,8.55,8.55,0,0,0-1.67,2.05A16.07,16.07,0,0,0,374.67,313.22Z" transform="translate(-67.29 -49.28)"/><path class="cls-1" d="M378.52,312.1a5.15,5.15,0,0,0-5.37,3.09,8.87,8.87,0,0,0,0,6.53,8.09,8.09,0,0,0,1.66,2.94,4.44,4.44,0,0,0,3,1.45,5.19,5.19,0,0,0,4.13-2.44,9.26,9.26,0,0,0,1.41-7.67c-.45-1.74-1.73-3.51-3.52-3.56" transform="translate(-67.29 -49.28)"/><path class="cls-7" d="M379.83,312.44s.14,0,.4,0a2.69,2.69,0,0,1,1.08.37,5.3,5.3,0,0,1,2.29,3.44,9.5,9.5,0,0,1-.62,6.12,8,8,0,0,1-2.24,2.94,4.34,4.34,0,0,1-3.86.93,5.4,5.4,0,0,1-3.08-2.52,11.32,11.32,0,0,1-1.29-3.46,7.69,7.69,0,0,1,1-6A5.39,5.39,0,0,1,377,312a3.85,3.85,0,0,1,1.14,0c.26.05.39.09.38.11a7.79,7.79,0,0,0-1.48.09,5.35,5.35,0,0,0-3.23,2.23,7.46,7.46,0,0,0-.83,5.73,11.31,11.31,0,0,0,1.25,3.29,4.94,4.94,0,0,0,2.79,2.28,3.83,3.83,0,0,0,3.41-.82,7.75,7.75,0,0,0,2.12-2.74,9.3,9.3,0,0,0,.69-5.84,5.21,5.21,0,0,0-2-3.35A4.14,4.14,0,0,0,379.83,312.44Z" transform="translate(-67.29 -49.28)"/><path class="cls-7" d="M383.57,328.54c-.08,0-.19-.32-.53-.72a3.78,3.78,0,0,0-1.71-1.09,8.66,8.66,0,0,0-2.1-.33c-.56,0-.91-.09-.91-.16s.34-.15.91-.21a5.88,5.88,0,0,1,2.26.2,3.31,3.31,0,0,1,1.85,1.38C383.65,328.13,383.63,328.53,383.57,328.54Z" transform="translate(-67.29 -49.28)"/><path class="cls-7" d="M384.35,310.74s-.15.35-.62.72a4.82,4.82,0,0,1-2.1.92,5,5,0,0,1-2.3-.12c-.57-.19-.86-.41-.84-.47a11.83,11.83,0,0,0,3,.08A12.49,12.49,0,0,0,384.35,310.74Z" transform="translate(-67.29 -49.28)"/><path class="cls-7" d="M453.07,239.11s.12,0,.33.12a8.79,8.79,0,0,1,.88.46,17.22,17.22,0,0,1,3,2.14A21.53,21.53,0,0,1,463.72,252a65.11,65.11,0,0,1,2.45,11.86c.17,1.54.27,2.79.32,3.65a6.61,6.61,0,0,1,0,1.35,6.94,6.94,0,0,1-.23-1.33c-.13-1-.29-2.17-.49-3.62a76.4,76.4,0,0,0-2.58-11.76A22.17,22.17,0,0,0,457,242.1,34,34,0,0,0,453.07,239.11Z" transform="translate(-67.29 -49.28)"/><path class="cls-7" d="M440.61,349.18c2.9-.11,5.22-3,8.11-2.84a4,4,0,1,1-.68,8c-3-.35-4.82-3.92-7.81-4.6" transform="translate(-67.29 -49.28)"/><path class="cls-7" d="M465.19,351.65a17.27,17.27,0,0,1-2.72-.22l.16-1c3.59.57,6.59,0,8.95-1.75,3-2.17,4.86-6.06,5.67-11.56l0-.21c.32-2.18.78-44.95.78-53.07,0-12.69-11.14-14.42-11.61-14.49s-10.57-1.77-15.94,12.08c-5.62,14.51-14.61,42.47-15.21,45.75-.07.4-.18.89-.31,1.47-.93,4.2-2.88,12.93,2.95,17.95,6.49,5.61,11.61,3.44,11.82,3.35l.41.91c-.24.1-5.89,2.55-12.89-3.5C431,342,433,332.83,434,328.44c.12-.56.23-1,.3-1.43.6-3.3,9.62-31.38,15.26-45.93s16.92-12.73,17-12.7,12.45,1.9,12.45,15.47c0,6.69-.45,50.9-.79,53.22l0,.2c-.85,5.77-2.89,9.89-6.07,12.23A11.51,11.51,0,0,1,465.19,351.65Z" transform="translate(-67.29 -49.28)"/><path class="cls-7" d="M478.56,292a18.42,18.42,0,0,0-2.08-5,17.27,17.27,0,0,0-4-4.28,17,17,0,0,0-6.42-3,18.82,18.82,0,0,0-12.66,1.65,22.31,22.31,0,0,0-4.4,3.15,1.44,1.44,0,0,1,.23-.3,6.94,6.94,0,0,1,.75-.8,15.33,15.33,0,0,1,3.25-2.38,18.36,18.36,0,0,1,5.63-2,18.16,18.16,0,0,1,7.32.15,17.25,17.25,0,0,1,6.6,3.16,16.6,16.6,0,0,1,4,4.47,12.92,12.92,0,0,1,1.54,3.72,6.55,6.55,0,0,1,.2,1.08C478.57,291.89,478.58,292,478.56,292Z" transform="translate(-67.29 -49.28)"/><path class="cls-7" d="M504,372a31.86,31.86,0,0,0-1.37-4.26,18.63,18.63,0,0,0-6.78-8.14,14.71,14.71,0,0,0-5.51-2,47.15,47.15,0,0,0-4.84-.5l-3.29-.23a6.14,6.14,0,0,1-1.21-.16,5.16,5.16,0,0,1,1.22,0l3.3.06a41.65,41.65,0,0,1,4.9.4,14.77,14.77,0,0,1,5.71,2,18.09,18.09,0,0,1,6.84,8.44,15.89,15.89,0,0,1,.91,3.19A4.57,4.57,0,0,1,504,372Z" transform="translate(-67.29 -49.28)"/><path class="cls-12" d="M453.58,355.28s9.83-14.89,12.35-16.84,24-11.65,26.49-10.09,1,4.94,1,4.94,9.09-3.18,10.06-1.93a4.5,4.5,0,0,1,0,5.12s5-.77,5,.78a6.39,6.39,0,0,1-2.91,5.22c-2.32,1.74-17.4,11.78-18.61,14.56l-4.89-.3Z" transform="translate(-67.29 -49.28)"/><path class="cls-13" d="M481.88,351a3.73,3.73,0,0,1,.45-.94,17.22,17.22,0,0,1,1.62-2.32,26.83,26.83,0,0,1,7.13-6,53.88,53.88,0,0,1,8.43-4c1.12-.43,2-.75,2.66-1a4.22,4.22,0,0,1,1-.28,3.8,3.8,0,0,1-.93.47l-2.59,1.11a67.82,67.82,0,0,0-8.3,4.07,29.81,29.81,0,0,0-7.12,5.79C482.67,349.77,482,351.07,481.88,351Z" transform="translate(-67.29 -49.28)"/><path class="cls-13" d="M469.41,350.78a4.66,4.66,0,0,1,.47-1.09c.34-.69.84-1.68,1.52-2.88a27.3,27.3,0,0,1,2.71-4,12.85,12.85,0,0,1,2.06-2c.83-.56,1.7-1.08,2.6-1.62a73.14,73.14,0,0,1,9.6-4.79,28.13,28.13,0,0,1,3.09-1,5.51,5.51,0,0,1,1.18-.21c0,.09-1.63.47-4.13,1.59a90.36,90.36,0,0,0-9.47,4.89c-.9.53-1.78,1.06-2.59,1.59a13.4,13.4,0,0,0-2,1.93,31.15,31.15,0,0,0-2.76,3.9l-1.65,2.78A5.32,5.32,0,0,1,469.41,350.78Z" transform="translate(-67.29 -49.28)"/></svg>