<svg xmlns="http://www.w3.org/2000/svg" viewBox="0 0 65.17 65.17"><defs><style>.cls-1{fill:#85c441;}.cls-2{fill:#59814b;}</style></defs><g id="Layer_2" data-name="Layer 2"><g id="Layer_1-2" data-name="Layer 1"><path class="cls-1" d="M63.78,65.17H44.43a1.41,1.41,0,0,1-1-.41,1.39,1.39,0,0,1,1-2.37h18v-18a1.39,1.39,0,0,1,2.78,0V63.78a1.4,1.4,0,0,1-1.39,1.39Z"/><path class="cls-1" d="M63.78,22.14a1.38,1.38,0,0,1-1-.4,1.4,1.4,0,0,1-.41-1v-18h-18a1.41,1.41,0,0,1-1-.41,1.38,1.38,0,0,1-.4-1,1.38,1.38,0,0,1,.4-1,1.41,1.41,0,0,1,1-.41H63.78a1.4,1.4,0,0,1,1.39,1.39V20.76a1.4,1.4,0,0,1-.41,1A1.38,1.38,0,0,1,63.78,22.14Z"/><path class="cls-1" d="M20.74,65.17H1.39A1.4,1.4,0,0,1,0,63.78V44.41a1.39,1.39,0,0,1,2.78,0v18h18a1.34,1.34,0,0,1,1,.41,1.39,1.39,0,0,1-1,2.37Z"/><path class="cls-1" d="M1.39,22.14a1.38,1.38,0,0,1-1-.4,1.4,1.4,0,0,1-.41-1V1.39A1.4,1.4,0,0,1,1.39,0H20.74a1.39,1.39,0,0,1,0,2.78h-18v18a1.4,1.4,0,0,1-.41,1A1.38,1.38,0,0,1,1.39,22.14Z"/><path class="cls-2" d="M32.12,51.61a1.35,1.35,0,0,1-.73-.21,1.47,1.47,0,0,1-.52-.56,1.41,1.41,0,0,1-.13-.75,1.3,1.3,0,0,1,.28-.71,27.09,27.09,0,0,0,5.25-10.87c.56-2.95.17-5.37-1.08-6.63s-4.59-2.45-7-1.26a5.57,5.57,0,0,0-2.41,2.69,5.8,5.8,0,0,0,0,3.88,12.14,12.14,0,0,1,.28,4.91,12.33,12.33,0,0,1-3.38,6.41,1.4,1.4,0,0,1-1,.43,1.39,1.39,0,0,1-1.07-2.33,9.63,9.63,0,0,0,2.67-5,9.7,9.7,0,0,0-.26-3.88,8.58,8.58,0,0,1,.19-5.52A8.3,8.3,0,0,1,27,28.14a8.53,8.53,0,0,1,5.69-.56,9.34,9.34,0,0,1,4.5,2.35c1.92,1.95,2.57,5.18,1.83,9.1a30,30,0,0,1-5.78,12,1.6,1.6,0,0,1-.49.4A1.43,1.43,0,0,1,32.12,51.61Z"/><path class="cls-2" d="M27.22,50a1.36,1.36,0,0,1-.78-.24,1.4,1.4,0,0,1-.17-2.16A12.05,12.05,0,0,0,29.47,35a1.41,1.41,0,0,1-.07-.54,1.27,1.27,0,0,1,.14-.53,1.37,1.37,0,0,1,.33-.43,1.31,1.31,0,0,1,.47-.27,1.26,1.26,0,0,1,.54-.07,1.39,1.39,0,0,1,.53.14,1.58,1.58,0,0,1,.43.34,1.25,1.25,0,0,1,.26.48,14.85,14.85,0,0,1,.41,8,15.11,15.11,0,0,1-4.34,7.54A1.4,1.4,0,0,1,27.22,50Z"/><path class="cls-2" d="M38.42,49.1a1.36,1.36,0,0,1-.78-.24,1.41,1.41,0,0,1-.52-.64,1.42,1.42,0,0,1,.36-1.53c.33-.3.65-.63,1-.95a16,16,0,0,0,3.93-7.88,15.73,15.73,0,0,0-1.84-10.35,1.38,1.38,0,0,1-.17-.52,1.41,1.41,0,0,1,0-.54,1.49,1.49,0,0,1,.24-.49,1.57,1.57,0,0,1,.42-.35,1.34,1.34,0,0,1,.51-.17,1.4,1.4,0,0,1,.54,0,1.52,1.52,0,0,1,.49.25,1.39,1.39,0,0,1,.35.41,18.46,18.46,0,0,1,2.15,12.21,18.88,18.88,0,0,1-4.6,9.26c-.36.39-.74.77-1.13,1.13A1.41,1.41,0,0,1,38.42,49.1Z"/><path class="cls-2" d="M17.83,43A1.44,1.44,0,0,1,17,42.7a1.39,1.39,0,0,1-.5-.69c-.28-.86-2.6-8.58,2.55-15.07a15.78,15.78,0,0,1,5-4.15,1.37,1.37,0,0,1,.52-.16,1.66,1.66,0,0,1,.54.06,1.28,1.28,0,0,1,.47.26,1.26,1.26,0,0,1,.34.42,1.37,1.37,0,0,1,.16.52,1.25,1.25,0,0,1-.06.54,1.42,1.42,0,0,1-.25.47,1.57,1.57,0,0,1-.42.35,13.08,13.08,0,0,0-4.13,3.41,12.72,12.72,0,0,0-2.7,8.06,15.32,15.32,0,0,0,.62,4.43,1.26,1.26,0,0,1,.05.64,1.44,1.44,0,0,1-.74,1,1.36,1.36,0,0,1-.63.15Z"/><path class="cls-2" d="M38.28,25.14a1.42,1.42,0,0,1-.72-.2,9.29,9.29,0,0,0-3.12-1.21,9.43,9.43,0,0,0-4.94.4,1.28,1.28,0,0,1-.54.09,1.33,1.33,0,0,1-.53-.13,1.43,1.43,0,0,1-.44-.32,1.53,1.53,0,0,1-.29-.47,1.41,1.41,0,0,1,.39-1.51,1.47,1.47,0,0,1,.47-.27A12.23,12.23,0,0,1,35,21a11.94,11.94,0,0,1,4,1.57,1.36,1.36,0,0,1,.57.68,1.4,1.4,0,0,1,0,.88,1.39,1.39,0,0,1-1.34,1Z"/><path class="cls-2" d="M21.07,21a1.43,1.43,0,0,1-.73-.2,1.53,1.53,0,0,1-.51-.56,1.44,1.44,0,0,1-.14-.74,1.43,1.43,0,0,1,.26-.71,12.69,12.69,0,0,1,3.9-3.5A13.35,13.35,0,0,1,33,13.81a1.48,1.48,0,0,1,.5.21,1.56,1.56,0,0,1,.39.38,1.48,1.48,0,0,1,.21.5,1.41,1.41,0,0,1-.21,1,1.37,1.37,0,0,1-.38.38,1.48,1.48,0,0,1-.5.21,1.23,1.23,0,0,1-.54,0,10.61,10.61,0,0,0-7.26,1.11,10,10,0,0,0-3,2.75,1.33,1.33,0,0,1-1.12.56Z"/><path class="cls-2" d="M48,32a1.36,1.36,0,0,1-1-.38,1.4,1.4,0,0,1-.43-.92A14.69,14.69,0,0,0,45.58,26a14.85,14.85,0,0,0-3.81-5.39,1.51,1.51,0,0,1-.35-.44,1.24,1.24,0,0,1-.15-.53,1.33,1.33,0,0,1,.07-.56,1.29,1.29,0,0,1,.28-.48,1.45,1.45,0,0,1,.45-.33,1.47,1.47,0,0,1,.54-.13,1.45,1.45,0,0,1,.55.1,1.25,1.25,0,0,1,.47.31A17.53,17.53,0,0,1,48.15,25a17.25,17.25,0,0,1,1.26,5.53,1.41,1.41,0,0,1-.07.54,1.5,1.5,0,0,1-.28.47,1.41,1.41,0,0,1-.43.33,1.33,1.33,0,0,1-.52.13Z"/></g></g></svg>