<svg xmlns="http://www.w3.org/2000/svg" viewBox="0 0 1424.88 1146"><defs><style>.cls-1{fill:#85c441;}.cls-2{fill:#201D1E;}</style></defs><g id="Layer_2" data-name="Layer 2"><g id="Layer_1-2" data-name="Layer 1"><g id="Layer_2-2" data-name="Layer 2"><g id="Layer_1-2-2" data-name="Layer 1-2"><g id="Warstwa_2" data-name="Warstwa 2"><g id="Warstwa_1-2" data-name="Warstwa 1-2"><g id="Warstwa_2-2" data-name="Warstwa 2-2"><g id="Warstwa_1-2-2" data-name="Warstwa 1-2-2"><path class="cls-1" d="M1321.31,464.91H103.57A104.42,104.42,0,0,1,0,361.33V103.57A103.23,103.23,0,0,1,103.57,0H1321.31a104.42,104.42,0,0,1,103.57,103.57V361.33a104.42,104.42,0,0,1-103.57,103.58ZM103.57,30A73.22,73.22,0,0,0,30,103.57V361.33c0,39.88,33.69,73.58,73.57,73.58H1321.31c39.88,0,73.57-33.7,73.57-73.58V103.57c0-39.88-33.69-73.57-73.57-73.57Z"/><circle class="cls-2" cx="192.14" cy="228.48" r="36.33"/><circle class="cls-2" cx="347.28" cy="228.48" r="36.33"/><circle class="cls-2" cx="498.17" cy="228.48" r="36.33" transform="translate(-49.51 208.03) rotate(-22.5)"/><path class="cls-2" d="M900.72,210.18H1267a17.88,17.88,0,0,1,18,18h0a17.88,17.88,0,0,1-18,18H900.72a17.88,17.88,0,0,1-18-18h0A18.05,18.05,0,0,1,900.72,210.18Z"/><path class="cls-1" d="M1321.31,1140.34H1285a15,15,0,0,1,0-30h36.33c39.88,0,73.57-33.69,73.57-73.58V779c0-39.88-33.69-73.57-73.57-73.57H103.57C63.69,705.43,30,739.12,30,779v257.76c0,39.89,33.69,73.58,73.57,73.58h899.78a15,15,0,1,1,0,30H103.57A104.42,104.42,0,0,1,0,1036.76V779A104.42,104.42,0,0,1,103.57,675.43H1321.31A104.42,104.42,0,0,1,1424.88,779v257.76a104.42,104.42,0,0,1-103.57,103.58Z"/><circle class="cls-2" cx="192.14" cy="903.91" r="36.33"/><circle class="cls-2" cx="347.28" cy="903.91" r="36.33"/><circle class="cls-2" cx="498.17" cy="903.91" r="36.33" transform="translate(-307.99 259.45) rotate(-22.5)"/><path class="cls-2" d="M900.72,885.61H1267a17.88,17.88,0,0,1,18,18h0a17.88,17.88,0,0,1-18,18H900.72a17.88,17.88,0,0,1-18-18h0a18.05,18.05,0,0,1,18-18Z"/><circle class="cls-1" cx="1177.62" cy="1125.34" r="20.66" transform="translate(-341.01 536.32) rotate(-22.5)"/></g></g></g></g></g></g></g></g></svg>