<?xml version="1.0" encoding="utf-8"?>
<!-- Generator: Adobe Illustrator 24.2.1, SVG Export Plug-In . SVG Version: 6.00 Build 0)  -->
<svg version="1.1" id="Layer_1" xmlns="http://www.w3.org/2000/svg" xmlns:xlink="http://www.w3.org/1999/xlink" x="0px" y="0px"
	 viewBox="0 0 184 159" style="enable-background:new 0 0 184 159;" xml:space="preserve">
<style type="text/css">
	.st0{fill:#FEFEFE;}
	.st1{fill:#201D1E;}
	.st2{fill:#FEFEFD;}
	.st3{fill:#FDEED0;}
	.st4{fill:#FDEED1;}
	.st5{fill:#FEBECE;}
	.st6{fill:#85C441;}
	.st7{fill:#FEFDFD;}
</style>
<path class="st0" d="M144,158.9c-36,0-71.9,0-107.9,0c0-0.5-0.1-1.1,0.4-1.4c5.8-3.3,10.4-7.4,13-13.9c1.1-2.9,4.6-2.2,7.2-2.2
	c7.9-0.2,8-0.2,8-8.3c0-18.1,0-36.2,0-54.4c0-6.8-0.5-7.2-7.5-7.4c-3-0.1-6,0.5-8.8-0.9C46.5,69,46.5,67,46.8,65
	c2.5-23.1,11.4-42.9,30.6-57.1c3.1-2.3,6.2-4.5,10.4-4.1C90.2,4,92.1,5,92.2,7.6c0.3,12,0.6,23.9-0.1,35.9c0,0.8-0.6,1.6-1.2,2.1
	c-3.8,1.7-7.9,0.9-11.8,0.9c-3.7,0-5.6,1.2-5.5,5.2c0.2,6-0.1,12,0.5,17.9c0.6-5,0.3-10.1,0.5-15.1c0.2-5.6,1.3-6.9,6.8-6.9
	c30.8-0.1,61.6-0.1,92.4,0c5.5,0,6.6,1.3,6.7,7c0.1,23.6,0.1,47.3,0,70.9c0,5.7-1,6.5-6.7,7c-1.1,0.1-2.3-0.3-3.4,0.7
	c2.3,0.6,4.7,0.1,6.9,0.8c1.4,0.5,2.3,1.3,2.4,2.8c0.1,1.8-0.9,2.7-2.5,3.3c-6.3,2.3-12.6,0-15.9-5.9c-3-5.3-7.3-8.7-13.7-8.4
	c-6.4,0.3-11.8,3.1-14.2,9.4c-1.7,4.4-4.7,5.5-8.9,5.4c-14-0.1-28,0-41.9,0c-1.9,0-3.9-0.3-5.8,0.6c3.1,0.5,6.1,0.3,9.2,0.3
	c12.5,0,25,0.1,37.4,0c4.8-0.1,8.3,1.2,10.1,6.2c1.2,3.4,3.9,5.7,7,7.6C142,156.1,144,156.6,144,158.9z"/>
<path class="st0" d="M0.1,119c0-38.4,0-76.7-0.1-115.1C0,0.8,0.6,0,3.8,0C31.9,0.2,59.9,0.1,88,0.1c0.3,0.5,0.3,1-0.2,1.4
	c-8.7,2-17.6,3.4-25.9,7.1c-22,9.8-37,26.1-44.4,49.1c-3.9,12.1-4.3,24.4-2.7,36.9c0,1.7-0.8,3.2-1.8,4.5
	c-4.6,6.2-8.8,12.6-11.6,19.9C1,119.3,0.5,119.3,0.1,119z"/>
<path class="st0" d="M98,0.1c27.6,0,55.3,0,82.9-0.1c2.5,0,3.1,0.6,3.1,3.1c-0.1,14.3-0.1,28.6-0.1,43c-0.5,0.3-1,0.5-1.6,0.5
	c-5.5-0.4-11.1,0.4-16.6-0.6c-1.5-0.5-2.4-1.7-3.2-3c-14-23.8-34.7-37.5-62.1-40.7c-0.8-0.1-1.6-0.3-2.3-0.8C97.7,1,97.6,0.6,98,0.1
	z"/>
<path class="st1" d="M164.9,44.8c4.5,0,9.1,0.1,13.6,0.1c1.6,0,3.3-0.5,4.5,1.1c0.8,1.8,0.4,3.6,0.4,5.4c0,29.7,0,59.5,0,89.2
	c0.2,2-0.7,3.1-2.7,3.5c-1.1,0.2-2.3,0.4-3.5,0.2c-6.7-0.8-12.1,0.3-15,7.7c-2,5.1-7.5,5.9-12.4,6.9c-2,0-4,0-6,0
	c-6.1-3.2-11.7-6.8-13.3-14.3c-0.5-2.4-3-1.6-4.7-1.6c-16,0-31.9,0-47.9,0c-1.3,0-2.7,0-4-0.1c-1.1-0.1-1.9-0.6-1.8-1.9
	c0.1-0.9,0.7-1.6,1.5-1.7c1.3-0.2,2.6-0.3,4-0.3c16,0,31.9-0.1,47.9,0c3.1,0,4.9-0.4,6-4c2.1-6.8,8.6-11.1,15.6-11.1
	c7.4,0,13.2,3.3,15.7,10.1c1.6,4.5,4,5.4,8,5c2-0.2,4,0,6-0.1c1.1,0,2-0.4,2-1.7c0.1-1.4-0.5-2.2-2-2.3c-2.8,0-5.7,0-8.5-0.1
	c-1.2,0-2.4-0.3-2.4-1.9c0-1.5,1.1-1.9,2.4-2c0.5-0.1,1,0,1.5-0.1c9.1-0.5,9.1-0.5,9.1-9.7c0-22.3-0.1-44.6,0.1-66.9
	c0-4.2-0.7-5.7-5.4-5.7c-30.9,0.2-61.9,0.2-92.8,0c-3.9,0-5.3,0.9-5,4.9c0.4,5.6,0.1,11.3,0.1,17c0,1.4,0.3,3.3-2,3.3
	c-2.2,0-2-1.8-2-3.3c0-7.5,0-15,0-22.5c0-2.7,1.3-3.4,3.7-3.4c5.2,0,10.3-0.1,15.5-0.1c1.5-1.2,3.2-1.4,5-1.5
	c12.7,0.5,25.4-0.1,38,0.3c1.8,0,3.5-0.3,5.3-0.3c6.7,0.5,13.5,0.1,20.2,0.4C161.6,43.5,163.2,44.1,164.9,44.8z"/>
<path class="st1" d="M0.9,118.9c0.7-6.7,5.1-11.6,8.6-16.9c1.5-2.3,3-4.7,4.5-7c0.5-2.1,1.5-4,2.7-5.8c2.3-3.3,4.8-6.4,6.6-10
	c4.5-8.8,11.6-11.7,21-10.4c1.4,0,2.7,0.3,3.7,1.4c4.5,0.1,9,0.2,13.4,0.2c3,0,4.6,0.8,4.6,4.3c-0.1,21.4-0.1,42.8,0,64.3
	c0,3.3-1.3,4.5-4.5,4.2c-1-0.1-2,0.1-3,0c-4.9-0.6-8.5,0.1-10.2,6c-1.6,5.7-7.5,7.4-12.3,9.8c-2,0-4,0-6,0
	c-7-1.1-11.8-4.9-14.2-11.7c-0.8-2.2-2.6-2.9-4.7-2.9c-2.3,0-4.7,0.1-7-0.2c-1.9-0.2-3.7-0.6-3.6-3.2C0.8,133.6,0.2,126.3,0.9,118.9
	z"/>
<path class="st0" d="M150,158.9c6.8-2.7,12.7-6.2,14.4-14c0.5-2.2,2.4-1.7,4.1-1.9c4.8-0.5,9.8,1.3,14.5-1.1c0.3-0.5,0.6-0.5,0.9,0
	c0,4.8-0.1,9.7,0.1,14.5c0.1,2.2-0.4,2.6-2.6,2.6C170.9,158.9,160.4,158.9,150,158.9z"/>
<path class="st2" d="M1,142c3.7,2.2,7.7,0.6,11.6,1.1c1.4,0.2,3.3-0.5,3.8,1.5c1.6,7.6,7.3,11.3,13.7,14.4c-9.2,0-18.3-0.1-27.5,0.1
	c-2.2,0-2.7-0.4-2.6-2.6c0.2-4.8,0.1-9.7,0.1-14.5C0.4,141.5,0.7,141.5,1,142z"/>
<path class="st3" d="M183.9,141.9c-0.3,0-0.6,0-0.9,0c0-32,0-64,0-96c0.3,0,0.6,0,0.9,0C183.9,78,183.9,110,183.9,141.9z"/>
<path class="st4" d="M1,142c-0.3,0-0.6,0-0.9,0c0-7.7,0-15.3,0-23c0.3,0,0.6,0,0.9,0C1,126.6,1,134.3,1,142z"/>
<path class="st5" d="M98,0.1c0,0.3,0,0.6,0.1,0.8c-3.4,2.4-6.7,2.4-10.1,0c0-0.3,0-0.6,0.1-0.8C91.3,0.1,94.7,0.1,98,0.1z"/>
<path class="st6" d="M88,0.9c3.4,0,6.7,0,10.1,0c30.1,2.7,52.5,17.2,66.8,43.9c-1.6,0-3.2,0-4.8,0c-3.8-2.7-5.4-7.1-8.2-10.5
	c-8.6-10.3-18.9-18.1-31.5-23c8.2,8.1,14.2,17.6,18.5,28.3c0.6,1.5,1.4,3.1,0.3,4.7c-1.3,0.9-2.7,0.5-4.1,0.5
	c-1.8-1.1-2.4-3.1-3.2-4.9c-4.5-9.9-10.4-18.8-18.6-26.1c-3.1-2.8-6.4-5.4-10.4-6.6c-4.9-1.6-6.4-0.4-6.5,4.7
	c-0.1,8.8,0,17.6,0,26.3c0,2.1,0.4,4.3-1.2,6.2c-1.2,0.9-2.7,0.5-4,0.5c0-12-0.1-23.9,0.1-35.9C91.3,5.6,90.3,4.7,87,5
	c-3.2,0.3-5.7,1.6-8.1,3.4C58.4,23.8,49,44.8,48,70.1c-1.3,0-2.7,0-4,0c-1.9-2.9-1.3-6.1-0.8-9.2C46,42.6,52.4,26,66,12.7
	c0.3-0.3,0.7-0.7,0.5-1.7c-16.1,6.7-29.2,17-38,32.2c-7.1,12.2-10.8,25.3-10.1,39.5c0.1,2.5,0,5-1.1,7.3c-0.6,1.9-1.8,3.5-3.2,4.9
	c-4.1-22.5,0.8-43,14.2-61.3C43,13.6,63.2,3,88,0.9z"/>
<path class="st1" d="M99.9,135.1c-8,0-16,0-23.9,0c-1.5,0-3.8,0.6-3.8-1.9c0.1-2.3,2.2-2,3.8-2c16.1,0,32.2,0,48.4,0
	c1.7,0,3.8-0.2,3.7,2.1c0,2.5-2.3,1.8-3.8,1.9C116.2,135.1,108.1,135.1,99.9,135.1z"/>
<path class="st0" d="M95.2,44.3c0-11.6,0.2-23.3-0.1-34.9c-0.1-4,1.3-4.8,4.8-4.4c3.1,0.4,5.8,1.1,8.3,3
	c12.9,9.4,21.9,21.6,26.9,36.8C121.7,44.7,108.4,45.6,95.2,44.3z"/>
<path class="st0" d="M134.8,140.9c0-7.2,5.8-12.9,12.9-12.9c6.8,0,13.1,6.4,13,13.2c-0.1,7.2-5.8,12.9-13,13
	C140,154.3,134.7,148.8,134.8,140.9z"/>
<path class="st7" d="M139.2,44.3c-2-6.7-5.1-12.9-8.8-18.8c-3.7-5.9-8.3-11.1-13.1-16.2c19,6.2,33.4,17.8,42.8,35.5
	C153.1,44.7,146.1,45.6,139.2,44.3z"/>
<path class="st0" d="M61.9,107.2c0,9-0.2,18,0.1,26.9c0.1,3.8-0.9,5.2-4.9,5.1c-4.1-0.1-6.6-0.6-8.3-5.2c-2.5-6.9-8.6-10-15.8-10
	c-7.4,0.1-12.5,4-15.5,10.6c-1.7,3.6-7.6,5.9-11.2,4.2C4.7,138.3,5,137.1,5,136c-0.8-12,0.2-23.2,8.7-33.1
	c6.1-7.1,11-15.4,16.1-23.4c2.2-3.4,4.6-5.1,8.9-4.9c6.3,0.4,12.6,0.3,18.9,0c3.6-0.1,4.5,1.2,4.4,4.6
	C61.8,88.5,61.9,97.9,61.9,107.2z"/>
<path class="st0" d="M17.2,90.1C13.8,53.2,42,9.9,70.7,9.4c-17.6,16.8-26.1,37-26.7,60.6c-10.5-1.7-16.8,3.5-21.2,12.4
	C21.4,85.2,19.1,87.5,17.2,90.1z"/>
<path class="st0" d="M46.2,141.3c0,7.4-5.5,12.9-12.8,12.9c-7.2,0-13.1-5.8-13.1-12.9c0-6.9,6.1-13.2,12.8-13.3
	C40.4,127.9,46.2,133.8,46.2,141.3z"/>
</svg>
