<svg xmlns="http://www.w3.org/2000/svg" viewBox="0 0 1424.57 1184.83"><defs><style>.cls-1{fill:#85c441;}.cls-2{fill:#201D1E;}</style></defs><g id="Layer_2" data-name="Layer 2"><g id="Layer_1-2" data-name="Layer 1"><g id="Layer_2-2" data-name="Layer 2"><g id="Layer_1-2-2" data-name="Layer 1-2"><g id="Warstwa_2" data-name="Warstwa 2"><g id="Warstwa_1-2" data-name="Warstwa 1-2"><g id="Warstwa_2-2" data-name="Warstwa 2-2"><g id="Warstwa_1-2-2" data-name="Warstwa 1-2-2"><path class="cls-1" d="M967.64,915a460.8,460.8,0,0,1-71.89-5.67,457.48,457.48,0,1,1,477.32-241.11,15,15,0,0,1-26.63-13.82,427.8,427.8,0,1,0-127.94,148.8,15,15,0,0,1,17.64,24.26A456,456,0,0,1,967.64,915Z"/><path class="cls-1" d="M1409.57,865.58a14.69,14.69,0,0,1-2.87-.28l-182.54-35.6a15,15,0,1,1,5.75-29.44l158.68,31L1343.36,669a15,15,0,1,1,28.89-8.06L1424,846.55a15,15,0,0,1-14.45,19Z"/><path class="cls-2" d="M928.18,583V572.32c0-41.22,13-76.52,66.38-132,40.48-42,48.89-67,48.89-100.06.77-41.24-24.49-79.4-77.88-79.4-44.09,0-68.85,22.67-79.78,67a30.32,30.32,0,0,1-59-13.72c12.23-49.37,48.59-105.9,142-105.9,100,0,138.9,64.86,138.9,131.24,0,50.42-16.74,87.07-67.93,139-35.86,36.65-47.82,63.34-47.82,97.68v6.89a89.54,89.54,0,0,0-64.1,0Z"/><circle class="cls-2" cx="959.55" cy="672.92" r="33.48"/><path class="cls-1" d="M58.48,980.66a15,15,0,0,1-13.32-8.08A399.75,399.75,0,0,1,530,409.91a15,15,0,0,1-9.76,28.37A369.87,369.87,0,0,0,71.77,958.73a15,15,0,0,1-13.29,21.93Z"/><path class="cls-1" d="M506.66,1173.15a15,15,0,0,1-4.17-29.41A370.57,370.57,0,0,0,763.34,856.86a15,15,0,1,1,29.47,5.59,400.54,400.54,0,0,1-282,310.1A14.84,14.84,0,0,1,506.66,1173.15Z"/><path class="cls-1" d="M278.8,1168.65a15,15,0,0,1-4.73-.77,399.24,399.24,0,0,1-109.35-56.26,15,15,0,1,1,17.67-24.25,369.05,369.05,0,0,0,101.13,52,15,15,0,0,1-4.72,29.24Z"/><path class="cls-1" d="M15.24,1145.1a15,15,0,0,1-14.45-19l45-161.29a15,15,0,0,1,28.9,8.06L36.21,1110.72,171,1084.39a15,15,0,1,1,5.75,29.44l-158.61,31A14.77,14.77,0,0,1,15.24,1145.1Z"/><circle class="cls-1" cx="351.76" cy="1168.22" r="16.61"/></g></g></g></g></g></g></g></g></svg>